<svg height="512pt" viewBox="0 0 512 512" width="512pt" xmlns="http://www.w3.org/2000/svg"><path d="m501.335938 337.636719c-6.847657-6.859375-16.300782-10.792969-25.925782-10.792969-12.460937 0-25.050781-.007812-37.640625-.015625-12.597656-.007813-25.195312-.015625-37.660156-.015625-9.660156 0-18.75 3.773438-25.59375 10.628906-6.835937 6.84375-10.59375 15.921875-10.578125 25.566406l.046875 34.585938c.007813 5.613281 3.148437 10.75 8.140625 13.316406 20.199219 10.390625 42.953125 15.878906 65.800781 15.878906 22.851563 0 45.605469-5.488281 65.804688-15.878906 4.992187-2.566406 8.132812-7.707031 8.140625-13.316406l.046875-34.558594c.011719-9.535156-3.746094-18.554687-10.582031-25.398437zm0 0" fill="#ff2828"/><path d="m437.910156 206.089844c-29.675781 0-53.816406 24.140625-53.816406 53.816406 0 29.671875 24.144531 53.816406 53.816406 53.816406 29.675782 0 53.816406-24.144531 53.816406-53.816406 0-29.675781-24.140624-53.816406-53.816406-53.816406zm0 0" fill="#ffcdbe"/><path d="m137.402344 337.636719c-6.851563-6.859375-16.300782-10.792969-25.925782-10.792969-12.460937 0-25.054687-.007812-37.644531-.015625-12.597656-.007813-25.191406-.015625-37.660156-.015625-9.660156 0-18.75 3.773438-25.59375 10.628906-6.835937 6.84375-10.59375 15.921875-10.578125 25.566406l.046875 34.585938c.0078125 5.613281 3.148437 10.753906 8.140625 13.320312 20.199219 10.386719 42.953125 15.878907 65.804688 15.878907 22.847656 0 45.601562-5.492188 65.800781-15.882813 4.992187-2.566406 8.132812-7.703125 8.140625-13.316406l.046875-34.558594c.011719-9.535156-3.742188-18.554687-10.578125-25.398437zm0 0" fill="#ffde46"/><path d="m73.976562 206.089844c-29.675781 0-53.816406 24.140625-53.816406 53.816406 0 29.671875 24.140625 53.816406 53.816406 53.816406 29.671876 0 53.816407-24.144531 53.816407-53.816406 0-29.675781-24.144531-53.816406-53.816407-53.816406zm0 0" fill="#ffcdbe"/><path d="m319.199219 422.84375c-6.847657-6.859375-16.296875-10.792969-25.925781-10.792969-12.460938 0-25.050782-.007812-37.640626-.015625-12.597656-.007812-25.195312-.015625-37.660156-.015625-9.660156 0-18.75 3.777344-25.59375 10.628907-6.835937 6.847656-10.59375 15.925781-10.578125 25.566406l.046875 34.589844c.007813 5.609374 3.148438 10.75 8.140625 13.316406 20.199219 10.386718 42.953125 15.878906 65.804688 15.878906 22.847656 0 45.601562-5.492188 65.800781-15.878906 4.992188-2.566406 8.132812-7.707032 8.140625-13.320313l.046875-34.558593c.011719-9.53125-3.746094-18.554688-10.582031-25.398438zm0 0" fill="#00ee84"/><path d="m255.773438 291.296875c-29.671876 0-53.816407 24.144531-53.816407 53.816406 0 29.675781 24.144531 53.816407 53.816407 53.816407 29.675781 0 53.820312-24.140626 53.820312-53.816407 0-29.671875-24.144531-53.816406-53.820312-53.816406zm0 0" fill="#ffcdbe"/><path d="m443.925781 0h-375.933593c-8.28125 0-15 6.714844-15 15v146c0 8.285156 6.71875 15 15 15h28.96875v11c0 5.132812 2.621093 9.910156 6.953124 12.660156 4.332032 2.753906 9.769532 3.097656 14.417969.917969l49.34375-23.15625c2.179688-1.023437 3.96875-1.421875 6.375-1.421875h163.816407c2.410156 0 4.195312.398438 6.375 1.421875l49.34375 23.15625c2.027343.953125 4.203124 1.421875 6.371093 1.421875 2.808594 0 5.601563-.785156 8.046875-2.339844 4.332032-2.75 6.957032-7.527344 6.957032-12.660156v-11h28.964843c8.28125 0 15-6.714844 15-15v-146c0-8.285156-6.71875-15-15-15zm0 0" fill="#a8ebfa"/><path d="m443.925781 0h-187.964843v176h81.90625c2.410156 0 4.195312.398438 6.375 1.421875l49.34375 23.15625c2.027343.953125 4.203124 1.421875 6.371093 1.421875 2.808594 0 5.601563-.785156 8.046875-2.339844 4.332032-2.75 6.957032-7.527344 6.957032-12.660156v-11h28.964843c8.28125 0 15-6.714844 15-15v-146c0-8.285156-6.71875-15-15-15zm0 0" fill="#76e2f8"/><g fill="#27d8f6"><path d="m195.214844 73h-.503906c-8.285157 0-15 6.714844-15 15s6.714843 15 15 15h.503906c8.285156 0 15-6.714844 15-15s-6.714844-15-15-15zm0 0"/><path d="m317.210938 73h-.507813c-8.285156 0-15 6.714844-15 15s6.714844 15 15 15h.507813c8.28125 0 15-6.714844 15-15s-6.71875-15-15-15zm0 0"/><path d="m256.210938 73h-.507813c-8.285156 0-15 6.714844-15 15s6.714844 15 15 15h.507813c8.28125 0 15-6.714844 15-15s-6.71875-15-15-15zm0 0"/></g><path d="m317.210938 73h-.507813c-8.285156 0-15 6.714844-15 15s6.714844 15 15 15h.507813c8.28125 0 15-6.714844 15-15s-6.71875-15-15-15zm0 0" fill="#00cef5"/><path d="m256.210938 73h-.265626v30h.265626c8.28125 0 15-6.714844 15-15s-6.71875-15-15-15zm0 0" fill="#00cef5"/><path d="m255.792969 291.296875v107.636719c29.667969-.011719 53.800781-24.148438 53.800781-53.820313 0-29.667969-24.132812-53.808593-53.800781-53.816406zm0 0" fill="#ffbeaa"/><path d="m319.199219 422.84375c-6.847657-6.859375-16.296875-10.792969-25.925781-10.792969-12.40625 0-24.945313-.007812-37.480469-.015625v99.964844c22.847656 0 45.601562-5.492188 65.800781-15.878906 4.992188-2.566406 8.132812-7.707032 8.140625-13.320313l.046875-34.558593c.011719-9.53125-3.746094-18.554688-10.582031-25.398438zm0 0" fill="#00dd7b"/><path d="m73.992188 206.089844v107.632812c29.667968-.007812 53.800781-24.148437 53.800781-53.816406 0-29.671875-24.132813-53.808594-53.800781-53.816406zm0 0" fill="#ffbeaa"/><path d="m137.402344 337.636719c-6.851563-6.859375-16.300782-10.792969-25.925782-10.792969-12.410156 0-24.949218-.007812-37.484374-.015625v99.960937c22.847656 0 45.601562-5.488281 65.800781-15.878906 4.992187-2.566406 8.132812-7.707031 8.140625-13.316406l.046875-34.558594c.011719-9.535156-3.742188-18.554687-10.578125-25.398437zm0 0" fill="#ffcd00"/><path d="m438.460938 206.101562v107.609376c29.421874-.296876 53.269531-24.3125 53.269531-53.804688s-23.847657-53.507812-53.269531-53.804688zm0 0" fill="#ffbeaa"/><path d="m501.335938 337.636719c-6.847657-6.859375-16.300782-10.792969-25.925782-10.792969-12.230468 0-24.589844-.007812-36.949218-.015625v99.953125c22.667968-.082031 45.226562-5.5625 65.269531-15.871094 4.992187-2.566406 8.132812-7.707031 8.140625-13.316406l.046875-34.558594c.011719-9.535156-3.746094-18.554687-10.582031-25.398437zm0 0" fill="#c9001c"/></svg>