<?xml version="1.0" encoding="UTF-8" standalone="no"?>
<svg
   xmlns:ooo="http://xml.openoffice.org/svg/export"
   xmlns:dc="http://purl.org/dc/elements/1.1/"
   xmlns:cc="http://creativecommons.org/ns#"
   xmlns:rdf="http://www.w3.org/1999/02/22-rdf-syntax-ns#"
   xmlns:svg="http://www.w3.org/2000/svg"
   xmlns="http://www.w3.org/2000/svg"
   style="fill-rule:evenodd;stroke-width:28.22200012;stroke-linejoin:round"
   id="svg67"
   xml:space="preserve"
   preserveAspectRatio="xMidYMid"
   viewBox="0 0 7401.9997 1257"
   height="12.57mm"
   width="74.019997mm"
   version="1.2"><metadata
   id="metadata71"><rdf:RDF><cc:Work
       rdf:about=""><dc:format>image/svg+xml</dc:format><dc:type
         rdf:resource="http://purl.org/dc/dcmitype/StillImage" /><dc:title></dc:title></cc:Work></rdf:RDF></metadata>
 <defs
   id="defs5"
   class="ClipPathGroup">
  <clipPath
   clipPathUnits="userSpaceOnUse"
   id="presentation_clip_path">
   <rect
   id="rect2"
   height="29700"
   width="21000"
   y="0"
   x="0" />
  </clipPath>
 </defs>
 <defs
   id="defs9"
   class="TextShapeIndex">
  <g
   id="g7"
   ooo:id-list="id3"
   ooo:slide="id1" />
 </defs>
 <defs
   id="defs38"
   class="EmbeddedBulletChars">
  <g
   transform="matrix(4.8828125e-4,0,0,-4.8828125e-4,0,0)"
   id="bullet-char-template(57356)">
   <path
   id="path11"
   d="M 580,1141 1163,571 580,0 -4,571 Z" />
  </g>
  <g
   transform="matrix(4.8828125e-4,0,0,-4.8828125e-4,0,0)"
   id="bullet-char-template(57354)">
   <path
   id="path14"
   d="M 8,1128 H 1137 V 0 H 8 Z" />
  </g>
  <g
   transform="matrix(4.8828125e-4,0,0,-4.8828125e-4,0,0)"
   id="bullet-char-template(10146)">
   <path
   id="path17"
   d="M 174,0 602,739 174,1481 1456,739 Z M 1358,739 309,1346 659,739 Z" />
  </g>
  <g
   transform="matrix(4.8828125e-4,0,0,-4.8828125e-4,0,0)"
   id="bullet-char-template(10132)">
   <path
   id="path20"
   d="M 2015,739 1276,0 H 717 l 543,543 H 174 v 393 h 1086 l -543,545 h 557 z" />
  </g>
  <g
   transform="matrix(4.8828125e-4,0,0,-4.8828125e-4,0,0)"
   id="bullet-char-template(10007)">
   <path
   id="path23"
   d="m 0,-2 c -7,16 -16,29 -25,39 l 381,530 c -94,256 -141,385 -141,387 0,25 13,38 40,38 9,0 21,-2 34,-5 21,4 42,12 65,25 l 27,-13 111,-251 280,301 64,-25 24,25 c 21,-10 41,-24 62,-43 C 886,937 835,863 770,784 769,783 710,716 594,584 L 774,223 c 0,-27 -21,-55 -63,-84 l 16,-20 C 717,90 699,76 672,76 641,76 570,178 457,381 L 164,-76 c -22,-34 -53,-51 -92,-51 -42,0 -63,17 -64,51 -7,9 -10,24 -10,44 0,9 1,19 2,30 z" />
  </g>
  <g
   transform="matrix(4.8828125e-4,0,0,-4.8828125e-4,0,0)"
   id="bullet-char-template(10004)">
   <path
   id="path26"
   d="M 285,-33 C 182,-33 111,30 74,156 52,228 41,333 41,471 c 0,78 14,145 41,201 34,71 87,106 158,106 53,0 88,-31 106,-94 l 23,-176 c 8,-64 28,-97 59,-98 l 735,706 c 11,11 33,17 66,17 42,0 63,-15 63,-46 V 965 c 0,-36 -10,-64 -30,-84 L 442,47 C 390,-6 338,-33 285,-33 Z" />
  </g>
  <g
   transform="matrix(4.8828125e-4,0,0,-4.8828125e-4,0,0)"
   id="bullet-char-template(9679)">
   <path
   id="path29"
   d="M 813,0 C 632,0 489,54 383,161 276,268 223,411 223,592 c 0,181 53,324 160,431 106,107 249,161 430,161 179,0 323,-54 432,-161 108,-107 162,-251 162,-431 0,-180 -54,-324 -162,-431 C 1136,54 992,0 813,0 Z" />
  </g>
  <g
   transform="matrix(4.8828125e-4,0,0,-4.8828125e-4,0,0)"
   id="bullet-char-template(8226)">
   <path
   id="path32"
   d="m 346,457 c -73,0 -137,26 -191,78 -54,51 -81,114 -81,188 0,73 27,136 81,188 54,52 118,78 191,78 73,0 134,-26 185,-79 51,-51 77,-114 77,-187 0,-75 -25,-137 -76,-188 -50,-52 -112,-78 -186,-78 z" />
  </g>
  <g
   transform="matrix(4.8828125e-4,0,0,-4.8828125e-4,0,0)"
   id="bullet-char-template(8211)">
   <path
   id="path35"
   d="M -4,459 H 1135 V 606 H -4 Z" />
  </g>
 </defs>
 <defs
   id="defs40"
   class="TextEmbeddedBitmaps" />
 <g
   transform="translate(-6784,-14202)"
   id="g45">
  <g
   class="Master_Slide"
   id="id2">
   <g
   class="Background"
   id="bg-id2" />
   <g
   class="BackgroundObjects"
   id="bo-id2" />
  </g>
 </g>
 <g
   transform="translate(-6784,-14202)"
   id="g65"
   class="SlideGroup">
  <g
   id="g63">
   <g
   clip-path="url(#presentation_clip_path)"
   class="Slide"
   id="id1">
    <g
   id="g60"
   class="Page">
     <g
   id="g58"
   class="Graphic">
      <g
   id="id3">
       <rect
   style="fill:none;stroke:none"
   id="rect47"
   height="1257"
   width="7402"
   y="14202"
   x="6784"
   class="BoundingBox" />
       <path
   style="fill:#141515;stroke:none"
   id="path49"
   d="m 8606,15451 v -293 h 151 v 57 h -86 v 54 h 80 v 58 h -80 v 64 h 86 v 60 z m 218,0 v -293 h 68 l 54,181 v 0 c -2,-31 -4,-57 -5,-79 v 0 c -1,-22 -1,-41 -1,-56 v -46 h 58 v 293 h -68 l -55,-186 v 0 c 3,24 5,47 6,70 v 0 c 1,23 2,45 2,66 v 50 z m 360,-114 h 64 v 0 c 0,2 1,4 1,6 v 0 c 0,2 0,5 0,9 v 0 c 0,36 -8,63 -23,80 v 0 c -15,17 -37,26 -68,26 v 0 c -18,0 -34,-3 -47,-9 v 0 c -13,-7 -23,-16 -31,-29 v 0 c -6,-9 -10,-22 -12,-38 v 0 c -2,-17 -4,-42 -4,-78 v 0 c 0,-35 2,-61 4,-77 v 0 c 2,-16 6,-29 12,-38 v 0 c 8,-13 18,-22 31,-29 v 0 c 13,-6 28,-9 46,-9 v 0 c 30,0 53,9 68,26 v 0 c 16,18 23,45 23,81 v 2 h -63 v 0 c 0,-20 -2,-34 -7,-42 v 0 c -4,-8 -11,-12 -20,-12 v 0 c -11,0 -18,5 -22,15 v 0 c -4,10 -6,36 -6,78 v 5 0 c 0,46 2,73 6,84 v 0 c 4,10 11,15 22,15 v 0 c 10,0 16,-4 20,-11 v 0 c 4,-8 6,-21 6,-42 z m 277,114 h -144 v -293 h 66 v 234 h 78 z m 156,-120 v -53 0 c 0,-33 -2,-53 -5,-60 v 0 c -4,-8 -11,-12 -22,-12 v 0 c -10,0 -17,4 -21,12 v 0 c -3,8 -5,28 -5,60 v 53 0 c 0,32 2,51 5,59 v 0 c 4,9 11,13 22,13 v 0 c 10,0 17,-4 21,-12 v 0 c 4,-8 5,-28 5,-60 z m -120,-27 v 0 c 0,-35 1,-61 4,-77 v 0 c 2,-16 6,-29 12,-38 v 0 c 8,-13 18,-23 31,-29 v 0 c 13,-6 29,-9 47,-9 v 0 c 18,0 33,3 46,9 v 0 c 13,6 23,16 31,29 v 0 c 6,9 10,22 12,38 v 0 c 3,16 4,42 4,77 v 0 c 0,35 -1,61 -4,77 v 0 c -2,17 -6,29 -12,39 v 0 c -8,13 -18,22 -31,29 v 0 c -13,6 -28,9 -46,9 v 0 c -18,0 -34,-3 -47,-9 v 0 c -13,-7 -23,-16 -31,-29 v 0 c -6,-9 -10,-22 -12,-38 v 0 c -3,-17 -4,-42 -4,-78 z m 245,48 h 60 v 8 0 c 0,16 1,28 5,34 v 0 c 4,7 10,10 18,10 v 0 c 7,0 13,-2 16,-7 v 0 c 5,-5 6,-12 6,-21 v 0 c 0,-14 -9,-28 -29,-41 v 0 c -3,-2 -5,-4 -7,-5 l -3,-2 v 0 c -26,-19 -43,-33 -49,-42 v 0 c -5,-7 -8,-15 -10,-24 v 0 c -3,-9 -4,-19 -4,-29 v 0 c 0,-26 7,-46 21,-60 v 0 c 14,-15 34,-22 58,-22 v 0 c 27,0 48,7 62,21 v 0 c 14,15 21,35 21,62 v 0 c 0,2 0,3 0,5 v 0 c 0,2 0,4 0,5 h -58 v -4 0 c 0,-12 -2,-22 -6,-29 v 0 c -4,-6 -9,-10 -17,-10 v 0 c -6,0 -11,3 -15,7 v 0 c -3,5 -5,11 -5,19 v 0 c 0,12 10,25 32,39 v 0 c 4,3 7,5 9,6 v 0 c 1,1 4,3 7,5 v 0 c 22,15 37,28 44,39 v 0 c 3,6 7,14 9,23 v 0 c 2,8 3,17 3,27 v 0 c 0,30 -7,52 -22,68 v 0 c -14,16 -35,24 -62,24 v 0 c -28,0 -50,-8 -64,-23 v 0 c -14,-15 -21,-38 -21,-67 v 0 c 0,-2 0,-4 0,-6 v 0 c 0,-3 0,-6 1,-10 z m 229,-194 h 66 v 183 0 c 0,28 2,45 5,52 v 0 c 3,7 9,10 18,10 v 0 c 8,0 14,-3 18,-10 v 0 c 3,-7 4,-24 4,-52 v -183 h 65 v 187 0 c 0,21 -1,37 -2,47 v 0 c -2,11 -5,20 -9,28 v 0 c -7,13 -16,23 -29,29 v 0 c -13,6 -29,9 -49,9 v 0 c -19,0 -34,-3 -46,-9 v 0 c -11,-5 -21,-15 -27,-27 v 0 c -5,-9 -9,-21 -11,-35 v 0 c -2,-14 -3,-38 -3,-71 z m 312,122 v 0 c 1,0 3,0 4,0 v 0 c 2,0 3,0 4,0 v 0 c 14,0 23,-3 29,-8 v 0 c 6,-6 8,-16 8,-29 v 0 c 0,-13 -2,-22 -8,-27 v 0 c -6,-5 -15,-8 -29,-8 v 0 c -1,0 -2,0 -4,0 v 0 c -1,0 -3,0 -4,0 z m -64,171 v -293 h 73 v 0 c 24,0 42,1 52,3 v 0 c 11,3 20,7 27,12 v 0 c 8,7 14,16 18,26 v 0 c 4,10 6,22 6,35 v 0 c 0,17 -3,31 -9,43 v 0 c -5,11 -14,21 -26,28 v 0 c 20,9 31,32 32,67 v 1 0 c 0,4 0,9 0,16 v 0 c 1,33 6,54 16,62 h -76 v 0 c -2,-6 -3,-12 -4,-19 v 0 c -1,-7 -1,-14 -1,-22 v 0 c 0,-4 0,-10 0,-17 v 0 c 0,-6 0,-11 0,-13 v 0 c 0,-18 -2,-30 -6,-36 v 0 c -5,-7 -13,-10 -24,-10 h -14 v 117 z m 243,0 v -293 h 152 v 57 h -87 v 54 h 80 v 58 h -80 v 64 h 87 v 60 z m 210,-99 h 60 v 8 0 c 0,16 2,28 5,34 v 0 c 4,7 10,10 19,10 v 0 c 7,0 12,-2 16,-7 v 0 c 4,-5 6,-12 6,-21 v 0 c 0,-14 -10,-28 -29,-41 v 0 c -3,-2 -6,-4 -7,-5 l -4,-2 v 0 c -26,-19 -42,-33 -48,-42 v 0 c -5,-7 -9,-15 -11,-24 v 0 c -2,-9 -4,-19 -4,-29 v 0 c 0,-26 7,-46 22,-60 v 0 c 14,-15 33,-22 58,-22 v 0 c 27,0 47,7 62,21 v 0 c 14,15 21,35 21,62 v 0 c 0,2 0,3 0,5 v 0 c 0,2 0,4 0,5 h -59 v -4 0 c 0,-12 -2,-22 -6,-29 v 0 c -3,-6 -9,-10 -16,-10 v 0 c -6,0 -11,3 -15,7 v 0 c -4,5 -6,11 -6,19 v 0 c 0,12 11,25 32,39 v 0 c 4,3 7,5 9,6 v 0 c 2,1 4,3 7,5 v 0 c 23,15 38,28 44,39 v 0 c 4,6 7,14 9,23 v 0 c 2,8 3,17 3,27 v 0 c 0,30 -7,52 -21,68 v 0 c -15,16 -36,24 -63,24 v 0 c -28,0 -49,-8 -63,-23 v 0 c -14,-15 -22,-38 -22,-67 v 0 c 0,-2 0,-4 1,-6 v 0 c 0,-3 0,-6 0,-10 z m 329,99 v -293 h 152 v 57 h -86 v 53 h 80 v 59 h -80 v 124 z m 331,-120 v -53 0 c 0,-33 -2,-53 -5,-60 v 0 c -4,-8 -12,-12 -22,-12 v 0 c -10,0 -17,4 -21,12 v 0 c -4,8 -5,28 -5,60 v 53 0 c 0,32 1,51 5,59 v 0 c 4,9 11,13 22,13 v 0 c 10,0 17,-4 21,-12 v 0 c 3,-8 5,-28 5,-60 z m -120,-27 v 0 c 0,-35 1,-61 4,-77 v 0 c 2,-16 6,-29 12,-38 v 0 c 8,-13 18,-23 31,-29 v 0 c 13,-6 28,-9 47,-9 v 0 c 18,0 33,3 46,9 v 0 c 13,6 23,16 31,29 v 0 c 6,9 10,22 12,38 v 0 c 3,16 4,42 4,77 v 0 c 0,35 -1,61 -4,77 v 0 c -2,17 -6,29 -12,39 v 0 c -8,13 -18,22 -31,29 v 0 c -13,6 -28,9 -46,9 v 0 c -19,0 -34,-3 -47,-9 v 0 c -13,-7 -23,-16 -31,-29 v 0 c -6,-9 -10,-22 -12,-38 v 0 c -3,-17 -4,-42 -4,-78 z m 318,-24 v 0 c 1,0 2,0 4,0 v 0 c 2,0 3,0 4,0 v 0 c 13,0 23,-3 29,-8 v 0 c 5,-6 8,-16 8,-29 v 0 c 0,-13 -3,-22 -8,-27 v 0 c -6,-5 -16,-8 -29,-8 v 0 c -1,0 -2,0 -4,0 v 0 c -2,0 -3,0 -4,0 z m -65,171 v -293 h 74 v 0 c 24,0 41,1 52,3 v 0 c 11,3 20,7 26,12 v 0 c 8,7 14,16 18,26 v 0 c 4,10 6,22 6,35 v 0 c 0,17 -3,31 -8,43 v 0 c -6,11 -15,21 -26,28 v 0 c 20,9 30,32 31,67 v 1 0 c 0,4 1,9 1,16 v 0 c 0,33 5,54 15,62 h -76 v 0 c -2,-6 -3,-12 -4,-19 v 0 c 0,-7 -1,-14 -1,-22 v 0 c 0,-4 0,-10 0,-17 v 0 c 1,-6 1,-11 1,-13 v 0 c 0,-18 -2,-30 -7,-36 v 0 c -4,-7 -12,-10 -24,-10 h -13 v 117 z m 343,0 v -293 h 152 v 57 h -87 v 54 h 80 v 58 h -80 v 64 h 87 v 60 z m 362,0 h -143 v -293 h 65 v 234 h 78 z m 55,0 v -293 h 152 v 57 h -87 v 54 h 81 v 58 h -81 v 64 h 87 v 60 z m 333,-114 h 64 v 0 c 0,2 0,4 1,6 v 0 c 0,2 0,5 0,9 v 0 c 0,36 -8,63 -23,80 v 0 c -15,17 -38,26 -68,26 v 0 c -18,0 -34,-3 -47,-9 v 0 c -13,-7 -23,-16 -31,-29 v 0 c -6,-9 -10,-22 -12,-38 v 0 c -3,-17 -4,-42 -4,-78 v 0 c 0,-35 1,-61 4,-77 v 0 c 2,-16 6,-29 12,-38 v 0 c 8,-13 18,-22 31,-29 v 0 c 13,-6 28,-9 46,-9 v 0 c 30,0 53,9 68,26 v 0 c 16,18 23,45 23,81 v 2 h -63 v 0 c 0,-20 -3,-34 -7,-42 v 0 c -4,-8 -11,-12 -20,-12 v 0 c -11,0 -18,5 -22,15 v 0 c -4,10 -6,36 -6,78 v 5 0 c 0,46 2,73 6,84 v 0 c 4,10 11,15 22,15 v 0 c 9,0 16,-4 20,-11 v 0 c 4,-8 6,-21 6,-42 z m 167,114 v -236 h -52 v -57 h 173 v 57 h -55 v 236 z m 238,-171 v 0 c 1,0 2,0 4,0 v 0 c 2,0 3,0 4,0 v 0 c 14,0 23,-3 29,-8 v 0 c 5,-6 8,-16 8,-29 v 0 c 0,-13 -3,-22 -8,-27 v 0 c -6,-5 -15,-8 -29,-8 v 0 c -1,0 -2,0 -4,0 v 0 c -2,0 -3,0 -4,0 z m -65,171 v -293 h 74 v 0 c 24,0 41,1 52,3 v 0 c 11,3 20,7 27,12 v 0 c 8,7 14,16 18,26 v 0 c 3,10 5,22 5,35 v 0 c 0,17 -2,31 -8,43 v 0 c -6,11 -14,21 -26,28 v 0 c 20,9 31,32 32,67 v 1 0 c 0,4 0,9 0,16 v 0 c 1,33 6,54 16,62 h -77 v 0 c -1,-6 -3,-12 -3,-19 v 0 c -1,-7 -2,-14 -2,-22 v 0 c 0,-4 1,-10 1,-17 v 0 c 0,-6 0,-11 0,-13 v 0 c 0,-18 -2,-30 -7,-36 v 0 c -4,-7 -12,-10 -24,-10 h -13 v 117 z m 359,-120 v -53 0 c 0,-33 -2,-53 -6,-60 v 0 c -4,-8 -11,-12 -21,-12 v 0 c -10,0 -17,4 -21,12 v 0 c -4,8 -6,28 -6,60 v 53 0 c 0,32 2,51 6,59 v 0 c 4,9 11,13 21,13 v 0 c 10,0 17,-4 21,-12 v 0 c 4,-8 6,-28 6,-60 z m -121,-27 v 0 c 0,-35 2,-61 4,-77 v 0 c 3,-16 6,-29 12,-38 v 0 c 8,-13 18,-23 31,-29 v 0 c 13,-6 29,-9 47,-9 v 0 c 18,0 34,3 46,9 v 0 c 13,6 23,16 31,29 v 0 c 6,9 10,22 13,38 v 0 c 2,16 3,42 3,77 v 0 c 0,35 -1,61 -3,77 v 0 c -3,17 -7,29 -13,39 v 0 c -7,13 -18,22 -31,29 v 0 c -12,6 -28,9 -46,9 v 0 c -18,0 -34,-3 -47,-9 v 0 c -13,-7 -23,-16 -31,-29 v 0 c -6,-9 -9,-22 -12,-38 v 0 c -2,-17 -4,-42 -4,-78 z m 254,147 v -293 h 67 l 55,181 v 0 c -2,-31 -4,-57 -5,-79 v 0 c -1,-22 -2,-41 -2,-56 v -46 h 58 v 293 h -68 l -54,-186 v 0 c 2,24 4,47 5,70 v 0 c 2,23 2,45 2,66 v 50 z m 245,0 v -293 h 66 v 293 z m 251,-114 h 64 v 0 c 1,2 1,4 1,6 v 0 c 0,2 0,5 0,9 v 0 c 0,36 -8,63 -23,80 v 0 c -14,17 -37,26 -68,26 v 0 c -18,0 -34,-3 -47,-9 v 0 c -13,-7 -23,-16 -31,-29 v 0 c -6,-9 -9,-22 -12,-38 v 0 c -2,-17 -4,-42 -4,-78 v 0 c 0,-35 2,-61 4,-77 v 0 c 3,-16 6,-29 12,-38 v 0 c 8,-13 18,-22 31,-29 v 0 c 13,-6 28,-9 46,-9 v 0 c 30,0 53,9 69,26 v 0 c 15,18 22,45 22,81 v 2 h -63 v 0 c 0,-20 -2,-34 -6,-42 v 0 c -5,-8 -11,-12 -21,-12 v 0 c -11,0 -18,5 -22,15 v 0 c -4,10 -5,36 -5,78 v 5 0 c 0,46 1,73 5,84 v 0 c 4,10 11,15 22,15 v 0 c 10,0 17,-4 20,-11 v 0 c 4,-8 6,-21 6,-42 z m 132,15 h 60 v 8 0 c 0,16 1,28 5,34 v 0 c 4,7 10,10 18,10 v 0 c 7,0 13,-2 17,-7 v 0 c 4,-5 6,-12 6,-21 v 0 c 0,-14 -10,-28 -30,-41 v 0 c -3,-2 -5,-4 -7,-5 l -3,-2 v 0 c -26,-19 -42,-33 -49,-42 v 0 c -4,-7 -8,-15 -10,-24 v 0 c -3,-9 -4,-19 -4,-29 v 0 c 0,-26 7,-46 21,-60 v 0 c 14,-15 34,-22 59,-22 v 0 c 27,0 47,7 61,21 v 0 c 15,15 22,35 22,62 v 0 c 0,2 0,3 -1,5 v 0 c 0,2 0,4 0,5 h -58 v -4 0 c 0,-12 -2,-22 -6,-29 v 0 c -4,-6 -9,-10 -17,-10 v 0 c -6,0 -11,3 -14,7 v 0 c -4,5 -6,11 -6,19 v 0 c 0,12 11,25 32,39 v 0 c 4,3 7,5 9,6 v 0 c 1,1 4,3 7,5 v 0 c 23,15 37,28 44,39 v 0 c 4,6 7,14 9,23 v 0 c 2,8 3,17 3,27 v 0 c 0,30 -7,52 -22,68 v 0 c -14,16 -35,24 -62,24 v 0 c -28,0 -49,-8 -64,-23 v 0 c -14,-15 -21,-38 -21,-67 v 0 c 0,-2 0,-4 0,-6 v 0 c 0,-3 1,-6 1,-10 z" />
       <path
   style="fill:#fefefe;stroke:none"
   id="path51"
   d="m 6784,15458 h 1675 v -805 H 6784 Z" />
       <path
   style="fill:#dd2a1b;stroke:none"
   id="path53"
   d="m 6889,14202 h 1465 v 0 c 58,0 105,47 105,105 v 1151 h -132 v 0 c 3,-12 4,-25 4,-39 v 0 c 0,-101 -75,-158 -202,-161 v 0 c -110,-2 -220,59 -246,75 v 0 c 9,27 14,56 14,85 v 0 c 0,14 -1,27 -3,40 h -545 v 0 c -2,-13 -3,-26 -3,-40 v 0 c 0,-30 5,-59 14,-86 v 0 c -25,-16 -136,-78 -247,-76 v 0 c -126,3 -202,60 -201,161 v 0 c 0,15 1,28 4,41 h -132 v -1151 0 c 0,-58 47,-105 105,-105 z m 487,1091 v 0 c -30,-7 -150,-41 -227,-121 v 0 c -88,-91 -100,-185 -29,-256 v 0 c 71,-72 165,-59 257,29 v 0 c 79,77 114,198 121,227 v 0 c -53,27 -95,69 -122,121 z m 160,-137 v 0 c -15,-26 -77,-135 -75,-246 v 0 c 3,-126 60,-202 161,-202 v 0 c 101,0 159,76 161,202 v 0 c 2,111 -60,221 -75,247 v 0 c -27,-9 -56,-14 -87,-14 v 0 c -29,0 -58,5 -85,13 z m 210,17 v 0 c 8,-30 42,-151 121,-227 v 0 c 92,-88 186,-101 257,-29 v 0 c 71,71 59,165 -29,256 v 0 c -77,80 -198,114 -228,122 v 0 c -26,-53 -69,-95 -121,-122 z" />
       <path
   style="fill:#141515;stroke:none"
   id="path55"
   d="m 13436,15048 246,-846 h 228 l 246,846 h -223 l -26,-112 h -223 l -27,112 z m 289,-289 h 141 l -70,-293 z m -626,289 v -313 l -257,-533 h 249 l 120,288 122,-288 h 242 l -251,533 v 313 z m -839,0 246,-846 h 227 l 247,846 h -223 l -26,-112 h -223 l -27,112 z m 289,-289 h 141 l -70,-293 z m -972,289 v -846 h 223 v 280 l 202,-280 h 261 l -250,312 282,534 h -268 l -171,-339 -56,70 v 269 z m -757,0 v -846 h 213 l 197,394 v 0 c 6,11 12,26 19,47 v 0 c 7,20 14,44 22,73 v 0 c -2,-15 -4,-31 -5,-49 v 0 c -1,-18 -1,-40 -1,-66 v -399 h 214 v 846 h -214 l -196,-390 v 0 c -6,-12 -13,-28 -20,-49 v 0 c -7,-21 -14,-45 -22,-73 v 0 c 3,15 4,31 5,47 v 0 c 1,17 1,39 1,69 v 396 z m -330,0 v -846 h 229 v 846 z m -503,0 v -623 h -202 v -223 h 624 v 223 h -197 v 623 z m -620,0 v -846 h 225 v 622 h 306 v 224 z m -784,0 246,-846 h 228 l 246,846 h -223 l -26,-112 h -223 l -27,112 z m 289,-289 h 141 l -70,-293 z" />
      </g>
     </g>
    </g>
   </g>
  </g>
 </g>
</svg>