<?xml version="1.0" encoding="UTF-8" standalone="no"?>
<svg
   xmlns:ooo="http://xml.openoffice.org/svg/export"
   xmlns:dc="http://purl.org/dc/elements/1.1/"
   xmlns:cc="http://creativecommons.org/ns#"
   xmlns:rdf="http://www.w3.org/1999/02/22-rdf-syntax-ns#"
   xmlns:svg="http://www.w3.org/2000/svg"
   xmlns="http://www.w3.org/2000/svg"
   style="fill-rule:evenodd;stroke-width:28.22200012;stroke-linejoin:round"
   id="svg67"
   xml:space="preserve"
   preserveAspectRatio="xMidYMid"
   viewBox="0 0 7400 1257"
   height="12.57mm"
   width="74mm"
   version="1.2"><metadata
   id="metadata71"><rdf:RDF><cc:Work
       rdf:about=""><dc:format>image/svg+xml</dc:format><dc:type
         rdf:resource="http://purl.org/dc/dcmitype/StillImage" /><dc:title></dc:title></cc:Work></rdf:RDF></metadata>
 <defs
   id="defs5"
   class="ClipPathGroup">
  <clipPath
   clipPathUnits="userSpaceOnUse"
   id="presentation_clip_path">
   <rect
   id="rect2"
   height="29700"
   width="21000"
   y="0"
   x="0" />
  </clipPath>
 </defs>
 <defs
   id="defs9"
   class="TextShapeIndex">
  <g
   id="g7"
   ooo:id-list="id3"
   ooo:slide="id1" />
 </defs>
 <defs
   id="defs38"
   class="EmbeddedBulletChars">
  <g
   transform="matrix(4.8828125e-4,0,0,-4.8828125e-4,0,0)"
   id="bullet-char-template(57356)">
   <path
   id="path11"
   d="M 580,1141 1163,571 580,0 -4,571 Z" />
  </g>
  <g
   transform="matrix(4.8828125e-4,0,0,-4.8828125e-4,0,0)"
   id="bullet-char-template(57354)">
   <path
   id="path14"
   d="M 8,1128 H 1137 V 0 H 8 Z" />
  </g>
  <g
   transform="matrix(4.8828125e-4,0,0,-4.8828125e-4,0,0)"
   id="bullet-char-template(10146)">
   <path
   id="path17"
   d="M 174,0 602,739 174,1481 1456,739 Z M 1358,739 309,1346 659,739 Z" />
  </g>
  <g
   transform="matrix(4.8828125e-4,0,0,-4.8828125e-4,0,0)"
   id="bullet-char-template(10132)">
   <path
   id="path20"
   d="M 2015,739 1276,0 H 717 l 543,543 H 174 v 393 h 1086 l -543,545 h 557 z" />
  </g>
  <g
   transform="matrix(4.8828125e-4,0,0,-4.8828125e-4,0,0)"
   id="bullet-char-template(10007)">
   <path
   id="path23"
   d="m 0,-2 c -7,16 -16,29 -25,39 l 381,530 c -94,256 -141,385 -141,387 0,25 13,38 40,38 9,0 21,-2 34,-5 21,4 42,12 65,25 l 27,-13 111,-251 280,301 64,-25 24,25 c 21,-10 41,-24 62,-43 C 886,937 835,863 770,784 769,783 710,716 594,584 L 774,223 c 0,-27 -21,-55 -63,-84 l 16,-20 C 717,90 699,76 672,76 641,76 570,178 457,381 L 164,-76 c -22,-34 -53,-51 -92,-51 -42,0 -63,17 -64,51 -7,9 -10,24 -10,44 0,9 1,19 2,30 z" />
  </g>
  <g
   transform="matrix(4.8828125e-4,0,0,-4.8828125e-4,0,0)"
   id="bullet-char-template(10004)">
   <path
   id="path26"
   d="M 285,-33 C 182,-33 111,30 74,156 52,228 41,333 41,471 c 0,78 14,145 41,201 34,71 87,106 158,106 53,0 88,-31 106,-94 l 23,-176 c 8,-64 28,-97 59,-98 l 735,706 c 11,11 33,17 66,17 42,0 63,-15 63,-46 V 965 c 0,-36 -10,-64 -30,-84 L 442,47 C 390,-6 338,-33 285,-33 Z" />
  </g>
  <g
   transform="matrix(4.8828125e-4,0,0,-4.8828125e-4,0,0)"
   id="bullet-char-template(9679)">
   <path
   id="path29"
   d="M 813,0 C 632,0 489,54 383,161 276,268 223,411 223,592 c 0,181 53,324 160,431 106,107 249,161 430,161 179,0 323,-54 432,-161 108,-107 162,-251 162,-431 0,-180 -54,-324 -162,-431 C 1136,54 992,0 813,0 Z" />
  </g>
  <g
   transform="matrix(4.8828125e-4,0,0,-4.8828125e-4,0,0)"
   id="bullet-char-template(8226)">
   <path
   id="path32"
   d="m 346,457 c -73,0 -137,26 -191,78 -54,51 -81,114 -81,188 0,73 27,136 81,188 54,52 118,78 191,78 73,0 134,-26 185,-79 51,-51 77,-114 77,-187 0,-75 -25,-137 -76,-188 -50,-52 -112,-78 -186,-78 z" />
  </g>
  <g
   transform="matrix(4.8828125e-4,0,0,-4.8828125e-4,0,0)"
   id="bullet-char-template(8211)">
   <path
   id="path35"
   d="M -4,459 H 1135 V 606 H -4 Z" />
  </g>
 </defs>
 <defs
   id="defs40"
   class="TextEmbeddedBitmaps" />
 <g
   transform="translate(-6785,-14202)"
   id="g45">
  <g
   class="Master_Slide"
   id="id2">
   <g
   class="Background"
   id="bg-id2" />
   <g
   class="BackgroundObjects"
   id="bo-id2" />
  </g>
 </g>
 <g
   transform="translate(-6785,-14202)"
   id="g65"
   class="SlideGroup">
  <g
   id="g63">
   <g
   clip-path="url(#presentation_clip_path)"
   class="Slide"
   id="id1">
    <g
   id="g60"
   class="Page">
     <g
   id="g58"
   class="Graphic">
      <g
   id="id3">
       <rect
   style="fill:none;stroke:none"
   id="rect47"
   height="1257"
   width="7400"
   y="14202"
   x="6785"
   class="BoundingBox" />
       <path
   style="fill:#141515;stroke:none"
   id="path49"
   d="m 8585,15451 v -293 h 160 v 57 h -92 v 54 h 85 v 58 h -85 v 64 h 92 v 60 z m 381,0 h -151 v -293 h 68 v 234 h 83 z m 57,0 v -293 h 160 v 57 h -91 v 54 h 84 v 58 h -84 v 64 h 91 v 60 z m 230,0 v -293 h 69 v 121 l 51,-121 h 70 l -64,128 65,165 h -72 l -36,-106 -14,28 v 78 z m 281,0 v -236 h -55 v -57 h 182 v 57 h -58 v 236 z m 250,-171 v 0 c 1,0 3,0 5,0 v 0 c 1,0 3,0 4,0 v 0 c 14,0 24,-3 30,-8 v 0 c 6,-6 9,-16 9,-29 v 0 c 0,-13 -3,-22 -9,-27 v 0 c -6,-5 -16,-8 -30,-8 v 0 c -1,0 -3,0 -4,0 v 0 c -2,0 -4,0 -5,0 z m -68,171 v -293 h 77 v 0 c 26,0 44,1 55,3 v 0 c 12,3 21,7 28,12 v 0 c 9,7 15,16 19,26 v 0 c 4,10 6,22 6,35 v 0 c 0,17 -3,31 -9,43 v 0 c -5,11 -15,21 -27,28 v 0 c 21,9 32,32 33,67 v 1 0 c 1,4 1,9 1,16 v 0 c 0,33 6,54 16,62 h -80 v 0 c -2,-6 -3,-12 -4,-19 v 0 c -1,-7 -1,-14 -1,-22 v 0 c 0,-4 0,-10 0,-17 v 0 c 0,-6 1,-11 1,-13 v 0 c 0,-18 -3,-30 -7,-36 v 0 c -5,-7 -14,-10 -26,-10 h -14 v 117 z m 377,-120 v -53 0 c 0,-33 -2,-53 -6,-60 v 0 c -4,-8 -12,-12 -23,-12 v 0 c -10,0 -17,4 -21,12 v 0 c -5,8 -7,28 -7,60 v 53 0 c 0,32 2,51 7,59 v 0 c 4,9 11,13 22,13 v 0 c 10,0 18,-4 22,-12 v 0 c 4,-8 6,-28 6,-60 z m -126,-27 v 0 c 0,-35 1,-61 3,-77 v 0 c 3,-16 7,-29 13,-38 v 0 c 8,-13 19,-23 33,-29 v 0 c 13,-6 30,-9 49,-9 v 0 c 19,0 35,3 49,9 v 0 c 13,6 24,16 32,29 v 0 c 6,9 11,22 13,38 v 0 c 3,16 4,42 4,77 v 0 c 0,35 -1,61 -4,77 v 0 c -2,17 -7,29 -13,39 v 0 c -8,13 -19,22 -32,29 v 0 c -14,6 -30,9 -49,9 v 0 c -19,0 -36,-3 -49,-9 v 0 c -14,-7 -25,-16 -33,-29 v 0 c -6,-9 -10,-22 -13,-38 v 0 c -2,-17 -3,-42 -3,-78 z m 266,147 v -293 h 71 l 57,181 v 0 c -2,-31 -4,-57 -5,-79 v 0 c -1,-22 -2,-41 -2,-56 v -46 h 61 v 293 h -71 l -58,-186 v 0 c 3,24 5,47 6,70 v 0 c 2,23 2,45 2,66 v 50 z m 258,0 v -293 h 69 v 293 z m 10,-319 v -52 h 48 v 52 z m 134,319 v -293 h 68 v 121 l 52,-121 h 70 l -64,128 65,165 h -72 l -36,-106 -15,28 v 78 z m 567,-114 h 68 v 0 c 0,2 0,4 0,6 v 0 c 0,2 0,5 0,9 v 0 c 0,36 -8,63 -24,80 v 0 c -15,17 -39,26 -72,26 v 0 c -19,0 -35,-3 -49,-9 v 0 c -13,-7 -24,-16 -33,-29 v 0 c -5,-9 -10,-22 -12,-38 v 0 c -3,-17 -4,-42 -4,-78 v 0 c 0,-35 1,-61 4,-77 v 0 c 2,-16 7,-29 12,-38 v 0 c 9,-13 20,-22 33,-29 v 0 c 13,-6 30,-9 48,-9 v 0 c 32,0 56,9 72,26 v 0 c 16,18 25,45 25,81 v 2 h -67 v 0 c 0,-20 -3,-34 -7,-42 v 0 c -4,-8 -12,-12 -22,-12 v 0 c -11,0 -18,5 -22,15 v 0 c -4,10 -6,36 -6,78 v 5 0 c 0,46 2,73 6,84 v 0 c 4,10 11,15 22,15 v 0 c 11,0 18,-4 22,-11 v 0 c 4,-8 6,-21 6,-42 z m 140,114 v -293 h 69 v 293 z m 11,-319 v -52 h 47 v 52 z m 133,319 v -293 h 68 v 111 h 55 v -111 h 67 v 293 h -67 v -122 h -55 v 122 z m 329,-109 h 40 l -20,-128 z m -85,109 64,-293 h 82 l 63,293 h -68 l -9,-56 h -54 l -8,56 z m 252,0 v -55 l 90,-182 h -82 v -56 h 158 v 51 l -90,182 h 94 v 60 z m 443,0 v -293 h 69 v 121 l 51,-121 h 70 l -63,128 65,165 h -72 l -36,-106 -15,28 v 78 z m 238,-293 h 70 v 183 0 c 0,28 2,45 5,52 v 0 c 4,7 10,10 19,10 v 0 c 9,0 15,-3 18,-10 v 0 c 4,-7 5,-24 5,-52 v -183 h 68 v 187 0 c 0,21 0,37 -2,47 v 0 c -2,11 -5,20 -9,28 v 0 c -7,13 -17,23 -31,29 v 0 c -13,6 -30,9 -51,9 v 0 c -20,0 -36,-3 -48,-9 v 0 c -12,-5 -22,-15 -29,-27 v 0 c -6,-9 -9,-21 -11,-35 v 0 c -2,-14 -4,-38 -4,-71 z m 296,293 v -236 h -54 v -57 h 181 v 57 h -58 v 236 z m 182,-293 h 70 v 183 0 c 0,28 1,45 5,52 v 0 c 3,7 10,10 19,10 v 0 c 9,0 15,-3 18,-10 v 0 c 4,-7 5,-24 5,-52 v -183 h 68 v 187 0 c 0,21 -1,37 -2,47 v 0 c -2,11 -5,20 -9,28 v 0 c -7,13 -17,23 -31,29 v 0 c -13,6 -30,9 -51,9 v 0 c -20,0 -36,-3 -48,-9 v 0 c -12,-5 -22,-15 -29,-27 v 0 c -6,-9 -9,-21 -11,-35 v 0 c -3,-14 -4,-38 -4,-71 z m 412,293 h -151 v -293 h 68 v 234 h 83 z m 128,-109 h 40 l -20,-128 z m -84,109 63,-293 h 82 l 63,293 h -68 l -9,-56 h -54 l -8,56 z m 330,-171 v 0 c 2,0 3,0 5,0 v 0 c 2,0 3,0 4,0 v 0 c 14,0 24,-3 30,-8 v 0 c 6,-6 9,-16 9,-29 v 0 c 0,-13 -3,-22 -9,-27 v 0 c -6,-5 -16,-8 -30,-8 v 0 c -1,0 -2,0 -4,0 v 0 c -2,0 -3,0 -5,0 z m -67,171 v -293 h 77 v 0 c 25,0 43,1 55,3 v 0 c 11,3 21,7 28,12 v 0 c 8,7 14,16 18,26 v 0 c 5,10 7,22 7,35 v 0 c 0,17 -3,31 -9,43 v 0 c -6,11 -15,21 -28,28 v 0 c 21,9 33,32 34,67 v 1 0 c 0,4 0,9 0,16 v 0 c 1,33 6,54 17,62 h -81 v 0 c -1,-6 -3,-12 -4,-19 v 0 c 0,-7 -1,-14 -1,-22 v 0 c 0,-4 0,-10 1,-17 v 0 c 0,-6 0,-11 0,-13 v 0 c 0,-18 -2,-30 -7,-36 v 0 c -5,-7 -13,-10 -25,-10 h -15 v 117 z m 256,0 v -293 h 68 v 293 z" />
       <path
   style="fill:#fefefe;stroke:none"
   id="path51"
   d="m 6785,15458 h 1675 v -805 H 6785 Z" />
       <path
   style="fill:#dd2a1b;stroke:none"
   id="path53"
   d="m 6890,14202 h 1465 v 0 c 58,0 105,47 105,105 v 1151 h -132 v 0 c 3,-12 4,-25 4,-39 v 0 c 0,-101 -75,-158 -202,-161 v 0 c -110,-2 -220,59 -246,75 v 0 c 9,27 14,56 14,85 v 0 c 0,14 -1,27 -3,40 h -545 v 0 c -2,-13 -3,-26 -3,-40 v 0 c 0,-30 5,-59 14,-86 v 0 c -25,-16 -136,-78 -247,-76 v 0 c -126,3 -202,60 -201,161 v 0 c 0,15 1,28 4,41 h -132 v -1151 0 c 0,-58 47,-105 105,-105 z m 487,1091 v 0 c -30,-7 -150,-41 -227,-121 v 0 c -88,-91 -100,-185 -29,-256 v 0 c 71,-72 165,-59 257,29 v 0 c 79,77 114,198 121,227 v 0 c -53,27 -95,69 -122,121 z m 160,-137 v 0 c -15,-26 -77,-135 -75,-246 v 0 c 3,-126 60,-202 161,-202 v 0 c 101,0 159,76 161,202 v 0 c 2,111 -60,221 -75,247 v 0 c -27,-9 -56,-14 -87,-14 v 0 c -29,0 -58,5 -85,13 z m 210,17 v 0 c 8,-30 42,-151 121,-227 v 0 c 92,-88 186,-101 257,-29 v 0 c 71,71 59,165 -29,256 v 0 c -77,80 -198,114 -228,122 v 0 c -26,-53 -69,-95 -121,-122 z" />
       <path
   style="fill:#141515;stroke:none"
   id="path55"
   d="m 13437,15048 246,-846 h 228 l 246,846 h -223 l -26,-112 h -223 l -27,112 z m 289,-289 h 141 l -70,-293 z m -626,289 v -313 l -257,-533 h 249 l 120,288 122,-288 h 242 l -251,533 v 313 z m -839,0 246,-846 h 227 l 247,846 h -223 l -26,-112 h -223 l -27,112 z m 289,-289 h 141 l -70,-293 z m -972,289 v -846 h 223 v 280 l 202,-280 h 261 l -250,312 282,534 h -268 l -171,-339 -56,70 v 269 z m -757,0 v -846 h 213 l 197,394 v 0 c 6,11 12,26 19,47 v 0 c 7,20 14,44 22,73 v 0 c -2,-15 -4,-31 -5,-49 v 0 c -1,-18 -1,-40 -1,-66 v -399 h 214 v 846 h -214 l -196,-390 v 0 c -6,-12 -13,-28 -20,-49 v 0 c -7,-21 -14,-45 -22,-73 v 0 c 3,15 4,31 5,47 v 0 c 1,17 1,39 1,69 v 396 z m -330,0 v -846 h 229 v 846 z m -503,0 v -623 h -202 v -223 h 624 v 223 h -197 v 623 z m -620,0 v -846 h 225 v 622 h 306 v 224 z m -784,0 246,-846 h 228 l 246,846 h -223 l -26,-112 h -223 l -27,112 z m 289,-289 h 141 l -70,-293 z" />
      </g>
     </g>
    </g>
   </g>
  </g>
 </g>
</svg>