<svg xmlns="http://www.w3.org/2000/svg" width="453.543" height="155.717" fill-rule="evenodd" image-rendering="optimizeQuality" shape-rendering="geometricPrecision" viewBox="0 0 120 41.2" xmlns:v="https://vecta.io/nano"><path d="M29 20.2v-4.77h2.59v.926H30.1v.876h1.37v.956H30.1v1.04h1.49v.969H29zm6.19 0h-2.46v-4.77h1.12v3.81h1.34v.963zm.94 0v-4.77h2.59v.926h-1.49v.876h1.37v.956h-1.37v1.04h1.49v.969h-2.59zm3.73 0v-4.77h1.12v1.98l.833-1.98h1.14l-1.03 2.09 1.06 2.68h-1.17l-.586-1.72-.241.456v1.27h-1.12zm4.57 0v-3.84h-.892v-.926h2.95v.926h-.939v3.84h-1.12zm4.06-2.78l.073.003.067.003c.232 0 .395-.047.492-.14s.144-.25.144-.47c0-.205-.048-.35-.144-.435s-.26-.129-.492-.129l-.067.003-.073.003v1.16zm-1.1 2.78v-4.77h1.25c.41 0 .709.019.894.057a1.04 1.04 0 0 1 .452.197c.136.112.238.249.305.412s.1.357.1.582c0 .274-.047.504-.144.69a1.15 1.15 0 0 1-.447.459c.344.152.525.515.544 1.09v.016l.006.26c.008.537.097.873.266 1.01h-1.3c-.03-.099-.051-.203-.065-.311a3.01 3.01 0 0 1-.02-.349l.006-.277.006-.212c0-.292-.038-.49-.114-.598s-.215-.161-.412-.161h-.229v1.91h-1.1zm6.12-1.95v-.86c0-.528-.034-.855-.1-.98s-.188-.187-.364-.187-.291.064-.356.192-.099.452-.099.974v.86c0 .516.033.839.099.97s.186.197.362.197.294-.064.359-.192.099-.452.099-.974zm-2.06-.43c0-.574.021-.992.062-1.26s.109-.471.204-.619c.136-.21.315-.367.536-.469s.486-.153.796-.153a1.86 1.86 0 0 1 .794.153 1.27 1.27 0 0 1 .531.469c.099.15.169.358.21.622s.062.682.062 1.25-.021.987-.062 1.25-.111.474-.21.624c-.134.208-.311.365-.531.468s-.485.154-.794.154-.575-.052-.796-.154a1.28 1.28 0 0 1-.536-.468c-.095-.148-.163-.355-.204-.619s-.062-.683-.062-1.26zm4.32 2.38v-4.77h1.16l.927 2.94-.082-1.28-.026-.91v-.749h.994v4.77h-1.16l-.933-3.03.094 1.15.033 1.08v.805h-1zm4.2 0v-4.77h1.12v4.77h-1.12zm.171-5.19v-.842h.774v.842h-.774zm2.17 5.19v-4.77h1.12v1.98l.833-1.98h1.14l-1.03 2.09 1.06 2.68h-1.17l-.586-1.72-.241.456v1.27h-1.12zm9.22-1.85h1.1l.005.093.001.149c0 .582-.128 1.01-.383 1.3s-.646.423-1.17.423c-.31 0-.575-.052-.796-.154a1.28 1.28 0 0 1-.536-.468c-.095-.148-.163-.355-.204-.619s-.062-.683-.062-1.26.021-.992.062-1.26.109-.471.204-.619a1.27 1.27 0 0 1 .53-.466 1.81 1.81 0 0 1 .783-.156c.522 0 .913.145 1.17.435s.392.724.392 1.3v.047l-1.08-.003c-.004-.324-.041-.552-.111-.683s-.188-.197-.354-.197c-.179 0-.302.08-.368.24s-.099.582-.099 1.27v.09c0 .737.033 1.19.099 1.35.066.166.188.249.368.249.168 0 .284-.06.352-.181s.1-.346.1-.674v-.21zm2.28 1.85v-4.77h1.12v4.77h-1.12zm.171-5.19v-.842h.774v.842h-.774zm2.17 5.19v-4.77h1.12v1.8h.895v-1.8h1.09v4.77h-1.09v-1.98h-.895v1.98h-1.12zm5.36-1.77h.64l-.319-2.08-.321 2.08zm-1.38 1.77l1.04-4.77h1.33l1.03 4.77h-1.12l-.14-.914h-.876l-.138.914h-1.12zm4.1 0v-.889l1.46-2.97h-1.34v-.913h2.58v.83l-1.46 2.96h1.53v.976h-2.76zm7.2 0v-4.77h1.12v1.98l.833-1.98h1.14l-1.03 2.09 1.06 2.68h-1.17l-.586-1.72-.241.456v1.27h-1.12zm3.87-4.77h1.13v2.99c0 .452.029.731.086.839s.158.161.302.161.247-.056.303-.167.084-.389.084-.833v-2.99h1.11v3.04a4.94 4.94 0 0 1-.044.773c-.031.17-.079.318-.148.444-.113.215-.277.372-.493.472s-.494.15-.839.15c-.317 0-.576-.047-.777-.14s-.359-.244-.477-.451a1.61 1.61 0 0 1-.179-.563c-.034-.229-.051-.616-.051-1.16v-2.57zm4.81 4.77v-3.84h-.892v-.926h2.95v.926h-.939v3.84h-1.12zm2.96-4.77h1.13v2.99c0 .452.029.731.086.839s.158.161.302.161.247-.056.303-.167.084-.389.084-.833v-2.99h1.11v3.04a4.94 4.94 0 0 1-.044.773c-.031.17-.079.318-.148.444-.113.215-.277.372-.493.472s-.494.15-.839.15c-.317 0-.576-.047-.777-.14s-.359-.244-.477-.451a1.61 1.61 0 0 1-.179-.563c-.034-.229-.051-.616-.051-1.16v-2.57zm6.68 4.77h-2.46v-4.77h1.12v3.81h1.34v.963zm2.09-1.77h.64l-.319-2.08-.321 2.08zm-1.38 1.77l1.04-4.77h1.33l1.03 4.77h-1.12l-.14-.914h-.876l-.138.914h-1.12zm5.38-2.78l.073.003.067.003c.232 0 .395-.047.492-.14s.144-.25.144-.47c0-.205-.048-.35-.144-.435s-.26-.129-.492-.129l-.067.003-.073.003v1.16zm-1.1 2.78v-4.77h1.25c.41 0 .709.019.894.057a1.04 1.04 0 0 1 .452.197c.136.112.238.249.305.412s.1.357.1.582c0 .274-.047.504-.144.69a1.15 1.15 0 0 1-.447.459c.344.152.525.515.544 1.09v.016l.006.26c.008.537.097.873.266 1.01h-1.3c-.03-.099-.051-.203-.064-.311a3.01 3.01 0 0 1-.02-.349l.006-.277.006-.212c0-.292-.038-.49-.114-.598s-.215-.161-.412-.161h-.229v1.91h-1.1zm4.16 0v-4.77h1.12v4.77h-1.12z" fill="#2b2a29" fill-rule="nonzero"/><path d="M0 7.17h26.7V20H0z" fill="#fefefe"/><path d="M1.67 0h23.3c.917 0 1.67.748 1.67 1.67v18.3h-2.1a2.77 2.77 0 0 0 .064-.619c.006-1.61-1.19-2.52-3.21-2.56-1.76-.032-3.5.941-3.92 1.19a4.35 4.35 0 0 1 .214 1.35 4.38 4.38 0 0 1-.046.633h-8.67a4.38 4.38 0 0 1-.045-.633c0-.481.078-.943.221-1.38-.406-.244-2.16-1.23-3.93-1.2-2.02.038-3.22.953-3.21 2.56-.001.23.023.446.07.647h-2.1v-18.3c0-.917.748-1.67 1.67-1.67zm7.76 17.4c-.48-.121-2.4-.666-3.61-1.93-1.4-1.45-1.6-2.95-.459-4.08 1.13-1.14 2.63-.939 4.08.46 1.27 1.22 1.81 3.16 1.93 3.62a4.44 4.44 0 0 0-1.94 1.93zm2.55-2.18c-.251-.42-1.22-2.16-1.19-3.92.038-2.02.953-3.22 2.56-3.21 1.61-.006 2.52 1.19 2.56 3.21.033 1.77-.953 3.52-1.2 3.93a4.39 4.39 0 0 0-1.38-.222c-.472 0-.927.075-1.35.214zm3.34.262c.121-.479.666-2.4 1.93-3.61 1.45-1.4 2.95-1.6 4.08-.459 1.14 1.13.939 2.63-.459 4.08-1.22 1.27-3.16 1.81-3.62 1.93-.419-.833-1.1-1.51-1.93-1.94z" fill="#e31e24"/><g fill="#2b2a29" fill-rule="nonzero"><path d="M108 14l4-13.8h3.7l4 13.8h-3.62l-.424-1.82h-3.62l-.44 1.82h-3.59zm4.7-4.71h2.29l-1.13-4.76-1.16 4.76zM102.5 14V8.91L98.31.24h4.05l1.96 4.69L106.3.24h3.94l-4.09 8.67V14h-3.65zm-13.6 0l4-13.8h3.7l4 13.8h-3.62l-.424-1.82h-3.62l-.44 1.82h-3.59zm4.7-4.71h2.29l-1.13-4.76-1.16 4.76zM77.8 14V.2h3.62v4.56L84.7.2h4.24l-4.06 5.07 4.59 8.68h-4.36l-2.78-5.51-.904 1.13v4.38h-3.62zm-12.3 0V.2h3.47l3.19 6.4c.098.178.203.434.314.765l.351 1.2-.069-.804-.024-1.06V.211h3.48v13.8h-3.48l-3.19-6.35c-.098-.188-.206-.453-.322-.794l-.351-1.18c.037.242.061.497.076.762l.024 1.12v6.44H65.5zm-5.37 0V.2h3.72V14h-3.72zm-8.17 0V3.9h-3.28V.27h10.1V3.9h-3.21V14h-3.65zm-10.1 0V.2h3.65v10.1h4.97v3.65h-8.62zm-12.7 0l4-13.8h3.7l4 13.8h-3.62l-.424-1.82h-3.62l-.44 1.82h-3.59zm4.7-4.71h2.29l-1.13-4.76-1.16 4.76zM.919 24h.413l-.206-1.46L.919 24zM.03 25.24l.671-3.34h.855l.663 3.34H1.5l-.09-.64H.845l-.089.64H.031zm4.34 0H2.79V21.9h.719v2.67h.864v.674zm.649 0v-2.69h-.576v-.649h1.9v.649h-.606v2.69h-.722zm1.91 0V21.9h.719v3.34h-.719zm1.51 0V21.9h.749l.598 2.06-.053-.898-.017-.637V21.9h.641v3.34h-.751l-.602-2.12.061.803.021.756v.564h-.647zm2.71 0V21.9h.719v1.39l.537-1.39h.735l-.668 1.46.683 1.88H12.4l-.378-1.21-.155.319v.889h-.719zm3.24-1.24h.413l-.206-1.46-.207 1.46zm-.889 1.24l.671-3.34h.855l.663 3.34h-.719l-.09-.64h-.565l-.089.64h-.725zm3.01 0v-1.42l-.707-1.92h.773l.297 1.06.3-1.06h.781l-.707 1.92v1.42h-.737zM18.95 24h.413l-.206-1.46L18.95 24zm-.889 1.24l.671-3.34h.855l.663 3.34h-.719l-.09-.64h-.565l-.089.64h-.725zm3.86 0V21.9h1.67v.649h-.959v.614h.885v.67h-.885v.729h.959v.679h-1.67zm3.99 0h-1.58V21.9h.719v2.67h.865v.674zm.607 0V21.9h1.67v.649h-.959v.614h.885v.67h-.885v.729h.959v.679h-1.67zm2.41 0V21.9h.719v1.39l.537-1.39h.735l-.668 1.46.683 1.88h-.755l-.378-1.21-.155.319v.889h-.719zm2.95 0v-2.69h-.576v-.649h1.9v.649h-.606v2.69h-.722zm2.62-1.95l.047.002.043.002c.149 0 .255-.032.317-.098s.093-.175.093-.33c0-.144-.031-.245-.093-.305s-.168-.09-.317-.09l-.043.002-.047.002v.814zm-.711 1.95V21.9h.809c.265 0 .458.013.577.04s.218.073.292.138a.72.72 0 0 1 .197.289 1.16 1.16 0 0 1 .065.408c0 .192-.031.353-.093.484a.77.77 0 0 1-.288.321c.222.107.339.361.351.761v.011l.004.182c.005.376.063.612.172.707h-.841a1.5 1.5 0 0 1-.042-.218 2.09 2.09 0 0 1-.013-.244l.004-.194.004-.149c0-.204-.025-.344-.074-.419s-.138-.112-.266-.112h-.148v1.34h-.711zm3.95-1.37v-.603c0-.37-.022-.599-.065-.686s-.121-.131-.235-.131-.188.045-.23.135-.064.317-.064.683v.603c0 .361.021.588.064.68s.12.138.233.138.19-.045.232-.135.064-.317.064-.683zm-1.33-.301l.04-.88c.027-.185.07-.33.132-.434a.84.84 0 0 1 .346-.329c.142-.072.314-.107.513-.107a1.12 1.12 0 0 1 .512.107c.141.072.254.181.342.329.064.105.109.251.136.436a6.78 6.78 0 0 1 .04.878l-.04.877a1.16 1.16 0 0 1-.136.437.84.84 0 0 1-.342.328c-.142.072-.313.108-.512.108s-.371-.036-.513-.108a.85.85 0 0 1-.346-.328 1.21 1.21 0 0 1-.132-.434c-.027-.185-.04-.478-.04-.88zm2.79 1.67v-3.34h.749l.598 2.06-.053-.898-.017-.637v-.525h.641v3.34h-.751l-.602-2.12.061.803.021.756v.564h-.647zm2.71 0v-3.34h.719v3.34h-.719zm.11-3.63v-.59h.499v.59h-.499zm1.4 3.63v-3.34h.719v1.39l.537-1.39h.735l-.668 1.46.683 1.88h-.755l-.378-1.21-.156.319v.889h-.719zm4.85-1.29h.707l.003.065.001.104c0 .408-.083.71-.247.908s-.417.296-.756.296c-.2 0-.371-.036-.513-.108a.85.85 0 0 1-.346-.328 1.21 1.21 0 0 1-.132-.434 6.86 6.86 0 0 1-.04-.88l.04-.88c.027-.185.07-.33.132-.434a.84.84 0 0 1 .342-.326c.141-.073.31-.11.505-.11.337 0 .589.101.758.305s.253.507.253.912v.032l-.699-.002c-.003-.227-.026-.386-.072-.478s-.121-.138-.228-.138c-.115 0-.195.056-.237.168s-.064.408-.064.888v.063c0 .516.021.832.064.948s.121.175.237.175c.108 0 .183-.042.227-.127s.065-.242.065-.472v-.147zm1.47 1.29v-3.34h.719v3.34h-.719zm.11-3.63v-.59h.499v.59h-.499zm1.4 3.63v-3.34h.719v1.26h.578v-1.26h.703v3.34h-.703v-1.39h-.578v1.39h-.719zm3.46-1.24h.413l-.206-1.46-.207 1.46zm-.889 1.24l.671-3.34h.855l.664 3.34h-.719l-.09-.64h-.565l-.089.64h-.725zm2.64 0v-.623l.941-2.08h-.865v-.64h1.66v.581l-.945 2.08h.989v.683h-1.78zm3.55 0v-3.34h.719v1.39l.537-1.39h.735l-.668 1.46.683 1.88h-.755l-.378-1.21-.155.319v.889h-.719zm2.5-3.34h.727v2.09c0 .317.018.512.055.588s.102.112.195.112.16-.039.196-.117.054-.272.054-.584v-2.09h.713v2.13c0 .241-.01.421-.029.541s-.051.223-.095.311a.7.7 0 0 1-.318.331c-.138.07-.318.105-.541.105a1.1 1.1 0 0 1-.501-.099c-.129-.066-.232-.171-.308-.316-.055-.102-.093-.234-.115-.395s-.033-.432-.033-.814v-1.8zm3.1 3.34v-2.69h-.576V21.9h1.9v.649h-.606v2.69h-.722zm1.91-3.34h.727v2.09c0 .317.018.512.055.588s.102.112.195.112.16-.039.196-.117.054-.272.054-.584v-2.09h.713v2.13c0 .241-.009.421-.029.541s-.051.223-.095.311a.7.7 0 0 1-.318.331c-.138.07-.318.105-.541.105a1.1 1.1 0 0 1-.501-.099c-.129-.066-.232-.171-.308-.316-.055-.102-.093-.234-.115-.395s-.033-.432-.033-.814v-1.8zm4.31 3.34h-1.58v-3.34h.719v2.67h.865v.674zm1.35-1.24h.413l-.206-1.46-.207 1.46zm-.889 1.24l.671-3.34h.855l.664 3.34h-.719l-.09-.64h-.565l-.089.64h-.726zm3.47-1.95l.047.002.043.002c.149 0 .255-.032.317-.098s.093-.175.093-.33c0-.144-.031-.245-.093-.305s-.168-.09-.317-.09l-.043.002-.047.002v.814zm-.711 1.95v-3.34h.809c.265 0 .458.013.577.04s.218.073.292.138a.72.72 0 0 1 .197.289 1.16 1.16 0 0 1 .065.408c0 .192-.031.353-.093.484a.77.77 0 0 1-.288.321c.222.107.339.361.351.761v.011l.004.182c.005.376.063.612.172.707h-.841a1.44 1.44 0 0 1-.042-.218c-.008-.076-.013-.158-.013-.244l.004-.194.004-.149c0-.204-.025-.344-.074-.419s-.138-.112-.266-.112h-.148v1.34h-.711zm2.69 0v-3.34h.719v3.34h-.719zm2.51-1.13h.659v.098c0 .184.02.313.06.389s.107.113.201.113c.076 0 .136-.029.179-.086s.066-.135.066-.233c0-.162-.107-.317-.322-.466l-.08-.058-.034-.024c-.288-.211-.468-.37-.539-.477-.05-.081-.089-.172-.115-.273a1.33 1.33 0 0 1-.04-.332c0-.292.078-.521.234-.687s.37-.25.643-.25c.297 0 .524.081.68.245s.234.4.234.709l-.002.055-.002.054h-.645v-.041c0-.146-.021-.257-.063-.332s-.103-.113-.183-.113a.2.2 0 0 0-.164.079c-.041.052-.062.123-.062.21 0 .141.117.292.352.451l.097.07a1.3 1.3 0 0 1 .079.054c.252.174.412.32.483.438a.98.98 0 0 1 .101.261c.023.097.035.204.035.318 0 .334-.08.592-.239.772s-.389.271-.685.271c-.312 0-.546-.087-.702-.259s-.235-.43-.235-.772l.001-.068.007-.114zm3.2-.11h.413l-.206-1.46-.207 1.46zm-.889 1.24l.671-3.34h.855l.663 3.34h-.719l-.09-.64h-.565l-.089.64h-.725zm2.76 0v-3.34h.749l.598 2.06-.053-.898-.017-.637v-.525h.641v3.34h-.751l-.602-2.12.061.803.021.756v.564h-.647zm3.38-1.24h.413l-.206-1.46-.207 1.46zm-.889 1.24l.671-3.34h.855l.663 3.34h-.719l-.09-.64h-.565l-.089.64h-.725zm3.01 0v-1.42l-.707-1.92h.773l.297 1.06.3-1.06h.781l-.707 1.92v1.42h-.737zm1.96 0v-3.34h.719v3.34h-.719zm.11-3.63v-.59h.499v.59h-.499zm2.87 3.63v-2.69h-.576V21.9h1.9v.649h-.606v2.69h-.721zm1.91 0v-3.34h.719v3.34h-.719zm.11-3.63v-.59h.499v.59h-.499zm2.66 2.34h.707l.003.065.001.104c0 .408-.082.71-.247.908s-.417.296-.756.296c-.2 0-.371-.036-.513-.108a.85.85 0 0 1-.346-.328c-.061-.104-.105-.249-.132-.434s-.04-.478-.04-.88l.04-.88c.027-.185.07-.33.132-.434a.84.84 0 0 1 .342-.326c.141-.073.31-.11.505-.11.337 0 .589.101.758.305s.253.507.253.912v.032l-.699-.002c-.003-.227-.026-.386-.072-.478s-.121-.138-.228-.138c-.115 0-.195.056-.237.168s-.064.408-.064.888v.063c0 .516.021.832.064.948s.121.175.237.175c.108 0 .183-.042.227-.127s.065-.242.065-.472v-.147zm2.14.05h.413l-.206-1.46-.207 1.46zm-.889 1.24l.671-3.34h.855l.663 3.34h-.719l-.09-.64h-.565l-.089.64h-.725zm3.47-1.95l.047.002.043.002c.149 0 .255-.032.317-.098s.093-.175.093-.33c0-.144-.031-.245-.093-.305s-.168-.09-.317-.09a.61.61 0 0 0-.043.002l-.047.002v.814zm-.711 1.95v-3.34h.809c.265 0 .458.013.577.04s.218.073.292.138a.73.73 0 0 1 .197.289c.044.114.065.25.065.408 0 .192-.031.353-.093.484a.77.77 0 0 1-.288.321c.222.107.339.361.351.761v.011l.004.182c.005.376.063.612.172.707h-.841a1.5 1.5 0 0 1-.042-.218 2.09 2.09 0 0 1-.013-.244l.004-.194.004-.149c0-.204-.025-.344-.074-.419s-.138-.112-.266-.112h-.148v1.34h-.711zm2.69 0v-3.34h1.67v.649h-.959v.614h.885v.67h-.885v.729h.959v.679h-1.67zm2.78 0v-2.69h-.576V21.9h1.9v.649h-.606v2.69h-.722zm3.67-1.24h.413l-.206-1.46-.207 1.46zm-.889 1.24l.671-3.34h.855l.663 3.34h-.719l-.09-.64h-.565l-.089.64h-.725zm2.78 0v-.763h.709v.763h-.709zm1.35-1.13h.659v.098c0 .184.02.313.06.389s.107.113.201.113c.076 0 .136-.029.179-.086s.066-.135.066-.233c0-.162-.107-.317-.322-.466l-.08-.058-.034-.024c-.288-.211-.468-.37-.539-.477-.05-.081-.089-.172-.115-.273a1.33 1.33 0 0 1-.04-.332c0-.292.078-.521.234-.687s.37-.25.643-.25c.297 0 .524.081.68.245s.235.4.235.709l-.002.055-.002.054h-.645v-.041c0-.146-.021-.257-.063-.332s-.103-.113-.183-.113a.2.2 0 0 0-.164.079.33.33 0 0 0-.062.21c0 .141.117.292.352.451l.097.07a1.27 1.27 0 0 1 .079.054c.252.174.412.32.483.438a1 1 0 0 1 .101.261 1.37 1.37 0 0 1 .035.318c0 .334-.08.592-.239.772s-.389.271-.685.271c-.312 0-.545-.087-.702-.259s-.234-.43-.234-.772l.001-.068.008-.114zm.437 2.08v-.284l.267.053a1.28 1.28 0 0 0 .197.018c.057 0 .099-.012.125-.035s.039-.063.039-.116c0-.045-.018-.078-.055-.1a.35.35 0 0 0-.171-.033c-.006 0-.018.001-.035.002l-.039.002v-.454h.226v.178c.141 0 .25.036.329.107s.117.171.117.301c0 .14-.043.249-.129.327s-.206.117-.363.117c-.092 0-.181-.007-.269-.021s-.167-.036-.238-.063zm2.04-.946v-.763h.709v.763h-.709z"/><path d="M1.61 30.6h-.378v-2.41c-.091.087-.21.174-.358.261s-.282.152-.399.195v-.366c.212-.1.397-.22.556-.362s.271-.279.337-.413h.243v3.1zm2.18 0v-.738H2.45v-.348l1.41-2h.31v2h.416v.348H4.17v.738h-.379zm0-1.09v-1.39l-.965 1.39h.965zm3.15-1.24l-.376.029a.71.71 0 0 0-.143-.324c-.103-.108-.229-.162-.379-.162a.52.52 0 0 0-.317.101.87.87 0 0 0-.282.38c-.068.167-.104.404-.107.713.091-.139.202-.242.335-.31a.9.9 0 0 1 .414-.1c.253 0 .468.093.645.279s.266.426.266.72c0 .194-.042.373-.126.54a.91.91 0 0 1-.344.382.94.94 0 0 1-.496.132.97.97 0 0 1-.772-.348c-.2-.232-.299-.615-.299-1.15 0-.596.11-1.03.33-1.3.192-.236.45-.354.776-.354.242 0 .441.068.596.205s.248.324.279.564zM5.39 29.6a.88.88 0 0 0 .083.375.62.62 0 0 0 .232.272c.1.063.205.094.314.094.16 0 .297-.065.412-.194s.172-.304.172-.526c0-.213-.057-.381-.17-.504s-.256-.184-.429-.184a.58.58 0 0 0-.436.184c-.119.123-.179.284-.179.482zm2.03.286l.364-.034c.031.171.09.295.177.373s.198.116.335.116c.116 0 .218-.027.306-.08a.65.65 0 0 0 .215-.213c.057-.089.103-.21.141-.36a1.93 1.93 0 0 0 .057-.463l-.002-.075c-.076.12-.18.218-.31.293a.84.84 0 0 1-.426.113.86.86 0 0 1-.648-.278c-.177-.185-.265-.429-.265-.732 0-.313.092-.564.276-.755s.416-.286.694-.286c.2 0 .383.055.55.162a1.01 1.01 0 0 1 .378.462c.086.2.129.489.129.868 0 .394-.042.707-.128.941s-.213.411-.382.533-.367.183-.594.183c-.241 0-.438-.067-.591-.201s-.245-.322-.276-.564zm1.55-1.36c0-.217-.057-.39-.173-.517s-.255-.192-.418-.192c-.168 0-.314.069-.439.206s-.187.316-.187.534a.66.66 0 0 0 .178.479.58.58 0 0 0 .438.184c.176 0 .32-.061.432-.184s.169-.293.169-.51zm1 2.07v-.432h.432v.432H9.97zm4.54-1.08l.409.103c-.085.335-.24.59-.462.767s-.494.264-.816.264c-.332 0-.602-.067-.811-.202a1.27 1.27 0 0 1-.475-.588c-.108-.257-.163-.533-.163-.827 0-.321.061-.601.184-.84a1.26 1.26 0 0 1 .524-.545c.226-.124.475-.186.747-.186.309 0 .568.078.778.236a1.22 1.22 0 0 1 .439.663l-.401.095c-.072-.225-.175-.388-.312-.49s-.307-.154-.513-.154a1 1 0 0 0-.594.17c-.159.114-.271.266-.335.458s-.097.388-.097.592a1.89 1.89 0 0 0 .114.687c.077.195.195.342.357.439a1 1 0 0 0 .524.145c.228 0 .421-.066.58-.198s.266-.328.322-.587zm2.32.806a1.46 1.46 0 0 1-.405.253 1.18 1.18 0 0 1-.418.073c-.246 0-.434-.06-.566-.18s-.198-.274-.198-.46c0-.11.024-.21.075-.3s.115-.163.195-.218.172-.096.273-.124a2.67 2.67 0 0 1 .336-.057c.306-.037.531-.08.676-.131l.002-.098c0-.154-.036-.264-.108-.326-.096-.086-.24-.128-.431-.128-.178 0-.31.031-.395.093s-.147.173-.188.332l-.37-.051c.034-.158.089-.286.166-.383a.73.73 0 0 1 .335-.226c.146-.052.314-.079.507-.079s.345.023.464.067.207.101.264.17.095.154.118.258c.012.065.019.181.019.349v.505l.024.668c.016.093.048.183.096.268h-.396a.8.8 0 0 1-.075-.276zm-.032-.846c-.138.057-.344.104-.618.144-.156.022-.266.047-.33.075s-.115.069-.149.124-.053.114-.053.18c0 .101.039.185.115.253s.188.1.335.1.276-.032.389-.096a.59.59 0 0 0 .251-.262c.041-.085.061-.212.061-.378v-.139zm2.42 1.12v-.282c-.141.222-.35.332-.625.332-.178 0-.342-.049-.491-.147s-.265-.235-.348-.412-.123-.378-.123-.607c0-.223.037-.425.111-.607s.186-.321.335-.417.315-.146.499-.146c.134 0 .254.029.359.085s.191.131.257.222v-1.11h.376v3.08h-.351zm-1.2-1.12c0 .286.06.5.181.642s.263.213.427.213a.54.54 0 0 0 .422-.203c.116-.135.174-.342.174-.62 0-.306-.059-.53-.177-.673a.54.54 0 0 0-.436-.215c-.168 0-.309.069-.422.206s-.169.354-.169.65zm3.59 1.12v-.282c-.141.222-.35.332-.625.332-.178 0-.342-.049-.491-.147s-.265-.235-.348-.412-.123-.378-.123-.607c0-.223.037-.425.111-.607s.186-.321.335-.417.315-.146.499-.146c.134 0 .254.029.359.085s.191.131.257.222v-1.11h.376v3.08h-.351zm-1.2-1.12c0 .286.06.5.181.642s.263.213.427.213a.54.54 0 0 0 .422-.203c.116-.135.174-.342.174-.62 0-.306-.059-.53-.177-.673A.54.54 0 0 0 21 28.62c-.168 0-.309.069-.422.206s-.169.354-.169.65zm3.67.396l.391.048c-.062.229-.176.406-.342.533s-.381.189-.64.189c-.327 0-.586-.101-.777-.302s-.287-.483-.287-.847c0-.376.097-.668.29-.875a.98.98 0 0 1 .753-.312c.299 0 .543.102.732.305s.284.49.284.858l-.002.101h-1.67c.014.246.083.434.208.564s.28.196.467.196a.58.58 0 0 0 .356-.11c.098-.073.176-.189.233-.349zm-1.24-.612h1.25c-.017-.187-.065-.329-.143-.422a.58.58 0 0 0-.469-.219c-.174 0-.32.058-.439.174s-.184.272-.197.467zm3.35 1.33v-3.08h.419l1.62 2.42v-2.42h.391v3.08H28.2l-1.62-2.42v2.42h-.391zm2.93-1.12c0-.414.115-.72.345-.919a1.04 1.04 0 0 1 .702-.248c.307 0 .559.1.753.302s.292.479.292.834c0 .288-.043.514-.129.679s-.212.293-.376.384-.345.136-.54.136c-.312 0-.565-.1-.758-.301s-.289-.489-.289-.867zm.389 0c0 .286.062.5.187.643a.6.6 0 0 0 .471.214.6.6 0 0 0 .47-.215c.124-.143.187-.361.187-.654 0-.276-.062-.486-.188-.628a.6.6 0 0 0-.468-.213c-.189 0-.346.071-.471.212s-.187.356-.187.641zm2.25-.686v-.431h.432v.431h-.432zm0 1.8v-.432h.432v.432h-.432zm2.41 0h-.378v-2.41c-.091.087-.21.174-.358.261s-.282.152-.399.195v-.366c.212-.1.397-.22.556-.362s.271-.279.337-.413h.243v3.1zm.97-1.52c0-.365.037-.658.113-.88s.187-.394.335-.515.334-.181.558-.181c.166 0 .311.034.436.1a.83.83 0 0 1 .31.288c.081.126.145.279.191.459s.07.423.07.729c0 .362-.037.653-.111.876a1.1 1.1 0 0 1-.334.516c-.148.121-.335.182-.561.182-.297 0-.531-.106-.7-.32-.203-.256-.305-.675-.305-1.25zm.389 0c0 .506.06.843.178 1.01s.264.251.438.251.32-.085.439-.253.178-.505.178-1.01-.06-.845-.178-1.01-.266-.251-.442-.251-.313.074-.417.221c-.13.187-.195.535-.195 1.04zm3.43 1.52v-3.08h.408v3.08h-.408zm-.029-3.27v-.471h.469v.471h-.469zm1.73 3.27l-.85-2.23h.4l.48 1.34.143.45.141-.425.497-1.36h.389l-.846 2.23h-.353zm3.06-.72l.391.048c-.062.229-.176.406-.342.533s-.381.189-.64.189c-.327 0-.586-.101-.777-.302s-.287-.483-.287-.847c0-.376.097-.668.29-.875a.98.98 0 0 1 .753-.312c.299 0 .543.102.732.305s.284.49.284.858l-.002.101h-1.67c.014.246.083.434.208.564s.28.196.467.196a.58.58 0 0 0 .356-.11c.098-.073.176-.189.233-.349zm-1.24-.612h1.25c-.017-.187-.065-.329-.143-.422a.58.58 0 0 0-.469-.219c-.174 0-.32.058-.439.174s-.184.272-.197.467zm3.56 1.33V30.3c-.141.222-.35.332-.625.332-.178 0-.342-.049-.491-.147s-.265-.235-.348-.412-.123-.378-.123-.607c0-.223.037-.425.111-.607s.186-.321.335-.417.315-.146.499-.146c.134 0 .254.029.359.085s.191.131.257.222v-1.11h.376v3.08h-.351zm-1.2-1.12c0 .286.06.5.181.642s.263.213.427.213a.54.54 0 0 0 .422-.203c.116-.135.174-.342.174-.62 0-.306-.059-.53-.177-.673a.54.54 0 0 0-.436-.215c-.168 0-.309.069-.422.206s-.169.354-.169.65zm2.15-1.53v-.436h.379v.436h-.379zm0 2.65v-2.23h.379v2.23h-.379zm.957 0v-3.08h.379v1.76l.896-.908h.49l-.854.829.941 1.41h-.468l-.738-1.14-.267.257v.885h-.379zm3.27-1.5c0-.512.137-.913.412-1.2s.63-.434 1.06-.434a1.48 1.48 0 0 1 .77.204 1.34 1.34 0 0 1 .523.569c.12.243.18.519.18.827s-.062.593-.189.839-.305.434-.536.561-.481.19-.749.19c-.291 0-.55-.07-.778-.21s-.402-.332-.52-.574-.177-.499-.177-.77zm.421.006c0 .372.1.664.299.878s.451.321.752.321c.307 0 .56-.108.758-.324s.298-.523.298-.92c0-.251-.043-.47-.128-.657s-.209-.332-.372-.436a1.01 1.01 0 0 0-.55-.154 1.04 1.04 0 0 0-.746.298c-.208.198-.312.53-.312.994zm2.92.505l.385-.034a.85.85 0 0 0 .127.38c.067.099.17.179.31.24s.298.091.473.091a1.14 1.14 0 0 0 .412-.069c.119-.047.208-.11.266-.19s.088-.169.088-.264a.4.4 0 0 0-.085-.254c-.056-.073-.149-.133-.277-.182-.083-.032-.266-.082-.549-.151s-.482-.132-.595-.192c-.147-.077-.257-.173-.33-.287s-.108-.242-.108-.384c0-.155.044-.301.132-.436s.218-.238.387-.309.358-.105.566-.105c.229 0 .43.037.605.111s.309.182.403.325a.95.95 0 0 1 .152.486l-.391.029c-.022-.195-.093-.342-.214-.442s-.3-.149-.537-.149c-.247 0-.426.045-.54.136s-.169.2-.169.327c0 .111.04.202.12.274s.284.145.615.22.559.141.683.197c.18.083.312.188.398.314a.77.77 0 0 1 .128.439c0 .164-.047.319-.141.464s-.229.258-.405.339-.374.121-.594.121a1.77 1.77 0 0 1-.702-.122c-.189-.081-.337-.203-.444-.367s-.164-.348-.169-.554zm2.99.991v-3.08h1.16c.236 0 .424.032.566.093a.73.73 0 0 1 .335.289.76.76 0 0 1 .121.407c0 .131-.036.256-.108.372s-.18.21-.324.282c.187.055.33.148.43.279s.151.288.151.467c0 .144-.031.279-.092.403s-.136.22-.226.287-.202.118-.337.152-.301.052-.498.052h-1.18zm.409-1.79h.667c.18 0 .31-.012.389-.036a.43.43 0 0 0 .234-.154.45.45 0 0 0 .079-.269c0-.102-.024-.192-.073-.27s-.12-.131-.21-.16-.248-.043-.47-.043h-.616v.932zm0 1.42h.768c.132 0 .225-.005.278-.014.094-.017.172-.045.236-.085s.115-.096.156-.171.061-.162.061-.26c0-.115-.029-.215-.088-.3a.47.47 0 0 0-.246-.179c-.104-.034-.255-.051-.451-.051h-.713v1.06zm2.54.364v-.432h.432v.432h-.432zm2.18-1.52c0-.365.037-.658.113-.88s.187-.394.335-.515.334-.181.558-.181c.166 0 .311.034.436.1a.83.83 0 0 1 .31.288c.081.126.145.279.191.459s.07.423.07.729c0 .362-.037.653-.111.876a1.1 1.1 0 0 1-.334.516c-.148.121-.335.182-.561.182-.297 0-.531-.106-.7-.32-.203-.256-.305-.675-.305-1.25zm.389 0c0 .506.06.843.178 1.01s.264.251.438.251.32-.085.439-.253.178-.505.178-1.01-.06-.845-.178-1.01-.266-.251-.442-.251-.313.074-.417.221c-.13.187-.195.535-.195 1.04zm3.97-.808l-.376.029a.71.71 0 0 0-.143-.324c-.103-.108-.229-.162-.379-.162a.52.52 0 0 0-.317.101.87.87 0 0 0-.282.38c-.068.167-.104.404-.107.713.091-.139.202-.242.335-.31a.9.9 0 0 1 .414-.1c.253 0 .468.093.645.279s.266.426.266.72c0 .194-.042.373-.126.54a.91.91 0 0 1-.344.382.94.94 0 0 1-.496.132.97.97 0 0 1-.772-.348c-.2-.232-.299-.615-.299-1.15 0-.596.11-1.03.33-1.3.192-.236.45-.354.776-.354.242 0 .441.068.596.205s.248.324.279.564zm-1.55 1.33a.88.88 0 0 0 .083.375.62.62 0 0 0 .232.272c.1.063.205.094.314.094.16 0 .297-.065.412-.194s.172-.304.172-.526c0-.213-.057-.381-.17-.504s-.256-.184-.429-.184a.58.58 0 0 0-.436.184c-.119.123-.179.284-.179.482zm1.98.185l.378-.05c.044.215.118.369.222.464a.55.55 0 0 0 .382.142c.178 0 .329-.062.452-.185s.184-.276.184-.459a.58.58 0 0 0-.17-.43.59.59 0 0 0-.434-.169c-.072 0-.161.014-.267.042l.042-.332.061.004c.161 0 .306-.042.435-.126s.194-.214.194-.389a.46.46 0 0 0-.142-.345.5.5 0 0 0-.364-.137c-.147 0-.27.047-.368.139s-.162.232-.19.417l-.378-.067c.046-.254.152-.451.315-.59s.368-.21.612-.21a1.02 1.02 0 0 1 .465.108.79.79 0 0 1 .325.296c.075.125.113.257.113.398a.65.65 0 0 1-.108.364.74.74 0 0 1-.317.261c.182.042.324.129.425.262a.8.8 0 0 1 .151.497.91.91 0 0 1-.294.685c-.196.187-.444.281-.745.281-.271 0-.496-.08-.674-.242s-.281-.37-.306-.627zm2.42-1.87v-.364h2v.294c-.196.209-.391.487-.584.833a5.09 5.09 0 0 0-.447 1.07 3.95 3.95 0 0 0-.145.848h-.389c.004-.243.052-.536.143-.88a4.65 4.65 0 0 1 .392-.994c.171-.319.352-.588.544-.806h-1.51zm2.95 1.01c-.157-.057-.274-.139-.35-.246s-.114-.234-.114-.383c0-.225.08-.413.242-.566s.376-.23.643-.23.486.078.651.235a.76.76 0 0 1 .246.572.63.63 0 0 1-.112.373c-.075.106-.189.187-.342.245.189.062.333.161.432.299s.148.302.148.492a.89.89 0 0 1-.279.665c-.187.18-.432.269-.737.269s-.549-.09-.736-.27-.28-.405-.28-.674c0-.2.051-.368.153-.504s.246-.228.434-.276zm-.076-.642c0 .146.047.265.141.358a.5.5 0 0 0 .366.139.49.49 0 0 0 .359-.138c.093-.092.139-.205.139-.338a.47.47 0 0 0-.144-.35.49.49 0 0 0-.359-.142.5.5 0 0 0-.36.139c-.096.093-.143.204-.143.332zm-.122 1.42c0 .108.026.212.077.313a.54.54 0 0 0 .228.235.67.67 0 0 0 .326.083.61.61 0 0 0 .448-.175c.118-.116.177-.264.177-.444s-.06-.333-.182-.452-.274-.179-.456-.179-.325.059-.442.177-.176.266-.176.442zm4.15.89v-1.31l-1.19-1.78h.496l.608.93.313.522.337-.545.597-.907h.475l-1.23 1.78v1.31h-.408zm3.09-.72l.391.048c-.062.229-.176.406-.342.533s-.381.189-.64.189c-.327 0-.586-.101-.777-.302s-.287-.483-.287-.847c0-.376.097-.668.29-.875a.98.98 0 0 1 .753-.312c.299 0 .543.102.732.305s.284.49.284.858l-.002.101h-1.67c.014.246.083.434.208.564s.28.196.467.196a.58.58 0 0 0 .356-.11c.098-.073.176-.189.233-.349zm-1.24-.612h1.25c-.016-.187-.065-.329-.143-.422a.58.58 0 0 0-.469-.219c-.174 0-.32.058-.439.174s-.184.272-.197.467zm2.11 1.33v-2.23h.34v.317a.8.8 0 0 1 .711-.368c.135 0 .258.024.371.073s.197.112.253.191.096.172.118.279c.014.07.021.193.021.368v1.37h-.379v-1.36c0-.154-.014-.269-.044-.346s-.082-.137-.156-.182-.163-.069-.264-.069c-.162 0-.3.052-.418.154s-.175.297-.175.583v1.22h-.378zm2.4-2.65v-.436h.379v.436h-.379zm0 2.65v-2.23h.379v2.23h-.379zm.956 0v-2.23h.338v.313a.8.8 0 0 1 .28-.264c.116-.067.249-.1.398-.1.165 0 .301.035.406.103s.181.164.224.288c.177-.261.407-.391.69-.391.222 0 .392.062.511.185s.179.312.179.566v1.53h-.376v-1.41c0-.152-.012-.261-.037-.328s-.07-.12-.134-.161-.141-.061-.228-.061c-.157 0-.287.052-.391.157s-.156.271-.156.501v1.3h-.378v-1.45c0-.169-.031-.295-.093-.379s-.162-.126-.303-.126c-.106 0-.205.028-.295.085a.48.48 0 0 0-.197.246c-.041.108-.061.264-.061.467v1.16h-.378z"/><path d="M89.2 30.4a1.46 1.46 0 0 1-.405.253 1.18 1.18 0 0 1-.418.073c-.246 0-.434-.06-.566-.18s-.198-.274-.198-.46c0-.11.024-.21.075-.3s.115-.163.195-.218.172-.096.273-.124a2.67 2.67 0 0 1 .336-.057c.306-.037.531-.08.676-.131l.002-.098c0-.154-.036-.264-.108-.326-.096-.086-.24-.128-.431-.128-.178 0-.31.031-.395.093s-.147.173-.188.332l-.37-.051c.034-.158.089-.286.166-.383a.73.73 0 0 1 .335-.226c.146-.052.314-.079.507-.079s.345.023.464.067.207.101.264.17.095.154.118.258c.012.065.019.181.019.349v.505l.024.668c.016.093.048.183.096.268h-.396a.8.8 0 0 1-.075-.276zm-.031-.846c-.138.057-.344.104-.618.144-.156.022-.266.047-.33.075s-.115.069-.149.124-.053.114-.053.18c0 .101.039.185.115.253s.188.1.335.1.276-.032.389-.096a.59.59 0 0 0 .251-.262c.041-.085.061-.212.061-.378v-.139zm.97 1.12v-3.08h.378v1.11c.177-.205.4-.307.669-.307a.9.9 0 0 1 .431.098.57.57 0 0 1 .262.27c.052.115.079.282.079.5v1.42h-.379v-1.42c0-.189-.041-.327-.123-.413s-.198-.13-.348-.13c-.112 0-.218.029-.317.088a.49.49 0 0 0-.211.237 1.08 1.08 0 0 0-.063.412v1.22h-.378zm3.85-.276a1.46 1.46 0 0 1-.405.253 1.18 1.18 0 0 1-.418.073c-.246 0-.434-.06-.566-.18s-.198-.274-.198-.46c0-.11.024-.21.075-.3s.115-.163.195-.218.172-.096.273-.124a2.67 2.67 0 0 1 .336-.057c.306-.037.531-.08.676-.131l.002-.098c0-.154-.036-.264-.108-.326-.096-.086-.24-.128-.431-.128-.178 0-.31.031-.395.093s-.147.173-.188.332l-.37-.051c.034-.158.089-.286.166-.383a.73.73 0 0 1 .335-.226c.146-.052.314-.079.507-.079s.345.023.464.067.207.101.264.17.095.154.118.258c.012.065.019.181.019.349v.505l.024.668c.016.093.048.183.096.268h-.396a.8.8 0 0 1-.075-.276zm-.031-.846c-.138.057-.344.104-.618.144-.156.022-.266.047-.33.075s-.115.069-.149.124-.053.114-.053.18c0 .101.039.185.115.253s.188.1.335.1.276-.032.389-.096a.59.59 0 0 0 .251-.262c.041-.085.061-.212.061-.378v-.139zm.961 1.12v-3.08h.378v3.08h-.378zm.957 0v-3.08h.378v3.08h-.378zm2.49-.72l.391.048c-.062.229-.176.406-.342.533s-.381.189-.64.189c-.327 0-.586-.101-.777-.302s-.287-.483-.287-.847c0-.376.097-.668.29-.875a.98.98 0 0 1 .753-.312c.299 0 .543.102.732.305s.284.49.284.858l-.002.101h-1.67c.014.246.083.434.208.564s.28.196.467.196a.58.58 0 0 0 .356-.11c.098-.073.176-.189.233-.349zm-1.24-.612h1.25c-.016-.187-.065-.329-.143-.422a.58.58 0 0 0-.469-.219c-.174 0-.32.058-.439.174s-.184.272-.197.467zm3.02 1.38l.894-3.19h.303l-.892 3.19h-.305zm2.15-.052l1.18-3.08h.439l1.26 3.08h-.465l-.36-.934h-1.29l-.338.934h-.434zm.89-1.27h1.05l-.322-.854-.218-.64a3.92 3.92 0 0 1-.167.59l-.339.904zm2.32 1.27v-3.08h.419l1.62 2.42v-2.42h.391v3.08h-.419l-1.62-2.42v2.42h-.391zm3.1 0v-3.08h.409v1.53l1.53-1.53h.553l-1.29 1.25 1.35 1.83h-.539l-1.1-1.56-.505.493v1.07h-.409zm2.55 0l1.18-3.08h.439l1.26 3.08h-.465l-.36-.934h-1.29l-.338.934h-.434zm.89-1.27h1.05l-.322-.854-.218-.64a3.92 3.92 0 0 1-.167.59l-.339.904zm2.33 1.27v-3.08h1.37c.275 0 .484.028.627.083s.257.153.343.293a.88.88 0 0 1 .128.465c0 .219-.07.403-.212.553s-.36.246-.656.286a1.03 1.03 0 0 1 .246.154c.119.109.232.246.339.41l.536.839h-.513l-.408-.642-.295-.424c-.077-.098-.146-.167-.207-.206a.62.62 0 0 0-.186-.082 1.28 1.28 0 0 0-.228-.014h-.473v1.37h-.408zm.408-1.72h.877c.186 0 .332-.019.437-.058s.185-.1.24-.185a.5.5 0 0 0 .082-.276c0-.146-.052-.266-.159-.36s-.273-.141-.502-.141h-.976v1.02zm2.36 1.72l1.18-3.08h.439l1.26 3.08h-.465l-.36-.934h-1.29l-.338.934h-.434zm.89-1.27h1.05l-.322-.854-.218-.64a3.92 3.92 0 0 1-.167.59l-.339.904zm-117 6.08v-2.72H.013v-.364h2.44v.364h-1.02v2.72h-.408zm2.85-.72l.391.048c-.062.229-.176.406-.342.533s-.381.189-.64.189c-.327 0-.586-.101-.777-.302s-.287-.483-.287-.847c0-.376.097-.668.29-.875a.98.98 0 0 1 .753-.312c.299 0 .543.102.732.305s.284.49.284.858l-.002.101h-1.67c.014.246.083.434.208.564s.28.196.467.196a.58.58 0 0 0 .356-.11c.098-.072.176-.189.233-.349zm-1.24-.612h1.25c-.017-.187-.065-.329-.143-.422a.58.58 0 0 0-.469-.219c-.174 0-.32.058-.439.174s-.184.272-.197.467zm2.1 1.33v-3.08h.378v3.08h-.378zm1.07-1.8v-.431h.432v.431h-.432zm0 1.8v-.432h.432v.432h-.432zm3.08-.498v-.846h-.839v-.353h.839v-.839h.358v.839h.839v.353h-.839v.846h-.358zm1.67-.215l.364-.034c.031.171.09.295.177.373s.198.116.335.116c.116 0 .218-.027.306-.08a.65.65 0 0 0 .215-.213c.057-.089.103-.21.141-.36a1.93 1.93 0 0 0 .057-.463l-.002-.075c-.076.12-.18.218-.31.293a.84.84 0 0 1-.426.113.86.86 0 0 1-.648-.278c-.177-.185-.265-.429-.265-.732 0-.313.092-.564.276-.755s.416-.286.694-.286c.2 0 .383.055.55.162a1.01 1.01 0 0 1 .378.462c.086.2.129.489.129.868 0 .394-.042.707-.128.941s-.213.411-.382.533-.367.183-.594.183c-.241 0-.438-.067-.591-.201s-.245-.322-.276-.564zm1.55-1.36c0-.217-.057-.39-.173-.517s-.255-.192-.418-.192c-.168 0-.314.069-.439.206s-.187.316-.187.534a.66.66 0 0 0 .178.479.58.58 0 0 0 .438.184c.176 0 .32-.061.432-.184s.169-.293.169-.51zm.789.554c0-.365.037-.658.113-.88s.187-.394.335-.515.334-.181.558-.181c.166 0 .311.034.436.1a.83.83 0 0 1 .31.288c.081.126.145.279.191.459s.07.423.07.729c0 .362-.037.653-.111.876a1.1 1.1 0 0 1-.334.516c-.148.121-.335.182-.561.182-.297 0-.531-.106-.7-.32-.203-.256-.305-.675-.305-1.25zm.389 0c0 .506.06.843.178 1.01s.264.251.438.251.32-.085.439-.253.178-.505.178-1.01-.06-.845-.178-1.01-.266-.251-.442-.251-.313.074-.417.221c-.13.187-.195.535-.195 1.04zm2.84 2.43c-.209-.264-.386-.572-.53-.926s-.217-.719-.217-1.1c0-.334.054-.653.162-.959.126-.355.321-.708.584-1.06h.271l-.336.625a3.35 3.35 0 0 0-.202.606 3.52 3.52 0 0 0-.091.791c0 .675.21 1.35.629 2.02h-.271zm.608-1.72l.378-.05c.044.215.118.369.222.464a.55.55 0 0 0 .382.142c.178 0 .329-.062.452-.185s.184-.276.184-.459a.58.58 0 0 0-.17-.43.59.59 0 0 0-.434-.169c-.072 0-.161.014-.267.042l.042-.332.061.004c.161 0 .306-.042.435-.126s.194-.214.194-.389a.46.46 0 0 0-.142-.345.5.5 0 0 0-.364-.137c-.147 0-.27.047-.368.139s-.162.232-.19.417l-.378-.068c.046-.254.152-.451.315-.59s.368-.21.612-.21a1.02 1.02 0 0 1 .465.108.79.79 0 0 1 .325.296c.075.125.113.257.113.398a.65.65 0 0 1-.108.364.74.74 0 0 1-.317.261c.182.042.324.129.425.262a.8.8 0 0 1 .151.497.91.91 0 0 1-.294.685c-.196.187-.444.281-.745.281-.271 0-.496-.08-.674-.242s-.281-.37-.306-.627zm3.82.814h-.378v-2.41c-.091.087-.21.174-.358.261s-.282.152-.399.195v-.366c.212-.1.397-.22.556-.362s.271-.279.337-.413h.243v3.1zm2.96-.364v.364h-2.04c-.003-.091.012-.179.044-.263.052-.139.135-.276.249-.411s.28-.29.496-.467c.335-.275.562-.493.68-.653s.177-.312.177-.455a.51.51 0 0 0-.161-.38c-.108-.103-.248-.154-.42-.154a.59.59 0 0 0-.437.164c-.11.109-.165.261-.167.454l-.389-.039c.026-.291.127-.512.301-.664s.408-.228.701-.228.53.083.702.246.259.368.259.61c0 .124-.025.245-.076.364s-.134.245-.251.376-.312.313-.584.543l-.437.388c-.065.068-.118.136-.16.205h1.51zm.759 1.27h-.272c.419-.674.629-1.35.629-2.02a3.46 3.46 0 0 0-.09-.785 3.23 3.23 0 0 0-.2-.605c-.055-.126-.167-.337-.339-.631h.272c.264.352.459.705.585 1.06a2.86 2.86 0 0 1 .162.959 2.87 2.87 0 0 1-.218 1.1c-.145.353-.322.662-.529.926zm2.28-1.72l.378-.05c.044.215.118.369.222.464a.55.55 0 0 0 .382.142c.178 0 .329-.062.452-.185s.184-.276.184-.459a.58.58 0 0 0-.17-.43.59.59 0 0 0-.434-.169c-.072 0-.161.014-.267.042l.042-.332.061.004c.161 0 .306-.042.435-.126s.194-.214.194-.389a.46.46 0 0 0-.142-.345.5.5 0 0 0-.364-.137c-.147 0-.27.047-.368.139s-.162.232-.19.417l-.378-.068c.046-.254.152-.451.315-.59s.368-.21.612-.21a1.02 1.02 0 0 1 .465.108.79.79 0 0 1 .325.296c.075.125.113.257.113.398a.65.65 0 0 1-.108.364.74.74 0 0 1-.317.261c.182.042.324.129.425.262a.8.8 0 0 1 .151.497.91.91 0 0 1-.294.685c-.196.187-.444.281-.745.281-.271 0-.496-.08-.674-.242s-.281-.37-.306-.627zm2.45.101l.364-.034c.031.171.09.295.177.373s.198.116.335.116c.116 0 .218-.027.306-.08a.65.65 0 0 0 .215-.213c.057-.089.103-.21.141-.36a1.93 1.93 0 0 0 .057-.463l-.002-.075c-.076.12-.18.218-.31.293a.84.84 0 0 1-.426.113.86.86 0 0 1-.648-.278c-.177-.185-.265-.429-.265-.732 0-.313.092-.564.276-.755s.416-.286.694-.286c.2 0 .383.055.55.162a1.01 1.01 0 0 1 .378.462c.086.2.129.489.129.868 0 .394-.042.707-.128.941s-.213.411-.382.533-.367.183-.594.183c-.241 0-.438-.067-.591-.201s-.245-.322-.276-.564zm1.55-1.36c0-.217-.057-.39-.173-.517s-.255-.192-.418-.192-.314.069-.439.206-.187.316-.187.534a.66.66 0 0 0 .178.479.58.58 0 0 0 .438.184c.176 0 .32-.061.432-.184s.169-.293.169-.51zm.789 1.27l.398-.034c.029.194.098.339.205.436s.237.146.388.146a.6.6 0 0 0 .462-.206c.126-.138.19-.32.19-.547 0-.216-.06-.386-.182-.511s-.28-.188-.477-.188a.66.66 0 0 0-.33.083.64.64 0 0 0-.231.215l-.355-.046.299-1.58h1.53v.362h-1.23l-.167.829c.185-.129.38-.194.583-.194a.92.92 0 0 1 .681.28c.185.187.278.426.278.719 0 .279-.082.521-.244.724-.198.249-.468.374-.81.374-.281 0-.51-.078-.687-.236a.92.92 0 0 1-.304-.625zm5.58.444v.364h-2.04c-.003-.091.011-.179.044-.263.052-.139.135-.276.249-.411s.28-.29.496-.467c.335-.275.562-.493.68-.653s.177-.312.177-.455a.51.51 0 0 0-.161-.38c-.108-.103-.248-.154-.42-.154a.59.59 0 0 0-.437.164c-.11.109-.165.261-.167.454l-.389-.039c.026-.291.127-.512.301-.664s.408-.228.701-.228.53.083.702.246.259.368.259.61c0 .124-.025.245-.076.364s-.134.245-.251.376-.312.313-.584.543l-.437.388c-.065.068-.118.136-.16.205h1.51zm.431-2.32v-.364h2v.294c-.196.209-.391.487-.584.833a5.09 5.09 0 0 0-.447 1.07 3.95 3.95 0 0 0-.145.848h-.389c.004-.243.052-.536.143-.88a4.65 4.65 0 0 1 .392-.994c.171-.319.352-.588.544-.806h-1.51zm5.53.351l-.376.029a.71.71 0 0 0-.143-.324c-.103-.108-.229-.162-.379-.162a.52.52 0 0 0-.317.101.87.87 0 0 0-.282.38c-.068.167-.104.404-.107.713.091-.139.202-.242.335-.31a.9.9 0 0 1 .414-.1c.253 0 .468.093.645.279s.266.426.266.72c0 .194-.042.373-.126.54a.91.91 0 0 1-.344.382.94.94 0 0 1-.496.132.97.97 0 0 1-.772-.348c-.2-.232-.299-.615-.299-1.15 0-.596.11-1.03.33-1.3.192-.236.45-.354.776-.354.242 0 .441.068.596.205s.248.324.279.564zm-1.55 1.33a.88.88 0 0 0 .083.375.62.62 0 0 0 .232.272c.1.063.205.094.314.094.16 0 .297-.065.412-.194s.172-.304.172-.526c0-.213-.057-.381-.17-.504s-.256-.184-.429-.184a.58.58 0 0 0-.436.184c-.119.123-.179.284-.179.482zm2.56-.673c-.157-.057-.274-.139-.35-.246s-.114-.234-.114-.383c0-.225.08-.413.242-.566s.376-.23.643-.23.486.078.651.235a.76.76 0 0 1 .246.572.63.63 0 0 1-.112.373c-.075.106-.189.187-.342.245.189.062.333.161.432.299s.148.302.148.492a.89.89 0 0 1-.279.665c-.187.18-.432.269-.737.269s-.549-.09-.736-.27-.28-.405-.28-.674c0-.2.051-.368.153-.504s.246-.228.434-.276zm-.076-.642c0 .146.047.265.141.358a.5.5 0 0 0 .366.139.49.49 0 0 0 .359-.138c.093-.092.139-.205.139-.338a.47.47 0 0 0-.144-.35.49.49 0 0 0-.359-.142.5.5 0 0 0-.36.139c-.096.093-.143.204-.143.332zm-.122 1.42c0 .108.026.212.077.313a.54.54 0 0 0 .228.235.67.67 0 0 0 .326.083.61.61 0 0 0 .448-.175c.118-.116.177-.264.177-.444s-.06-.333-.182-.452-.274-.179-.456-.179-.325.059-.442.177-.176.266-.176.442zm35.3-2.19h.408v1.78c0 .31-.035.556-.106.738a.9.9 0 0 1-.38.444c-.183.115-.423.172-.72.172-.289 0-.526-.05-.709-.149a.85.85 0 0 1-.394-.432c-.079-.189-.118-.446-.118-.773v-1.78h.408v1.78c0 .268.025.465.075.592s.136.225.256.294.27.103.445.103c.3 0 .514-.068.642-.205s.191-.397.191-.784v-1.78zm1.03 3.08v-3.08h.378v3.08h-.378zm2.43 0v-.328c-.174.253-.411.378-.709.378a.91.91 0 0 1-.369-.075c-.114-.05-.199-.114-.254-.19s-.095-.17-.117-.281a1.96 1.96 0 0 1-.023-.354v-1.38h.378v1.24c0 .198.008.331.023.4a.4.4 0 0 0 .152.235.47.47 0 0 0 .286.085c.114 0 .22-.029.32-.087s.17-.138.211-.238.063-.246.063-.436v-1.2h.378v2.23h-.338zm.78-.667l.374-.059c.021.15.08.265.176.345s.23.12.403.12.303-.036.387-.106.126-.154.126-.249c0-.086-.037-.153-.112-.202-.052-.034-.181-.076-.387-.128-.277-.07-.47-.131-.577-.182s-.189-.122-.244-.213-.083-.19-.083-.299c0-.1.023-.192.069-.276a.61.61 0 0 1 .186-.212.78.78 0 0 1 .24-.11 1.15 1.15 0 0 1 .328-.045c.175 0 .329.026.462.076s.23.118.294.205.106.202.13.346l-.37.051c-.017-.115-.066-.205-.146-.269s-.194-.097-.342-.097c-.174 0-.298.029-.372.086s-.112.125-.112.202a.21.21 0 0 0 .047.133c.031.041.079.074.145.101.038.014.149.046.335.096l.56.176c.106.045.19.112.25.199s.09.195.09.324-.037.245-.11.357-.18.197-.319.258a1.16 1.16 0 0 1-.471.091c-.291 0-.512-.06-.664-.181s-.249-.299-.291-.536zm4.43.667l-1.19-3.08h.442l.801 2.24.162.505.166-.505.833-2.24h.416l-1.21 3.08h-.419zm1.66 0v-.432h.432v.432h-.432zm1.14 0v-3.08h1.06c.24 0 .423.015.549.045.177.04.327.114.452.22.162.138.284.313.365.527s.121.458.121.733c0 .234-.027.442-.083.623s-.124.331-.21.45-.179.212-.281.279a1.13 1.13 0 0 1-.368.155c-.144.035-.309.052-.495.052h-1.11zm.408-.364h.658c.203 0 .363-.019.479-.057s.208-.091.276-.16a.97.97 0 0 0 .226-.39c.054-.164.081-.361.081-.594 0-.322-.053-.57-.159-.743s-.235-.289-.386-.348c-.109-.042-.286-.063-.528-.063h-.648v2.36zm2.76.364v-.432h.432v.432h-.432zm2.18-1.52c0-.365.037-.658.113-.88s.187-.394.335-.515.334-.181.558-.181c.166 0 .311.034.436.1a.83.83 0 0 1 .31.288c.081.126.145.279.191.459s.07.423.07.729c0 .362-.037.653-.111.876a1.1 1.1 0 0 1-.334.516c-.148.121-.335.182-.561.182-.297 0-.531-.106-.7-.32-.203-.256-.305-.675-.305-1.25zm.389 0c0 .506.06.843.178 1.01s.264.251.438.251.32-.085.439-.253.178-.505.178-1.01-.06-.845-.178-1.01-.266-.251-.442-.251-.313.074-.417.221c-.13.187-.195.535-.195 1.04z"/><path d="M100 33.1l-.376.029a.71.71 0 0 0-.143-.324c-.103-.108-.229-.162-.379-.162a.52.52 0 0 0-.317.101.87.87 0 0 0-.282.38c-.068.167-.104.404-.107.713.091-.139.202-.242.335-.31a.9.9 0 0 1 .414-.1c.253 0 .468.093.645.279s.266.426.266.72c0 .194-.042.373-.126.54a.91.91 0 0 1-.344.382.94.94 0 0 1-.496.132.97.97 0 0 1-.772-.348c-.2-.232-.299-.615-.299-1.15 0-.596.11-1.03.33-1.3.192-.236.45-.354.776-.354.242 0 .441.068.596.205s.248.324.279.564zm-1.55 1.33a.88.88 0 0 0 .083.375.62.62 0 0 0 .232.272c.1.063.205.094.314.094.16 0 .297-.065.412-.194s.172-.304.172-.526c0-.213-.057-.381-.17-.504s-.256-.184-.429-.184a.58.58 0 0 0-.436.184c-.119.123-.179.284-.179.482zm3.4 1h-.378v-2.41c-.091.087-.21.174-.358.261s-.282.152-.399.195v-.366c.212-.1.397-.22.556-.362s.271-.279.337-.413h.243v3.1zm.97-1.52c0-.365.037-.658.113-.88s.187-.394.335-.515.334-.181.558-.181c.166 0 .311.034.436.1a.83.83 0 0 1 .31.288c.081.126.145.279.191.459s.07.423.07.729c0 .362-.037.653-.111.876a1.1 1.1 0 0 1-.334.516c-.148.121-.335.182-.561.182-.297 0-.531-.106-.7-.32-.203-.256-.305-.675-.305-1.25zm.389 0c0 .506.06.843.178 1.01s.264.251.438.251.32-.085.439-.253.178-.505.178-1.01-.06-.845-.178-1.01-.266-.251-.442-.251-.313.074-.417.221c-.13.187-.195.535-.195 1.04zm3.22 1.52v-.738h-1.34v-.348l1.41-2h.31v2h.416v.348h-.416v.738h-.379zm0-1.09v-1.39l-.965 1.39h.965zm3.17.722v.364h-2.04c-.003-.091.011-.179.044-.263.052-.139.135-.276.249-.411s.28-.29.496-.467c.335-.275.562-.493.68-.653s.177-.312.177-.455a.51.51 0 0 0-.161-.38c-.108-.103-.248-.154-.42-.154a.59.59 0 0 0-.437.164c-.11.109-.165.261-.167.454l-.389-.039c.026-.291.127-.512.301-.664s.408-.228.701-.228.53.083.702.246.259.368.259.61c0 .124-.025.245-.076.364s-.134.245-.251.376-.312.313-.584.543l-.437.388c-.065.068-.118.136-.16.205h1.51zm2.4 0v.364h-2.04c-.003-.091.011-.179.044-.263.052-.139.135-.276.249-.411s.28-.29.496-.467c.335-.275.562-.493.68-.653s.177-.312.177-.455a.51.51 0 0 0-.161-.38c-.108-.103-.248-.154-.42-.154a.59.59 0 0 0-.437.164c-.11.109-.165.261-.167.454l-.389-.039c.026-.291.127-.512.301-.664s.408-.228.701-.228.53.083.702.246.259.368.259.61c0 .124-.025.245-.076.364s-.134.245-.251.376-.312.313-.584.543l-.437.388c-.065.068-.118.136-.16.205h1.51zm.462-.349l.364-.034c.031.171.09.295.177.373s.198.116.335.116c.116 0 .218-.027.306-.08a.65.65 0 0 0 .215-.213c.057-.089.103-.21.141-.36a1.93 1.93 0 0 0 .057-.463l-.002-.075c-.076.12-.18.218-.31.293a.84.84 0 0 1-.426.113.86.86 0 0 1-.648-.278c-.177-.185-.265-.429-.265-.732 0-.313.092-.564.276-.755s.416-.286.694-.286c.2 0 .383.055.55.162a1.01 1.01 0 0 1 .378.462c.086.2.129.489.129.868 0 .394-.042.707-.128.941s-.213.411-.382.533-.367.183-.594.183c-.241 0-.438-.067-.591-.201s-.245-.322-.276-.564zm1.55-1.36c0-.217-.057-.39-.173-.517s-.255-.192-.418-.192-.314.069-.439.206-.187.316-.187.534a.66.66 0 0 0 .178.479.58.58 0 0 0 .438.184c.176 0 .32-.061.432-.184s.169-.293.169-.51zm2 2.07v-.738h-1.34v-.348l1.41-2h.31v2h.416v.348h-.416v.738h-.379zm0-1.09v-1.39l-.965 1.39h.965zm1.21-1.59v-.364h2v.294c-.196.209-.391.487-.584.833a5.09 5.09 0 0 0-.447 1.07 3.95 3.95 0 0 0-.145.848h-.389c.004-.243.052-.536.143-.88a4.65 4.65 0 0 1 .392-.994c.171-.319.352-.588.544-.806h-1.51zm-117 7.49l-.684-2.23h.391l.355 1.29.132.48.116-.461.355-1.31h.389l.335 1.3.112.427.128-.432.383-1.29h.368l-.699 2.23h-.393l-.355-1.34-.087-.381-.452 1.72H.219zm3.11 0l-.684-2.23h.391l.355 1.29.132.48.116-.461.355-1.31h.389l.335 1.3.112.427.128-.432.383-1.29h.368l-.699 2.23h-.393l-.355-1.34-.087-.381-.452 1.72h-.396zm3.11 0l-.684-2.23h.391l.355 1.29.132.48.116-.461.355-1.31h.389l.335 1.3.112.427.128-.432.383-1.29h.368l-.699 2.23h-.393l-.355-1.34-.087-.381-.452 1.72h-.396zm2.57 0v-.432h.432v.432h-.432zm2.55-.276a1.46 1.46 0 0 1-.405.253 1.18 1.18 0 0 1-.418.073c-.246 0-.434-.06-.566-.18s-.198-.274-.198-.46c0-.11.024-.21.075-.3s.115-.163.195-.218.172-.096.273-.124a2.67 2.67 0 0 1 .336-.057c.306-.037.531-.08.676-.131l.002-.098c0-.154-.036-.264-.108-.326-.096-.086-.24-.128-.431-.128-.178 0-.31.031-.395.093s-.147.173-.188.332l-.37-.051c.034-.158.089-.286.166-.383a.73.73 0 0 1 .335-.226c.146-.052.314-.079.507-.079s.345.023.464.068.207.101.264.17.095.154.118.258c.012.065.019.181.019.349v.505l.024.668c.016.093.048.183.095.268h-.396a.8.8 0 0 1-.075-.276zm-.031-.846c-.138.057-.344.104-.618.144-.156.022-.266.047-.33.075s-.115.069-.149.124-.053.114-.053.18c0 .101.039.185.115.253s.188.1.335.1.276-.032.389-.096a.59.59 0 0 0 .251-.262c.041-.085.061-.212.061-.378v-.139zm.961 1.12v-3.08h.378v3.08h-.378zm1.79-.339l.055.335a1.41 1.41 0 0 1-.286.034c-.138 0-.244-.022-.32-.065a.36.36 0 0 1-.159-.172c-.031-.07-.047-.22-.047-.447v-1.29h-.278v-.294h.278v-.554l.377-.227v.78h.381v.294h-.381v1.31c0 .108.007.177.019.208s.035.055.065.074.073.027.129.027c.042 0 .098-.005.167-.015zm.372-2.31v-.436h.379v.436h-.379zm0 2.65v-2.23h.379v2.23h-.379zm.956 0v-2.23h.34v.317a.8.8 0 0 1 .711-.368c.135 0 .258.024.371.072s.197.112.253.191.096.172.118.279c.014.07.021.193.021.368v1.37h-.379v-1.36c0-.154-.014-.269-.044-.346s-.082-.137-.156-.182-.163-.069-.264-.069c-.162 0-.3.052-.418.154s-.175.297-.175.583v1.22h-.378zm2.4 0v-3.08h.379v1.76l.896-.908h.49l-.854.829.941 1.41h-.468l-.738-1.14-.267.257v.885h-.379zm3.61-.276a1.46 1.46 0 0 1-.405.253 1.18 1.18 0 0 1-.418.073c-.246 0-.434-.06-.566-.18s-.198-.274-.198-.46c0-.11.024-.21.075-.3s.115-.163.195-.218.172-.096.273-.124a2.67 2.67 0 0 1 .336-.057c.306-.037.531-.08.676-.131l.002-.098c0-.154-.036-.264-.108-.326-.096-.086-.24-.128-.431-.128-.178 0-.31.031-.395.093s-.147.173-.188.332l-.37-.051c.034-.158.089-.286.166-.383a.73.73 0 0 1 .335-.226c.146-.052.314-.079.507-.079s.345.023.464.068.207.101.264.17.095.154.118.258c.012.065.019.181.019.349v.505l.024.668c.016.093.048.183.096.268h-.396a.8.8 0 0 1-.075-.276zm-.032-.846c-.138.057-.344.104-.618.144-.156.022-.266.047-.33.075s-.115.069-.149.124-.053.114-.053.18c0 .101.039.185.115.253s.188.1.335.1.276-.032.389-.096a.59.59 0 0 0 .251-.262c.041-.085.061-.212.061-.378v-.139zm.953 1.98l-.042-.355a.86.86 0 0 0 .217.034c.084 0 .152-.014.202-.042s.092-.067.124-.118c.024-.037.062-.131.116-.282l.034-.093-.847-2.24h.408l.465 1.29.162.518c.044-.174.096-.343.156-.509l.478-1.3h.378l-.849 2.27-.212.507c-.067.125-.144.216-.231.274a.55.55 0 0 1-.312.088.76.76 0 0 1-.244-.047zm3.63-1.14a1.46 1.46 0 0 1-.405.253 1.18 1.18 0 0 1-.418.073c-.246 0-.434-.06-.566-.18s-.198-.274-.198-.46c0-.11.024-.21.075-.3s.115-.163.195-.218.172-.096.273-.124a2.67 2.67 0 0 1 .336-.057c.306-.037.531-.08.676-.131l.002-.098c0-.154-.036-.264-.108-.326-.096-.086-.24-.128-.431-.128-.178 0-.31.031-.395.093s-.147.173-.188.332l-.37-.051c.034-.158.089-.286.166-.383a.73.73 0 0 1 .335-.226c.146-.052.314-.079.507-.079s.345.023.464.068.207.101.264.17.095.154.118.258c.012.065.019.181.019.349v.505l.024.668c.016.093.048.183.096.268h-.396a.8.8 0 0 1-.075-.276zm-.032-.846c-.138.057-.344.104-.618.144-.156.022-.266.047-.33.075s-.115.069-.149.124-.053.114-.053.18c0 .101.039.185.115.253s.188.1.335.1.276-.032.389-.096a.59.59 0 0 0 .251-.262c.041-.085.061-.212.061-.378v-.139zm1.08 1.12v-.432h.432v.432h-.432zm2.55-.819l.372.049a.96.96 0 0 1-.312.602.91.91 0 0 1-.618.218c-.305 0-.551-.1-.737-.3s-.279-.486-.279-.859c0-.241.04-.452.12-.633s.202-.317.366-.407a1.08 1.08 0 0 1 .533-.136c.243 0 .442.062.595.185s.254.296.297.523l-.368.057c-.035-.15-.097-.263-.186-.339s-.197-.114-.323-.114c-.191 0-.346.068-.465.205s-.179.353-.179.648.057.518.173.655a.56.56 0 0 0 .45.204.53.53 0 0 0 .372-.137c.1-.091.163-.231.19-.421zm.555-.299c0-.414.115-.72.345-.919a1.04 1.04 0 0 1 .702-.248c.307 0 .559.1.753.302s.292.479.292.834c0 .288-.043.514-.129.679s-.212.293-.376.384-.345.136-.54.136c-.312 0-.565-.1-.758-.301s-.289-.489-.289-.867zm.389 0c0 .286.062.5.187.643a.6.6 0 0 0 .471.214.6.6 0 0 0 .47-.215c.124-.143.187-.361.187-.654 0-.276-.062-.486-.188-.628a.6.6 0 0 0-.468-.213c-.189 0-.346.071-.471.212s-.187.356-.187.641zm2.15 1.12v-2.23h.338v.313a.8.8 0 0 1 .28-.264c.116-.067.249-.1.398-.1.165 0 .301.035.406.103s.181.164.224.288c.177-.261.407-.391.69-.391.222 0 .392.062.511.185s.179.312.179.566v1.53h-.376v-1.41c0-.152-.012-.261-.037-.328s-.07-.12-.134-.161-.141-.061-.228-.061c-.157 0-.287.052-.391.157s-.156.271-.156.501v1.3h-.378v-1.45c0-.169-.031-.295-.093-.379s-.162-.126-.303-.126c-.106 0-.205.028-.295.085a.48.48 0 0 0-.197.246c-.041.108-.061.264-.061.467v1.16h-.378zm3.7 0v-.432h.432v.432h-.432zm1.92-.339l.055.335a1.41 1.41 0 0 1-.286.034c-.138 0-.244-.022-.32-.065a.36.36 0 0 1-.159-.172c-.031-.07-.047-.22-.047-.447v-1.29h-.278v-.294h.278v-.554l.377-.227v.78h.381v.294h-.381v1.31c0 .108.007.177.019.208s.035.055.065.074.073.027.129.027c.042 0 .098-.005.167-.015zm.366.339v-2.23h.34v.338c.087-.158.167-.263.241-.313a.42.42 0 0 1 .243-.076.74.74 0 0 1 .389.122l-.131.352a.53.53 0 0 0-.277-.083.36.36 0 0 0-.223.075c-.066.05-.113.119-.141.208-.042.134-.063.282-.063.442v1.17h-.378zm37.2-.667l.374-.059c.021.15.08.265.176.345s.23.12.403.12.303-.036.387-.106.126-.154.126-.249c0-.086-.037-.153-.112-.202-.052-.034-.181-.076-.387-.128-.277-.07-.47-.131-.577-.182s-.189-.122-.244-.213-.083-.19-.083-.299c0-.1.023-.192.069-.276a.61.61 0 0 1 .186-.212.78.78 0 0 1 .24-.11 1.15 1.15 0 0 1 .328-.045c.175 0 .329.026.462.076s.23.118.294.205.106.202.13.346l-.37.051c-.017-.115-.066-.205-.146-.269s-.194-.097-.342-.097c-.174 0-.298.029-.372.086s-.112.125-.112.202a.21.21 0 0 0 .047.133c.031.041.079.074.145.101.038.014.149.046.335.096l.56.176c.106.045.19.112.25.199s.09.195.09.324-.037.245-.11.357-.18.197-.319.258a1.16 1.16 0 0 1-.471.091c-.291 0-.512-.06-.664-.181s-.249-.299-.291-.536zm3.76.391a1.46 1.46 0 0 1-.405.253 1.18 1.18 0 0 1-.418.073c-.246 0-.434-.06-.566-.18s-.198-.274-.198-.46c0-.11.024-.21.075-.3s.115-.163.195-.218.172-.096.273-.124a2.67 2.67 0 0 1 .336-.057c.306-.037.531-.08.676-.131l.002-.098c0-.154-.036-.264-.108-.326-.096-.086-.24-.128-.431-.128-.178 0-.31.031-.395.093s-.147.173-.188.332l-.37-.051c.034-.158.089-.286.166-.383a.73.73 0 0 1 .335-.226c.146-.052.314-.079.507-.079s.345.023.464.068.207.101.264.17.095.154.118.258c.012.065.019.181.019.349v.505l.024.668c.016.093.048.183.096.268h-.396a.8.8 0 0 1-.075-.276zm-.031-.846c-.138.057-.344.104-.618.144-.156.022-.266.047-.33.075s-.115.069-.149.124-.053.114-.053.18c0 .101.039.185.115.253s.188.1.335.1.276-.032.389-.096a.59.59 0 0 0 .251-.262c.041-.085.061-.212.061-.378v-.139zm1.8.783l.055.335a1.41 1.41 0 0 1-.286.034c-.138 0-.244-.022-.32-.065a.36.36 0 0 1-.159-.172c-.031-.07-.047-.22-.047-.447v-1.29h-.278v-.294h.278v-.554l.377-.227v.78h.381v.294h-.381v1.31c0 .108.007.177.019.208s.035.055.065.074.073.027.129.027c.042 0 .098-.005.167-.015zm.372-2.31v-.436h.379v.436h-.379zm0 2.65v-2.23h.379v2.23h-.379zm.804-.667l.374-.059c.021.15.08.265.176.345s.23.12.403.12.303-.036.387-.106.126-.154.126-.249c0-.086-.037-.153-.112-.202-.052-.034-.181-.076-.387-.128-.277-.07-.47-.131-.577-.182s-.189-.122-.244-.213-.083-.19-.083-.299c0-.1.023-.192.069-.276a.61.61 0 0 1 .186-.212.78.78 0 0 1 .24-.11 1.15 1.15 0 0 1 .328-.045c.175 0 .329.026.462.076s.23.118.294.205.106.202.13.346l-.37.051c-.017-.115-.066-.205-.146-.269s-.194-.097-.342-.097c-.174 0-.298.029-.372.086s-.112.125-.112.202a.21.21 0 0 0 .047.133c.031.041.079.074.145.101.038.014.149.046.335.096l.56.176c.106.045.19.112.25.199s.09.195.09.324-.037.245-.11.357-.18.197-.319.258a1.16 1.16 0 0 1-.471.091c-.291 0-.512-.06-.664-.181s-.249-.299-.291-.536zm4.46.324c-.091.106-.193.19-.306.253s-.226.096-.34.096a.68.68 0 0 1-.364-.11c-.118-.072-.213-.184-.287-.336s-.111-.318-.111-.499a1.46 1.46 0 0 1 .172-.67c.114-.223.256-.391.426-.503s.335-.169.495-.169a.69.69 0 0 1 .349.096c.111.063.206.161.286.291l.071-.326h.377l-.303 1.41-.063.326a.13.13 0 0 0 .043.098c.029.027.063.041.104.041.075 0 .172-.042.292-.128.16-.113.286-.263.38-.452a1.3 1.3 0 0 0 .14-.584 1.27 1.27 0 0 0-.18-.656c-.12-.203-.299-.366-.536-.488a1.7 1.7 0 0 0-.788-.183c-.328 0-.628.077-.899.23s-.482.373-.631.66-.224.594-.224.923c0 .344.075.64.224.888a1.34 1.34 0 0 0 .648.551c.283.118.596.177.939.177.368 0 .676-.062.923-.185s.434-.274.558-.45h.38c-.072.147-.194.297-.368.45a1.97 1.97 0 0 1-.62.363c-.24.089-.528.134-.867.134a2.96 2.96 0 0 1-.862-.12c-.263-.081-.487-.2-.672-.361s-.324-.345-.419-.554c-.118-.265-.177-.551-.177-.858 0-.342.07-.668.21-.978.171-.381.414-.671.729-.873s.697-.303 1.15-.303c.348 0 .66.071.937.213s.495.355.655.637c.136.242.204.506.204.79 0 .407-.143.768-.429 1.08-.256.283-.534.425-.837.425-.097 0-.175-.015-.235-.044a.28.28 0 0 1-.131-.126c-.018-.034-.032-.095-.04-.181zm-1.02-.569c0 .192.046.341.137.448s.195.159.313.159c.079 0 .162-.024.248-.07a.89.89 0 0 0 .249-.209c.08-.093.144-.21.195-.352a1.26 1.26 0 0 0 .076-.428c0-.191-.047-.339-.142-.444s-.21-.157-.346-.157a.5.5 0 0 0-.254.068c-.079.045-.156.118-.23.22a1.25 1.25 0 0 0-.179.368c-.045.144-.067.277-.067.398z"/><path d="M91.3 40a1.46 1.46 0 0 1-.405.253 1.18 1.18 0 0 1-.418.073c-.246 0-.434-.06-.566-.18s-.198-.274-.198-.46c0-.11.024-.21.075-.3s.115-.163.195-.218.172-.096.273-.124a2.67 2.67 0 0 1 .336-.057c.306-.037.531-.08.676-.131l.002-.098c0-.154-.036-.264-.108-.326-.096-.086-.24-.128-.431-.128-.178 0-.31.031-.395.093s-.147.173-.188.332l-.37-.051c.034-.158.089-.286.166-.383a.73.73 0 0 1 .335-.226c.146-.052.314-.079.507-.079s.345.023.464.068.207.101.264.17.095.154.118.258c.012.065.019.181.019.349v.505l.024.668c.016.093.048.183.096.268h-.396a.8.8 0 0 1-.075-.276zm-.031-.846c-.138.057-.344.104-.618.144-.156.022-.266.047-.33.075s-.115.069-.149.124-.053.114-.053.18c0 .101.039.185.115.253s.188.1.335.1.276-.032.389-.096a.59.59 0 0 0 .251-.262c.041-.085.061-.212.061-.378v-.139zm.961 1.12v-3.08h.378v3.08h-.378zm1.79-.339l.055.335a1.41 1.41 0 0 1-.286.034c-.138 0-.244-.022-.32-.065a.36.36 0 0 1-.159-.172c-.031-.07-.047-.22-.047-.447v-1.29h-.278v-.294h.278v-.554l.377-.227v.78h.381v.294h-.381v1.31c0 .108.007.177.019.208s.035.055.065.074.073.027.129.027c.042 0 .098-.005.167-.015zm.372-2.31v-.436h.379v.436h-.379zm0 2.65v-2.23h.379v2.23h-.379zm.956 0v-2.23h.34v.317a.8.8 0 0 1 .711-.368c.135 0 .258.024.371.072s.197.112.253.191.096.172.118.279c.014.07.021.193.021.368v1.37h-.379v-1.36c0-.154-.014-.269-.044-.346s-.082-.137-.156-.182-.163-.069-.264-.069c-.162 0-.3.052-.418.154s-.175.297-.175.583v1.22h-.378zm2.4 0v-3.08h.379v1.76l.896-.908h.49l-.854.829.941 1.41h-.468l-.738-1.14-.267.257v.885h-.379zm3.61-.276a1.46 1.46 0 0 1-.405.253 1.18 1.18 0 0 1-.418.073c-.246 0-.434-.06-.566-.18s-.198-.274-.198-.46c0-.11.024-.21.075-.3s.115-.163.195-.218.172-.096.273-.124a2.67 2.67 0 0 1 .336-.057c.306-.037.531-.08.676-.131l.002-.098c0-.154-.036-.264-.108-.326-.096-.086-.24-.128-.431-.128-.178 0-.31.031-.395.093s-.147.173-.188.332l-.37-.051c.034-.158.089-.286.166-.383a.73.73 0 0 1 .335-.226c.146-.052.314-.079.507-.079s.345.023.464.068.207.101.264.17.095.154.118.258c.012.065.019.181.019.349v.505l.024.668c.016.093.048.183.096.268h-.396a.8.8 0 0 1-.075-.276zm-.031-.846c-.138.057-.344.104-.618.144-.156.022-.266.047-.33.075s-.115.069-.149.124-.053.114-.053.18c0 .101.039.185.115.253s.188.1.335.1.276-.032.389-.096a.59.59 0 0 0 .251-.262c.041-.085.061-.212.061-.378v-.139zm.953 1.98l-.042-.355a.86.86 0 0 0 .217.034c.084 0 .152-.014.202-.042s.092-.067.124-.118c.024-.037.062-.131.116-.282l.034-.093-.847-2.24h.408l.465 1.29.162.518c.044-.174.096-.343.156-.509l.478-1.3h.378l-.849 2.27-.212.507c-.067.125-.144.216-.231.274a.55.55 0 0 1-.312.088.76.76 0 0 1-.244-.047zm3.63-1.14a1.46 1.46 0 0 1-.405.253 1.18 1.18 0 0 1-.418.073c-.246 0-.434-.06-.566-.18s-.198-.274-.198-.46c0-.11.024-.21.075-.3s.115-.163.195-.218.172-.096.273-.124a2.67 2.67 0 0 1 .336-.057c.306-.037.531-.08.676-.131l.002-.098c0-.154-.036-.264-.108-.326-.096-.086-.24-.128-.431-.128-.178 0-.31.031-.395.093s-.147.173-.188.332l-.37-.051c.034-.158.089-.286.166-.383a.73.73 0 0 1 .335-.226c.146-.052.314-.079.507-.079s.345.023.464.068.207.101.264.17.095.154.118.258c.012.065.019.181.019.349v.505l.024.668c.016.093.048.183.096.268h-.396a.8.8 0 0 1-.075-.276zm-.031-.846c-.138.057-.344.104-.618.144-.156.022-.266.047-.33.075s-.115.069-.149.124-.053.114-.053.18c0 .101.039.185.115.253s.188.1.335.1.276-.032.389-.096a.59.59 0 0 0 .251-.262c.041-.085.061-.212.061-.378v-.139zm1.08 1.12v-.432h.432v.432h-.432zm2.55-.819l.372.049a.96.96 0 0 1-.312.602.91.91 0 0 1-.618.218c-.305 0-.551-.1-.737-.3s-.279-.486-.279-.859c0-.241.04-.452.12-.633s.202-.317.366-.407a1.08 1.08 0 0 1 .533-.136c.243 0 .442.062.595.185s.254.296.297.523l-.368.057c-.035-.15-.097-.263-.186-.339s-.197-.114-.323-.114c-.191 0-.346.068-.465.205s-.179.353-.179.648.057.518.173.655a.56.56 0 0 0 .45.204.53.53 0 0 0 .372-.137c.1-.091.163-.231.19-.421zm.555-.299c0-.414.115-.72.345-.919a1.04 1.04 0 0 1 .702-.248c.307 0 .559.1.753.302s.292.479.292.834c0 .288-.043.514-.129.679s-.212.293-.376.384-.345.136-.54.136c-.312 0-.565-.1-.758-.301s-.289-.489-.289-.867zm.389 0c0 .286.062.5.187.643a.6.6 0 0 0 .471.214.6.6 0 0 0 .47-.215c.124-.143.187-.361.187-.654 0-.276-.062-.486-.188-.628a.6.6 0 0 0-.468-.213c-.189 0-.346.071-.471.212s-.187.356-.187.641zm2.15 1.12v-2.23h.338v.313a.8.8 0 0 1 .28-.264c.116-.067.249-.1.398-.1.165 0 .301.035.406.103s.181.164.224.288c.177-.261.407-.391.69-.391.222 0 .392.062.511.185s.179.312.179.566v1.53h-.376v-1.41c0-.152-.012-.261-.037-.328s-.07-.12-.134-.161-.141-.061-.228-.061c-.157 0-.287.052-.391.157s-.156.271-.156.501v1.3h-.378v-1.45c0-.169-.031-.295-.093-.379s-.162-.126-.303-.126c-.106 0-.205.028-.295.085a.48.48 0 0 0-.197.246c-.041.108-.061.264-.061.467v1.16h-.378zm3.7 0v-.432h.432v.432h-.432zm1.92-.339l.055.335a1.41 1.41 0 0 1-.286.034c-.138 0-.244-.022-.32-.065a.36.36 0 0 1-.159-.172c-.031-.07-.047-.22-.047-.447v-1.29h-.278v-.294h.278v-.554l.377-.227v.78h.381v.294h-.381v1.31c0 .108.007.177.019.208s.035.055.065.074.073.027.129.027c.042 0 .098-.005.167-.015zm.366.339v-2.23h.34v.338c.087-.158.167-.263.241-.313a.42.42 0 0 1 .243-.076.74.74 0 0 1 .389.122l-.131.352a.53.53 0 0 0-.277-.083.36.36 0 0 0-.223.075c-.066.05-.113.119-.141.208-.042.134-.063.282-.063.442v1.17h-.378z"/></g></svg>