<svg xmlns="http://www.w3.org/2000/svg" width="453.543" height="157.984" fill-rule="evenodd" image-rendering="optimizeQuality" shape-rendering="geometricPrecision" viewBox="0 0 120 41.8" xmlns:v="https://vecta.io/nano"><g fill="#2b2a29" fill-rule="nonzero"><path d="M1.14 23.6h.413l-.206-1.46-.207 1.46zm-.889 1.24l.671-3.34h.855l.663 3.34h-.719l-.09-.64h-.565l-.089.64H.252zm4.34 0h-1.58V21.5h.719v2.67h.864v.674zm.649 0v-2.69h-.576v-.649h1.9v.649h-.606v2.69h-.722zm1.91 0V21.5h.719v3.34H7.15zm1.51 0V21.5h.749l.598 2.06-.053-.898-.017-.637V21.5h.641v3.34h-.751l-.602-2.12.061.803.021.756v.564H8.66zm2.71 0V21.5h.719v1.39l.537-1.39h.735l-.668 1.46.683 1.88h-.755l-.378-1.21-.155.319v.889h-.719zm3.24-1.24h.413l-.206-1.46-.207 1.46zm-.889 1.24l.671-3.34h.855l.663 3.34h-.719l-.09-.64h-.565l-.089.64h-.725zm3.01 0v-1.42l-.707-1.92h.773l.297 1.06.3-1.06h.781l-.707 1.92v1.42h-.737zm2.44-1.24h.413l-.206-1.46-.207 1.46zm-.889 1.24l.671-3.34h.855l.663 3.34h-.719l-.09-.64h-.565l-.089.64h-.725zm3.86 0V21.5h1.67v.649h-.959v.614h.885v.67h-.885v.729h.959v.679h-1.67zm3.99 0h-1.58V21.5h.719v2.67h.865v.674zm.607 0V21.5h1.67v.649h-.959v.614h.885v.67h-.885v.729h.959v.679h-1.67zm2.41 0V21.5h.719v1.39l.537-1.39h.735l-.668 1.46.683 1.88H30.4l-.378-1.21-.155.319v.889h-.719zm2.95 0v-2.69h-.576v-.649h1.9v.649h-.606v2.69h-.722zm2.62-1.95l.047.002.043.002c.149 0 .255-.032.317-.098s.093-.175.093-.33c0-.144-.031-.245-.093-.305s-.168-.09-.317-.09c-.01 0-.024.001-.043.002l-.047.002v.814zm-.711 1.95V21.5h.809c.265 0 .458.013.577.04s.218.073.292.138c.088.078.154.175.197.289a1.16 1.16 0 0 1 .065.408c0 .192-.031.353-.093.484s-.158.237-.288.321c.222.107.339.361.351.761v.011l.004.182c.005.376.063.612.172.707h-.841c-.019-.07-.033-.142-.042-.218s-.013-.158-.013-.244l.004-.194.004-.149c0-.204-.025-.344-.074-.419s-.138-.112-.266-.112h-.148v1.34h-.711zm3.95-1.37v-.603c0-.37-.022-.599-.065-.686s-.121-.131-.235-.131-.188.045-.23.135-.064.317-.064.683v.603c0 .361.021.588.064.68s.12.138.233.138.19-.045.232-.135.064-.317.064-.683zm-1.33-.301l.04-.88c.027-.185.07-.33.132-.434a.84.84 0 0 1 .346-.329c.142-.072.314-.107.513-.107a1.12 1.12 0 0 1 .512.107c.141.072.254.181.342.329.064.105.109.251.136.436s.04.478.04.878l-.04.877a1.16 1.16 0 0 1-.136.437.84.84 0 0 1-.342.328c-.142.072-.313.108-.512.108s-.371-.036-.513-.108a.85.85 0 0 1-.346-.328 1.21 1.21 0 0 1-.132-.434c-.027-.185-.04-.478-.04-.88zm2.79 1.67v-3.34h.749l.598 2.06-.053-.898-.017-.637v-.525h.641v3.34h-.751l-.602-2.12.061.803.021.756v.564h-.647zm2.71 0v-3.34h.719v3.34h-.719zm1.51 0v-3.34h.719v1.39l.537-1.39h.735l-.668 1.46.683 1.88h-.755l-.378-1.21-.156.319v.889h-.719zm4.85-1.29h.707l.003.065.001.104c0 .408-.083.71-.247.908s-.417.296-.756.296c-.2 0-.371-.036-.513-.108a.85.85 0 0 1-.346-.328 1.21 1.21 0 0 1-.132-.434 6.86 6.86 0 0 1-.04-.88l.04-.88c.027-.185.07-.33.132-.434a.84.84 0 0 1 .342-.326c.141-.073.31-.11.505-.11.337 0 .589.101.758.305s.253.507.253.912v.032l-.699-.002c-.003-.227-.026-.386-.072-.478s-.121-.138-.228-.138c-.115 0-.195.056-.237.168s-.064.408-.064.888v.063c0 .516.021.832.064.948s.121.175.237.175c.108 0 .183-.042.227-.127s.065-.242.065-.472v-.147zm1.47 1.29v-3.34h.719v3.34h-.719zm1.51 0v-3.34h.719v1.26h.578v-1.26h.703v3.34h-.703v-1.39h-.578v1.39h-.719zm3.46-1.24h.413l-.206-1.46-.207 1.46zm-.889 1.24l.671-3.34h.855l.664 3.34h-.719l-.09-.64h-.565l-.089.64h-.725zm2.64 0v-.623l.941-2.08h-.865v-.64h1.66v.581l-.945 2.08h.989v.683h-1.78zm3.55 0v-3.34h.719v1.39l.537-1.39h.735l-.668 1.46.683 1.88h-.755l-.378-1.21-.155.319v.889h-.719zm2.5-3.34h.727v2.09c0 .317.018.512.055.588s.102.112.195.112.16-.039.196-.117.054-.272.054-.584v-2.09h.713v2.13c0 .241-.01.421-.029.541s-.051.223-.095.311a.7.7 0 0 1-.318.331c-.138.07-.318.105-.541.105-.205 0-.372-.033-.501-.099s-.232-.171-.308-.316c-.055-.102-.093-.234-.115-.395s-.033-.432-.033-.814v-1.8zm3.1 3.34v-2.69h-.576V21.5h1.9v.649h-.606v2.69h-.722zm1.91-3.34h.727v2.09c0 .317.018.512.055.588s.102.112.195.112.16-.039.196-.117.054-.272.054-.584v-2.09h.713v2.13c0 .241-.009.421-.029.541s-.051.223-.095.311a.7.7 0 0 1-.318.331c-.138.07-.318.105-.541.105-.205 0-.372-.033-.501-.099s-.232-.171-.308-.316c-.055-.102-.093-.234-.115-.395s-.033-.432-.033-.814v-1.8zm4.31 3.34h-1.58v-3.34h.719v2.67h.865v.674zm1.35-1.24h.413l-.206-1.46-.207 1.46zm-.889 1.24l.671-3.34h.855l.664 3.34h-.719l-.09-.64h-.565l-.089.64h-.726zm3.47-1.95l.047.002.043.002c.149 0 .255-.032.317-.098s.093-.175.093-.33c0-.144-.031-.245-.093-.305s-.168-.09-.317-.09c-.01 0-.024.001-.043.002l-.047.002v.814zm-.711 1.95v-3.34h.809c.265 0 .458.013.577.04s.218.073.292.138c.088.078.154.175.197.289a1.16 1.16 0 0 1 .065.408c0 .192-.031.353-.093.484s-.158.237-.288.321c.222.107.339.361.351.761v.011l.004.182c.005.376.063.612.172.707h-.841a1.44 1.44 0 0 1-.042-.218c-.008-.076-.013-.158-.013-.244l.004-.194.004-.149c0-.204-.025-.344-.074-.419s-.138-.112-.266-.112h-.148v1.34h-.711zm2.69 0v-3.34h.719v3.34h-.719zm2.51-1.13h.659v.098c0 .184.02.313.06.389s.107.113.201.113c.076 0 .136-.029.179-.086s.066-.135.066-.233c0-.162-.107-.317-.322-.466l-.08-.058-.034-.024c-.288-.211-.468-.37-.539-.477-.05-.081-.089-.172-.115-.273s-.04-.212-.04-.332c0-.292.078-.521.234-.687s.37-.25.643-.25c.297 0 .524.081.68.245s.234.4.234.709l-.002.055-.002.054h-.645v-.041c0-.146-.021-.257-.063-.332s-.103-.113-.183-.113c-.067 0-.123.027-.164.079s-.062.123-.062.21c0 .141.117.292.352.451l.097.07a1.3 1.3 0 0 1 .079.054c.252.174.412.32.483.438.044.077.078.164.101.261s.035.204.035.318c0 .334-.08.592-.239.772s-.389.271-.685.271c-.312 0-.546-.087-.702-.259s-.235-.43-.235-.772l.001-.068.007-.114zm3.2-.11h.413l-.206-1.46-.207 1.46zm-.889 1.24l.671-3.34h.855l.663 3.34h-.719l-.09-.64h-.565l-.089.64h-.725zm2.76 0v-3.34h.749l.598 2.06-.053-.898-.017-.637v-.525h.641v3.34h-.751l-.602-2.12.061.803.021.756v.564h-.647zm3.38-1.24h.413l-.206-1.46-.207 1.46zm-.889 1.24l.671-3.34h.855l.663 3.34h-.719l-.09-.64h-.565l-.089.64h-.725zm3.01 0v-1.42l-.707-1.92h.773l.297 1.06.3-1.06h.781l-.707 1.92v1.42h-.737zm1.96 0v-3.34h.719v3.34h-.719zm2.98 0v-2.69h-.576V21.5h1.9v.649h-.606v2.69h-.721zm1.91 0v-3.34h.719v3.34h-.719zm2.77-1.29h.707l.003.065.001.104c0 .408-.082.71-.247.908s-.417.296-.756.296c-.2 0-.371-.036-.513-.108a.85.85 0 0 1-.346-.328c-.061-.104-.105-.249-.132-.434s-.04-.478-.04-.88l.04-.88c.027-.185.07-.33.132-.434a.84.84 0 0 1 .342-.326c.141-.073.31-.11.505-.11.337 0 .589.101.758.305s.253.507.253.912v.032l-.699-.002c-.003-.227-.026-.386-.072-.478s-.121-.138-.228-.138c-.115 0-.195.056-.237.168s-.064.408-.064.888v.063c0 .516.021.832.064.948s.121.175.237.175c.108 0 .183-.042.227-.127s.065-.242.065-.472v-.147zm2.14.05h.413l-.206-1.46-.207 1.46zm-.889 1.24l.671-3.34h.855l.663 3.34h-.719l-.09-.64h-.565l-.089.64h-.725zm3.47-1.95l.047.002.043.002c.149 0 .255-.032.317-.098s.093-.175.093-.33c0-.144-.031-.245-.093-.305s-.168-.09-.317-.09a.61.61 0 0 0-.043.002l-.047.002v.814zm-.711 1.95v-3.34h.809c.265 0 .458.013.577.04s.218.073.292.138c.088.078.153.175.197.289s.065.25.065.408c0 .192-.031.353-.093.484a.77.77 0 0 1-.288.321c.222.107.339.361.351.761v.011l.004.182c.005.376.063.612.172.707h-.841c-.019-.07-.033-.142-.042-.218s-.013-.158-.013-.244l.004-.194.004-.149c0-.204-.025-.344-.074-.419s-.138-.112-.266-.112h-.148v1.34h-.711zm2.69 0v-3.34h1.67v.649h-.959v.614h.885v.67h-.885v.729h.959v.679h-1.67zm2.78 0v-2.69h-.576V21.5h1.9v.649h-.606v2.69h-.722zm3.67-1.24h.413l-.206-1.46-.207 1.46zm-.889 1.24l.671-3.34h.855l.663 3.34h-.719l-.09-.64h-.565l-.089.64h-.725zm2.78 0v-.763h.709v.763h-.709zm1.35-1.13h.659v.098c0 .184.02.313.06.389s.107.113.201.113c.076 0 .136-.029.179-.086s.066-.135.066-.233c0-.162-.107-.317-.322-.466l-.08-.058-.034-.024c-.288-.211-.468-.37-.539-.477-.05-.081-.089-.172-.115-.273s-.04-.212-.04-.332c0-.292.078-.521.234-.687s.37-.25.643-.25c.297 0 .524.081.68.245s.235.4.235.709l-.002.055-.002.054h-.645v-.041c0-.146-.021-.257-.063-.332s-.103-.113-.183-.113c-.067 0-.123.027-.164.079a.33.33 0 0 0-.062.21c0 .141.117.292.352.451l.097.07a1.27 1.27 0 0 1 .079.054c.252.174.412.32.483.438a1 1 0 0 1 .101.261 1.37 1.37 0 0 1 .035.318c0 .334-.08.592-.239.772s-.389.271-.685.271c-.312 0-.545-.087-.702-.259s-.234-.43-.234-.772l.001-.068.008-.114zm2.48 1.13v-.763h.709v.763h-.709z"/><path d="M29.4 19.9v-4.53h2.46v.879h-1.41v.832h1.3v.908h-1.3v.989h1.41v.92H29.4zm3.54 0v-4.53h1.1l.88 2.79-.078-1.22-.025-.864v-.712h.944v4.53h-1.11l-.886-2.88.089 1.09.031 1.02v.765h-.952zm5.84-1.75h1.04l.005.088.001.142c0 .553-.122.963-.363 1.23s-.613.402-1.11.402c-.294 0-.546-.049-.756-.146a1.21 1.21 0 0 1-.509-.445c-.09-.14-.155-.337-.194-.588s-.059-.648-.059-1.19.02-.942.059-1.19.103-.448.194-.588a1.21 1.21 0 0 1 .503-.443c.208-.099.456-.148.744-.148.496 0 .867.138 1.12.414.248.275.372.688.372 1.24v.044l-1.03-.003c-.004-.308-.039-.524-.105-.648s-.179-.187-.336-.187c-.17 0-.287.076-.349.228s-.094.553-.094 1.2v.085c0 .7.031 1.13.094 1.29s.179.237.349.237c.16 0 .27-.057.334-.172s.095-.328.095-.64v-.2zm4.49 1.75h-2.33v-4.53H42v3.61h1.27v.914zm2.54-1.86v-.817c0-.502-.032-.812-.095-.93s-.179-.178-.345-.178-.276.061-.338.183-.094.43-.094.926v.817c0 .49.031.797.094.921s.177.187.343.187.279-.061.341-.183.094-.43.094-.925zm-1.95-.408c0-.545.02-.942.059-1.19s.103-.448.194-.588c.129-.2.299-.348.509-.446s.462-.146.756-.146.547.048.754.146a1.21 1.21 0 0 1 .504.446c.094.142.161.34.2.591s.059.648.059 1.19l-.059 1.19c-.039.252-.105.45-.2.592-.127.198-.295.346-.504.445s-.461.146-.754.146-.546-.049-.756-.146a1.21 1.21 0 0 1-.509-.445c-.09-.14-.155-.337-.194-.588s-.059-.648-.059-1.19zm3.97.729h.971v.132c0 .249.029.425.088.527s.158.153.296.153c.111 0 .2-.039.264-.116s.097-.183.097-.316c0-.22-.158-.43-.474-.632l-.118-.079-.05-.032c-.425-.286-.69-.502-.794-.646a1.33 1.33 0 0 1-.17-.37c-.04-.136-.059-.288-.059-.451 0-.396.114-.707.344-.932s.545-.338.947-.338c.438 0 .771.11 1 .332s.345.542.345.962l-.003.074-.003.073h-.95v-.056c0-.198-.031-.348-.092-.45s-.152-.154-.27-.154c-.099 0-.181.036-.241.107s-.091.167-.091.284c0 .192.173.396.518.611l.144.094.115.073c.37.236.607.434.712.594a1.28 1.28 0 0 1 .148.354c.034.132.051.276.051.431 0 .453-.117.802-.352 1.05s-.572.367-1.01.367c-.459 0-.803-.117-1.03-.351s-.345-.583-.345-1.05l.001-.092.011-.155zm3.72-2.99h1.07v2.84c0 .43.027.695.081.797s.15.152.287.152.235-.053.288-.158.079-.369.079-.791v-2.84h1.05v2.89c0 .327-.014.571-.042.734a1.36 1.36 0 0 1-.14.422.99.99 0 0 1-.468.449c-.204.095-.469.142-.797.142-.301 0-.547-.044-.738-.134a1.01 1.01 0 0 1-.453-.429c-.08-.138-.136-.317-.17-.535s-.048-.585-.048-1.1v-2.44zm5.06 1.88l.069.003.063.003c.22 0 .375-.044.467-.132s.136-.237.136-.447c0-.195-.045-.332-.136-.414s-.247-.122-.467-.122l-.063.003-.069.003v1.1zm-1.05 2.64v-4.53h1.19c.389 0 .674.018.849.054s.32.098.43.187c.129.106.226.237.29.391a1.44 1.44 0 0 1 .095.553 1.42 1.42 0 0 1-.136.655 1.09 1.09 0 0 1-.425.436c.327.145.499.489.517 1.03v.015l.006.247c.008.51.092.829.253.959h-1.24c-.028-.094-.048-.193-.061-.295s-.019-.214-.019-.331l.006-.263.006-.202c0-.277-.036-.466-.108-.568s-.204-.152-.391-.152h-.218v1.81h-1.05zm3.95 0v-4.53h2.46v.879h-1.41v.832h1.3v.908h-1.3v.989h1.41v.92h-2.46zm3.41-1.54h.971v.132c0 .249.029.425.088.527s.158.153.296.153c.111 0 .2-.039.264-.116s.097-.183.097-.316c0-.22-.158-.43-.474-.632l-.118-.079-.05-.032c-.425-.286-.69-.502-.794-.646a1.33 1.33 0 0 1-.17-.37c-.04-.136-.059-.288-.059-.451 0-.396.114-.707.344-.932s.545-.338.947-.338c.438 0 .771.11 1 .332s.345.542.345.962l-.003.074-.003.073h-.95v-.056c0-.198-.031-.348-.092-.45s-.152-.154-.27-.154c-.099 0-.181.036-.241.107s-.091.167-.091.284c0 .192.173.396.518.611l.144.094.115.073c.37.236.607.434.712.594a1.28 1.28 0 0 1 .148.354c.034.132.051.276.051.431 0 .453-.117.802-.352 1.05s-.572.367-1.01.367c-.459 0-.803-.117-1.03-.351s-.345-.583-.345-1.05l.001-.092.011-.155zm5.34 1.54v-4.53h2.47v.879h-1.41v.823h1.3v.911h-1.3v1.92h-1.06zm5.38-1.86v-.817c0-.502-.032-.812-.095-.93s-.179-.178-.345-.178-.276.061-.338.183-.094.43-.094.926v.817c0 .49.031.797.094.921s.177.187.343.187.279-.061.341-.183.094-.43.094-.925zm-1.95-.408c0-.545.02-.942.059-1.19s.103-.448.194-.588c.129-.2.299-.348.509-.446s.462-.146.756-.146.547.048.754.146a1.21 1.21 0 0 1 .504.446c.094.142.161.34.2.591s.059.648.059 1.19l-.059 1.19c-.039.252-.105.45-.2.592-.127.198-.295.346-.504.445s-.461.146-.754.146-.546-.049-.756-.146a1.21 1.21 0 0 1-.509-.445c-.09-.14-.155-.337-.194-.588s-.059-.648-.059-1.19zm5.15-.379l.069.003.063.003c.22 0 .375-.044.467-.132s.136-.237.136-.447c0-.195-.045-.332-.136-.414s-.247-.122-.467-.122l-.063.003-.069.003v1.1zm-1.05 2.64v-4.53h1.19c.389 0 .674.018.849.054s.32.098.43.187c.129.106.226.237.29.391a1.44 1.44 0 0 1 .095.553 1.42 1.42 0 0 1-.136.655 1.09 1.09 0 0 1-.425.436c.327.145.499.489.517 1.03v.015l.006.247c.008.51.092.829.253.959h-1.24c-.028-.094-.048-.193-.061-.295s-.019-.214-.019-.331l.006-.263.006-.202c0-.277-.036-.466-.108-.568s-.204-.152-.391-.152h-.218v1.81h-1.05zm5.57 0v-4.53h2.46v.879h-1.41v.832h1.3v.908h-1.3v.989h1.41v.92h-2.46zm5.88 0h-2.33v-4.53h1.06v3.61h1.27v.914zm.893 0v-4.53h2.46v.879h-1.41v.832h1.3v.908h-1.3v.989h1.41v.92h-2.46zm5.4-1.75h1.04l.005.088.001.142c0 .553-.122.963-.363 1.23s-.613.402-1.11.402c-.294 0-.546-.049-.756-.146a1.21 1.21 0 0 1-.509-.445c-.09-.14-.155-.337-.194-.588s-.059-.648-.059-1.19.02-.942.059-1.19.103-.448.194-.588a1.21 1.21 0 0 1 .503-.443c.208-.099.456-.148.744-.148.496 0 .867.138 1.12.414s.372.688.372 1.24v.044l-1.03-.003c-.004-.308-.039-.524-.105-.648s-.179-.187-.336-.187c-.17 0-.287.076-.349.228s-.094.553-.094 1.2v.085c0 .7.031 1.13.094 1.29s.179.237.349.237c.16 0 .27-.057.334-.172s.095-.328.095-.64v-.2zm2.71 1.75v-3.65h-.847v-.879h2.8v.879h-.891v3.65h-1.06zm3.86-2.64l.069.003.063.003c.22 0 .375-.044.467-.132s.136-.237.136-.447c0-.195-.045-.332-.136-.414s-.247-.122-.467-.122l-.063.003-.069.003v1.1zm-1.05 2.64v-4.53h1.19c.39 0 .674.018.849.054s.32.098.43.187c.129.106.226.237.29.391a1.44 1.44 0 0 1 .095.553 1.42 1.42 0 0 1-.136.655 1.09 1.09 0 0 1-.425.436c.327.145.499.489.517 1.03v.015l.006.247c.008.51.092.829.253.959h-1.24c-.028-.094-.048-.193-.061-.295s-.019-.214-.019-.331l.006-.263.006-.202c0-.277-.036-.466-.108-.568s-.204-.152-.392-.152h-.218v1.81h-1.05zm5.82-1.86v-.817c0-.502-.032-.812-.095-.93s-.179-.178-.345-.178-.276.061-.338.183-.094.43-.094.926v.817c0 .49.031.797.094.921s.177.187.343.187.279-.061.341-.183.094-.43.094-.925zm-1.95-.408c0-.545.02-.942.059-1.19s.103-.448.194-.588c.129-.2.299-.348.509-.446s.462-.146.756-.146.547.048.754.146a1.21 1.21 0 0 1 .504.446c.094.142.161.34.2.591s.059.648.059 1.19l-.059 1.19c-.039.252-.105.45-.2.592-.127.198-.295.346-.504.445s-.461.146-.754.146-.546-.049-.756-.146a1.21 1.21 0 0 1-.509-.445c-.09-.14-.155-.337-.194-.588s-.059-.648-.059-1.19zm4.11 2.26v-4.53h1.1l.88 2.79-.078-1.22-.025-.864v-.712h.944v4.53h-1.11l-.886-2.88.089 1.09.031 1.02v.765h-.952zm3.99 0v-4.53h1.06v4.53h-1.06zm4.07-1.75h1.04l.005.088.001.142c0 .553-.122.963-.363 1.23s-.613.402-1.11.402c-.294 0-.546-.049-.756-.146a1.21 1.21 0 0 1-.509-.445c-.09-.14-.155-.337-.194-.588s-.059-.648-.059-1.19.02-.942.059-1.19.103-.448.194-.588a1.21 1.21 0 0 1 .503-.443c.208-.099.456-.148.744-.148.496 0 .867.138 1.12.414s.372.688.372 1.24v.044l-1.03-.003c-.004-.308-.039-.524-.105-.648s-.179-.187-.336-.187c-.17 0-.287.076-.349.228s-.094.553-.094 1.2v.085c0 .7.031 1.13.094 1.29s.179.237.349.237c.16 0 .27-.057.334-.172s.095-.328.095-.64v-.2zm2.13.218h.971v.132c0 .249.029.425.088.527s.158.153.296.153c.111 0 .2-.039.264-.116s.097-.183.097-.316c0-.22-.158-.43-.474-.632l-.118-.079-.05-.032c-.425-.286-.69-.502-.794-.646a1.33 1.33 0 0 1-.17-.37c-.04-.136-.059-.288-.059-.451 0-.396.114-.707.344-.932s.545-.338.947-.338c.438 0 .771.11 1 .332s.345.542.345.962l-.003.074-.003.073h-.95v-.056c0-.198-.031-.348-.092-.45s-.152-.154-.27-.154c-.099 0-.181.036-.241.107s-.091.167-.091.284c0 .192.173.396.518.611l.144.094.115.073c.37.236.607.434.712.594a1.28 1.28 0 0 1 .148.354c.034.132.051.276.051.431 0 .453-.117.802-.352 1.05s-.572.367-1.01.367c-.459 0-.803-.117-1.03-.351s-.345-.583-.345-1.05l.001-.092.011-.155zM108 13.8L112.02 0h3.71l4.02 13.8h-3.64l-.426-1.83h-3.64l-.442 1.83h-3.61zm4.71-4.72h2.3l-1.14-4.78-1.16 4.78zm-10.2 4.72V8.69l-4.2-8.7h4.06l1.97 4.71 1.99-4.71h3.96l-4.1 8.7v5.11h-3.67zm-13.7 0L92.83 0h3.71l4.02 13.8h-3.64l-.426-1.83h-3.64l-.442 1.83h-3.61zm4.71-4.72h2.3L94.68 4.3l-1.16 4.78zm-15.9 4.72V0h3.64v4.58L84.55 0h4.26l-4.08 5.09 4.61 8.72h-4.37l-2.79-5.53-.908 1.13v4.4h-3.64zm-12.4 0V0h3.48l3.2 6.42a4.88 4.88 0 0 1 .315.768l.352 1.2-.069-.807-.024-1.07v-6.52h3.5v13.8h-3.5l-3.2-6.38a6.03 6.03 0 0 1-.323-.797l-.352-1.18a8.46 8.46 0 0 1 .077.765l.024 1.12v6.47h-3.48zm-5.39 0V0h3.74v13.8h-3.74zm-8.21 0V3.6h-3.29V-.04h10.2V3.6h-3.22v10.2h-3.67zm-10.1 0V0h3.67v10.1h4.99v3.67h-8.66zm-12.8 0L32.74 0h3.71l4.02 13.8h-3.64l-.426-1.83h-3.64l-.442 1.83h-3.61zm4.71-4.72h2.3L34.59 4.3l-1.16 4.78z"/></g><path d="M0 7.2h26.7v12.9H0z" fill="#fefefe"/><path d="M1.67 0h23.4c.92 0 1.67.751 1.67 1.67v18.4h-2.1c.043-.194.066-.401.065-.621.006-1.61-1.2-2.53-3.22-2.57-1.76-.033-3.51.944-3.93 1.2a4.39 4.39 0 0 1 .214 1.36 4.38 4.38 0 0 1-.046.635h-8.7c-.03-.207-.046-.419-.046-.635a4.38 4.38 0 0 1 .222-1.38c-.408-.245-2.17-1.23-3.94-1.2-2.02.038-3.23.957-3.22 2.57-.001.231.023.448.071.649h-2.11v-18.4c0-.92.751-1.67 1.67-1.67zm7.78 17.4c-.481-.122-2.4-.669-3.62-1.93-1.4-1.46-1.61-2.96-.461-4.09 1.14-1.14 2.64-.942 4.09.461 1.27 1.23 1.82 3.17 1.94 3.63a4.39 4.39 0 0 0-1.94 1.93zm2.56-2.19c-.252-.421-1.23-2.17-1.2-3.93.038-2.02.956-3.23 2.57-3.22 1.61-.006 2.53 1.2 2.57 3.22.033 1.77-.956 3.53-1.2 3.94a4.38 4.38 0 0 0-1.38-.222c-.474 0-.93.076-1.36.214zm3.35.263c.121-.481.668-2.4 1.93-3.62 1.46-1.4 2.96-1.61 4.09-.461 1.14 1.14.942 2.64-.461 4.09-1.23 1.27-3.17 1.82-3.63 1.94a4.39 4.39 0 0 0-1.93-1.94z" fill="#e31e24"/><g fill="#2b2a29" fill-rule="nonzero"><path d="M.92 28.9h.992l-.493-1.4-.499 1.4zM0 30.22l1.18-3.18h.477l1.19 3.18h-.469l-.337-.951H.791l-.339.951H.004zm4.79-1.17c0-.287-.058-.503-.174-.648s-.288-.218-.515-.218c-.219 0-.389.08-.508.239s-.179.385-.179.677c0 .263.061.471.184.622s.292.227.507.227a.6.6 0 0 0 .506-.233c.119-.156.179-.378.179-.665zm.363-2.01v3.18h-.376v-.291a.99.99 0 0 1-.337.272c-.125.061-.263.091-.414.091a.91.91 0 0 1-.738-.332c-.184-.221-.276-.517-.276-.889 0-.379.092-.681.277-.904s.43-.336.737-.336c.162 0 .305.03.429.09s.232.149.323.269v-1.15h.376zm2.27 2.01c0-.287-.058-.503-.174-.648s-.288-.218-.515-.218c-.219 0-.389.08-.508.239s-.179.385-.179.677c0 .263.061.471.184.622s.292.227.507.227a.6.6 0 0 0 .506-.233c.119-.156.179-.378.179-.665zm.363-2.01v3.18H7.41v-.291a.99.99 0 0 1-.337.272c-.125.061-.263.091-.414.091a.91.91 0 0 1-.738-.332c-.184-.221-.276-.517-.276-.889 0-.379.092-.681.277-.904s.43-.336.737-.336c.162 0 .305.03.429.09s.232.149.323.269v-1.15h.376zm.607 3.18v-2.31h.375v.415c.062-.156.146-.272.252-.349s.236-.116.39-.116l.063.001c.013.001.026.003.039.006v.411l-.035-.004-.058-.001c-.208 0-.366.057-.475.17s-.163.277-.163.493v1.29h-.389zm1.77-1.37h1.27c-.002-.216-.056-.383-.164-.5s-.261-.176-.46-.176c-.192 0-.343.058-.453.173s-.175.283-.193.504zm1.26.62h.384c-.042.255-.153.457-.333.603s-.407.221-.681.221c-.321 0-.575-.108-.76-.324s-.279-.511-.279-.884c0-.395.092-.703.277-.925s.439-.333.763-.333c.333 0 .59.102.772.307s.274.493.274.867l-.001.105a.62.62 0 0 1-.006.067h-1.67c.004.243.065.432.181.566a.61.61 0 0 0 .486.2.61.61 0 0 0 .392-.122c.103-.081.17-.197.2-.347zm.702-.004h.374c.015.157.071.276.17.357s.239.121.42.121c.167 0 .299-.032.395-.098s.144-.156.144-.269c0-.085-.024-.15-.072-.195s-.142-.085-.282-.118l-.434-.112c-.245-.059-.415-.137-.51-.234s-.144-.236-.144-.416c0-.204.078-.367.232-.487s.366-.181.636-.181c.275 0 .493.064.656.192a.62.62 0 0 1 .244.516v.009h-.378a.37.37 0 0 0-.15-.285c-.091-.067-.215-.1-.372-.1s-.276.027-.358.082-.122.135-.122.24c0 .075.026.134.077.176s.147.08.286.111l.376.088c.268.063.452.145.553.243s.151.24.151.423c0 .24-.085.427-.254.561s-.406.2-.71.2c-.297 0-.525-.071-.684-.212s-.24-.345-.245-.612zm2.2 0h.374c.015.157.071.276.17.357s.239.121.42.121c.167 0 .299-.032.395-.098s.144-.156.144-.269c0-.085-.024-.15-.072-.195s-.142-.085-.282-.118l-.434-.112c-.245-.059-.415-.137-.51-.234s-.144-.236-.144-.416c0-.204.078-.367.232-.487s.366-.181.636-.181c.275 0 .493.064.656.192a.62.62 0 0 1 .244.516v.009h-.378a.37.37 0 0 0-.15-.285c-.091-.067-.215-.1-.372-.1s-.276.027-.358.082-.122.135-.122.24c0 .075.026.134.077.176s.147.08.286.111l.376.088c.268.063.452.145.553.243s.151.24.151.423c0 .24-.085.427-.254.561s-.406.2-.71.2c-.297 0-.525-.071-.684-.212s-.24-.345-.245-.612zm2.49-1.08v-.477h.447v.477h-.447zm0 1.84v-.482h.447v.482h-.447zm3.22 0v-2.19h-.716v-.314c.26-.003.454-.052.586-.147s.208-.244.232-.447h.302v3.09h-.404zm1.78-1.11h.974v-1.38l-.974 1.38zm.974 1.11v-.76h-1.35v-.389l1.34-1.86h.402v1.89h.439v.354h-.439v.76h-.398zm2.84-.938c0-.2-.055-.36-.165-.479s-.255-.179-.435-.179c-.202 0-.36.059-.474.177s-.172.28-.172.486.057.37.172.49.268.182.461.182a.57.57 0 0 0 .445-.186c.112-.124.168-.287.168-.49zm.404-1.3h-.409c-.015-.162-.069-.284-.162-.367s-.224-.125-.391-.125c-.224 0-.397.092-.516.277s-.19.464-.21.839c.088-.111.193-.196.316-.253s.261-.086.414-.086c.294 0 .531.093.712.28s.271.433.271.738a1 1 0 0 1-.288.745c-.192.19-.444.285-.755.285-.358 0-.634-.125-.825-.375s-.286-.609-.286-1.08c0-.552.102-.978.305-1.28s.489-.451.858-.451c.291 0 .52.074.687.221s.26.358.279.63zm.711.178a.68.68 0 0 0 .163.476.56.56 0 0 0 .435.178c.201 0 .358-.059.474-.176s.173-.278.173-.482-.057-.37-.17-.492-.266-.182-.458-.182c-.186 0-.335.062-.448.186s-.168.288-.168.493zm-.402 1.3h.406c.005.153.055.273.153.36a.58.58 0 0 0 .4.131.58.58 0 0 0 .516-.276c.119-.184.19-.463.21-.839-.086.111-.192.196-.316.254s-.264.088-.418.088c-.292 0-.529-.093-.709-.28s-.27-.433-.27-.738.095-.558.286-.747.442-.285.755-.285c.359 0 .634.125.827.374s.288.608.288 1.08c0 .555-.102.983-.305 1.28s-.493.448-.869.448c-.292 0-.524-.077-.696-.23s-.258-.36-.26-.619zm2.66.76v-.482h.443v.482h-.443zm4.61-1.18h.419c-.019.387-.151.696-.397.926s-.563.344-.952.344c-.448 0-.799-.153-1.05-.458s-.381-.728-.381-1.27c0-.499.134-.894.4-1.19s.626-.44 1.08-.44c.36 0 .655.093.884.279s.363.44.399.76h-.423c-.041-.21-.136-.372-.288-.485s-.347-.17-.589-.17c-.323 0-.573.113-.751.339s-.267.545-.267.957c0 .389.092.701.277.935a.89.89 0 0 0 .736.353c.26 0 .474-.081.64-.243s.255-.376.267-.642zm2.31.873a1.28 1.28 0 0 1-.386.285 1.01 1.01 0 0 1-.433.095c-.237 0-.421-.062-.553-.185s-.199-.294-.199-.51c0-.211.065-.375.196-.495s.329-.197.595-.232l.274-.03c.198-.02.319-.04.363-.058s.074-.04.089-.068.021-.089.021-.183c0-.118-.044-.206-.13-.266s-.217-.088-.391-.088c-.18 0-.316.036-.407.108s-.137.179-.137.32h-.367v-.017a.68.68 0 0 1 .246-.554c.164-.135.39-.203.678-.203.309 0 .537.058.684.174s.219.297.219.544v1.16c0 .099.011.163.032.192s.06.044.116.044a.3.3 0 0 0 .042-.003l.06-.01v.301l-.124.027c-.035.005-.069.007-.101.007-.13 0-.226-.028-.291-.084s-.097-.142-.097-.255v-.013zm-.037-.869c-.104.056-.282.1-.534.132l-.201.028c-.141.023-.243.065-.305.125s-.093.148-.093.264.036.204.108.266.176.093.309.093c.21 0 .381-.052.515-.158s.201-.24.201-.404v-.346zm2.67.005c0-.287-.058-.503-.174-.648s-.288-.218-.515-.218c-.219 0-.389.08-.508.239s-.179.385-.179.677c0 .263.061.471.184.622s.292.227.507.227a.6.6 0 0 0 .506-.233c.119-.156.179-.378.179-.665zm.363-2.01v3.18h-.376v-.291a.99.99 0 0 1-.337.272c-.125.061-.263.091-.414.091a.91.91 0 0 1-.738-.332c-.184-.221-.276-.517-.276-.889 0-.379.092-.681.277-.904s.43-.336.737-.336c.162 0 .305.03.429.09s.232.149.323.269v-1.15h.376zm2.27 2.01c0-.287-.058-.503-.174-.648s-.288-.218-.515-.218c-.219 0-.389.08-.508.239s-.179.385-.179.677c0 .263.061.471.184.622s.292.227.507.227a.6.6 0 0 0 .506-.233c.119-.156.179-.378.179-.665zm.363-2.01v3.18h-.376v-.291a.99.99 0 0 1-.337.272c-.125.061-.263.091-.414.091a.91.91 0 0 1-.738-.332c-.184-.221-.276-.517-.276-.889 0-.379.092-.681.277-.904s.43-.336.737-.336c.162 0 .305.03.429.09s.232.149.323.269v-1.15h.376zm.904 1.82h1.27c-.002-.216-.056-.383-.164-.5s-.261-.176-.46-.176c-.192 0-.343.058-.453.173s-.175.283-.193.504zm1.26.62h.384c-.042.255-.153.457-.333.603s-.407.221-.681.221c-.321 0-.575-.108-.76-.324s-.279-.511-.279-.884c0-.395.092-.703.277-.925s.439-.333.763-.333c.333 0 .59.102.772.307s.274.493.274.867l-.001.105a.62.62 0 0 1-.006.067h-1.67c.004.243.065.432.181.566a.61.61 0 0 0 .486.2.61.61 0 0 0 .392-.122c.103-.081.17-.197.2-.347zm2.12.748v-3.18h.474l1.49 2.31.086.143a1 1 0 0 1 .058.125v-2.58h.413v3.18h-.469l-1.52-2.34a1.19 1.19 0 0 1-.063-.113c-.02-.038-.038-.08-.055-.123v2.58h-.411zm3.43-1.16c0 .287.062.506.185.658s.299.228.528.228.402-.076.523-.228.182-.371.182-.658-.06-.504-.182-.656-.296-.228-.523-.228-.407.076-.53.227-.184.37-.184.656zm-.398 0c0-.387.097-.69.291-.906s.465-.324.816-.324.625.108.819.323.292.518.292.906-.097.692-.291.908-.465.324-.816.324-.625-.108-.819-.323-.292-.518-.292-.909zm2.83-.677v-.477h.447v.477h-.447zm0 1.84v-.482h.447v.482h-.447zm2.01 0v-2.19h-.716v-.314c.26-.003.454-.052.586-.147s.208-.244.232-.447h.302v3.09h-.404zm1.87-1.5c0 .426.051.737.153.932a.51.51 0 0 0 .485.293c.221 0 .384-.097.484-.291s.153-.505.153-.934-.051-.743-.153-.939-.263-.293-.484-.293a.51.51 0 0 0-.485.295c-.102.196-.153.509-.153.937zm-.423 0c0-.521.09-.918.27-1.19s.444-.406.791-.406.614.135.795.405.272.667.272 1.19-.091.915-.271 1.18-.446.404-.796.404a.89.89 0 0 1-.791-.404c-.18-.269-.27-.664-.27-1.18zm3.84 1.5v-3.18h.432v3.18h-.432zm.013-3.58v-.474h.417v.474h-.417zm1.63 3.58l-.853-2.31h.417l.646 1.85.631-1.85h.417l-.844 2.31h-.413zm1.86-1.37h1.27c-.002-.216-.056-.383-.164-.5s-.261-.176-.46-.176c-.192 0-.343.058-.453.173s-.175.283-.193.504zm1.26.62h.384c-.042.255-.153.457-.333.603s-.407.221-.681.221c-.321 0-.575-.108-.76-.324s-.279-.511-.279-.884c0-.395.092-.703.277-.925s.439-.333.763-.333c.333 0 .59.102.772.307s.274.493.274.867l-.001.105a.62.62 0 0 1-.006.067h-1.67c.004.243.065.432.181.566a.61.61 0 0 0 .486.2.61.61 0 0 0 .392-.122c.103-.081.17-.197.2-.347zm2.52-.425c0-.287-.058-.503-.174-.648s-.288-.218-.515-.218c-.219 0-.389.08-.508.239s-.179.385-.179.677c0 .263.061.471.184.622s.292.227.507.227a.6.6 0 0 0 .506-.233c.119-.156.179-.378.179-.665zm.363-2.01v3.18h-.376v-.291a.99.99 0 0 1-.337.272c-.125.061-.263.091-.414.091a.91.91 0 0 1-.738-.332c-.184-.221-.276-.517-.276-.889 0-.379.092-.681.277-.904s.43-.336.737-.336c.162 0 .305.03.429.09s.232.149.323.269v-1.15h.376zm.607.442v-.443h.389v.443h-.389zm0 2.74v-2.31h.389v2.31h-.389zm.983 0v-3.18h.389v1.91l1.05-1.04h.491l-.867.845.854 1.47h-.439l-.676-1.2-.409.393v.806h-.389zm3.86-1.59c0 .408.094.726.282.957s.449.344.782.344.59-.115.777-.344.28-.549.28-.957-.094-.728-.28-.957-.446-.344-.777-.344-.594.114-.782.344-.282.548-.282.957zm-.447 0c0-.525.134-.937.4-1.23s.637-.444 1.11-.444.839.148 1.1.443c.266.295.399.707.399 1.23s-.133.937-.399 1.23-.634.444-1.1.444c-.473 0-.842-.148-1.11-.444s-.4-.707-.4-1.23zm3.41.541h.417c.004.23.081.414.23.551s.348.205.598.205.441-.052.583-.156.213-.245.213-.423c0-.243-.266-.428-.8-.555l-.074-.017c-.432-.102-.718-.217-.856-.343s-.209-.305-.209-.537c0-.283.104-.511.311-.684s.483-.258.828-.258c.352 0 .628.091.83.271s.304.428.307.744l-.413.002c-.015-.213-.087-.377-.217-.49s-.309-.171-.535-.171c-.212 0-.38.047-.507.139s-.19.217-.19.371c0 .246.262.43.786.551l.179.044.046.01c.342.083.57.171.682.266.085.072.15.159.195.262s.067.218.067.345c0 .307-.11.551-.33.732s-.517.272-.891.272c-.386 0-.687-.097-.903-.293s-.331-.475-.347-.839zm3.01 1.05v-3.18h1.28c.33 0 .578.065.743.195s.247.323.247.581c0 .166-.038.307-.114.423a.72.72 0 0 1-.342.267c.192.035.341.121.447.256s.16.305.16.51c0 .291-.097.522-.29.693s-.455.257-.786.257h-1.35zm.432-1.84h.758c.224 0 .388-.041.493-.121s.158-.207.158-.378c0-.162-.05-.281-.151-.359s-.256-.116-.465-.116h-.793v.975zm0 1.46h.877c.22 0 .387-.049.502-.146s.17-.238.17-.424-.058-.32-.174-.406-.298-.13-.547-.13h-.828v1.11zm3.94-1.12c0 .426.051.737.153.932a.51.51 0 0 0 .485.293c.221 0 .384-.097.484-.291s.153-.505.153-.934-.051-.743-.153-.939-.263-.293-.484-.293a.51.51 0 0 0-.485.295c-.102.196-.153.509-.153.937zm-.423 0c0-.521.09-.918.27-1.19s.444-.406.791-.406.614.135.795.405.272.667.272 1.19-.091.915-.271 1.18-.446.404-.796.404a.89.89 0 0 1-.791-.404c-.18-.269-.27-.664-.27-1.18zm4.15.561c0-.2-.055-.36-.165-.479s-.255-.179-.435-.179c-.202 0-.36.059-.474.177s-.172.28-.172.486.057.37.172.49.268.182.461.182a.57.57 0 0 0 .445-.186c.112-.124.168-.287.168-.49zm.404-1.3h-.409c-.015-.162-.069-.284-.162-.367s-.224-.125-.391-.125c-.224 0-.397.092-.516.277s-.19.464-.21.839c.088-.111.193-.196.316-.253s.261-.086.414-.086c.294 0 .531.093.712.28s.271.433.271.738a1 1 0 0 1-.288.745c-.192.19-.444.285-.755.285-.358 0-.634-.125-.825-.375s-.286-.609-.286-1.08c0-.552.102-.978.305-1.28s.489-.451.858-.451c.291 0 .52.074.687.221s.26.358.279.63zm.255 1.28h.402c.006.218.066.386.179.504s.274.177.482.177c.202 0 .361-.054.476-.162s.174-.256.174-.445c0-.173-.057-.307-.17-.402s-.274-.142-.48-.142l-.207.009-.015.002.002-.35.057.004h.075c.222 0 .382-.038.48-.114s.147-.197.147-.364c0-.156-.046-.275-.14-.358s-.228-.125-.402-.125c-.196 0-.344.055-.444.165s-.15.274-.15.49h-.393v-.021c0-.304.087-.547.261-.726s.409-.27.702-.27c.314 0 .558.073.732.218s.26.349.26.609c0 .15-.032.277-.097.381s-.161.184-.287.239a.73.73 0 0 1 .372.282c.084.128.126.285.126.474 0 .296-.1.534-.3.712s-.469.267-.806.267c-.316 0-.566-.093-.754-.28s-.281-.437-.281-.752v-.021zm2.92.964a4.49 4.49 0 0 1 .409-1.38c.207-.429.492-.836.853-1.22h-1.68v-.404h2.11v.367a4.85 4.85 0 0 0-.831 1.22 4.75 4.75 0 0 0-.405 1.41h-.451zm2.42-.89c0 .189.056.337.169.445s.266.162.46.162.35-.055.463-.163.17-.257.17-.444a.53.53 0 0 0-.17-.414c-.113-.101-.268-.152-.463-.152s-.35.05-.462.151-.167.239-.167.415zm.094-1.38c0 .147.049.265.147.354s.227.134.389.134.291-.045.389-.134.147-.207.147-.354-.047-.265-.142-.348-.226-.125-.394-.125-.298.042-.393.125-.142.2-.142.348zm-.009.611c-.136-.062-.239-.146-.306-.253s-.1-.238-.1-.393c0-.236.087-.427.261-.574s.404-.219.69-.219.518.074.693.22a.71.71 0 0 1 .263.572c0 .156-.034.287-.102.393s-.17.191-.306.253a.78.78 0 0 1 .384.295.85.85 0 0 1 .13.479c0 .295-.096.53-.288.707s-.451.263-.774.263-.581-.088-.772-.263-.286-.412-.286-.707c0-.189.043-.348.13-.479s.214-.229.383-.295z"/><path d="M79.6 40h.627c.006.12.049.209.13.267s.201.088.363.088c.122 0 .218-.021.285-.062s.1-.099.1-.174c0-.106-.125-.187-.376-.24l-.244-.056c-.306-.078-.518-.17-.636-.277a.55.55 0 0 1-.178-.432c0-.24.087-.431.26-.571s.409-.211.705-.211c.314 0 .561.07.74.209s.274.336.286.59h-.611c-.004-.1-.042-.176-.114-.232s-.17-.082-.297-.082c-.12 0-.208.018-.266.054s-.088.09-.088.162c0 .094.156.176.469.249l.17.039c.313.073.527.162.641.266a.56.56 0 0 1 .172.438c0 .267-.094.47-.282.61s-.462.21-.82.21c-.324 0-.578-.073-.761-.218s-.274-.346-.274-.601V40zm3.89.474c-.08.122-.183.215-.311.28s-.277.096-.448.096c-.228 0-.403-.065-.526-.195s-.185-.314-.185-.553c0-.222.061-.391.184-.508s.327-.197.611-.24l.255-.034c.267-.035.4-.112.4-.232 0-.095-.029-.163-.089-.204s-.158-.061-.296-.061c-.127 0-.224.025-.292.075s-.102.122-.102.216v.035h-.588v-.044c0-.24.085-.429.255-.566s.405-.206.704-.206c.328 0 .58.057.755.17s.263.278.263.493v1.34c0 .098.01.171.03.22s.054.084.102.108v.106h-.655a.57.57 0 0 1-.049-.134c-.012-.049-.018-.101-.019-.157zm-.011-.865a1.65 1.65 0 0 1-.353.115l-.206.045c-.111.032-.189.072-.233.119s-.066.114-.066.197.028.156.084.206.132.077.227.077c.17 0 .304-.048.401-.144s.146-.226.146-.392v-.223zm1.17 1.16v-3.18h.629v3.18h-.629zm2.64-.713h.627c-.063.248-.191.442-.384.582s-.427.211-.704.211c-.34 0-.609-.114-.808-.342s-.298-.538-.298-.929c0-.384.098-.687.294-.909s.464-.333.804-.333c.361 0 .639.109.835.327s.294.529.294.932l-.001.101a.59.59 0 0 1-.006.063h-1.57c.009.184.054.323.135.417s.198.14.351.14c.108 0 .197-.021.266-.063s.124-.108.164-.198zm-.916-.709h.925c-.006-.159-.048-.279-.126-.362s-.192-.124-.338-.124c-.136 0-.244.042-.323.125s-.124.204-.137.361zm1.86.656h.627c.006.12.049.209.13.267s.201.088.363.088c.122 0 .218-.021.285-.062s.1-.099.1-.174c0-.106-.125-.187-.376-.24l-.244-.056c-.306-.078-.518-.17-.636-.277a.55.55 0 0 1-.178-.432c0-.24.087-.431.26-.571s.409-.211.705-.211c.314 0 .561.07.74.209s.274.336.286.59h-.611c-.004-.1-.042-.176-.114-.232s-.17-.082-.297-.082c-.12 0-.208.018-.266.054s-.088.09-.088.162c0 .094.156.176.469.249l.17.039c.313.073.527.162.641.266a.56.56 0 0 1 .172.438c0 .267-.094.47-.282.61s-.462.21-.82.21c-.324 0-.578-.073-.761-.218s-.274-.346-.274-.601v-.026zm4.8.177a.79.79 0 0 1-.275.267.75.75 0 0 1-.367.086c-.227 0-.4-.062-.519-.186s-.178-.307-.178-.549c0-.344.1-.633.302-.866a.94.94 0 0 1 .742-.35.6.6 0 0 1 .3.072c.085.047.155.118.21.212l.114-.212h.384l-.317 1.29a.47.47 0 0 0-.011.049c-.003.016-.004.029-.004.04 0 .05.018.089.052.114s.086.038.154.038c.056 0 .114-.015.176-.044s.119-.069.172-.121c.124-.115.218-.249.282-.404a1.31 1.31 0 0 0 .096-.508 1.06 1.06 0 0 0-.401-.852c-.267-.223-.611-.334-1.03-.334a2.08 2.08 0 0 0-.567.074 1.63 1.63 0 0 0-.476.218c-.245.164-.433.37-.565.616s-.198.516-.198.81c0 .443.149.796.448 1.06s.696.397 1.19.397c.233 0 .461-.035.684-.106a2.27 2.27 0 0 0 .622-.307l.177.253c-.22.166-.454.291-.701.374s-.504.125-.772.125a2.62 2.62 0 0 1-.763-.105c-.232-.07-.437-.173-.618-.31-.223-.175-.39-.375-.501-.603a1.74 1.74 0 0 1-.167-.774c0-.24.038-.47.114-.688s.187-.417.334-.595a2.08 2.08 0 0 1 .769-.592c.3-.134.633-.201 1-.201a2.33 2.33 0 0 1 .686.098 1.81 1.81 0 0 1 .559.278 1.51 1.51 0 0 1 .435.517 1.46 1.46 0 0 1 .144.656 1.52 1.52 0 0 1-.142.658c-.094.201-.23.373-.407.516-.101.08-.211.142-.33.184a1.09 1.09 0 0 1-.371.064c-.153 0-.267-.03-.344-.091s-.117-.15-.12-.268zm.108-.924c-.019-.117-.061-.206-.124-.267s-.149-.092-.254-.092c-.164 0-.307.089-.428.268a1.12 1.12 0 0 0-.181.644c0 .132.029.233.088.302s.143.104.254.104a.47.47 0 0 0 .327-.136c.099-.091.166-.209.202-.355l.117-.468zm3.42 1.22c-.08.122-.183.215-.311.28s-.277.096-.448.096c-.228 0-.403-.065-.526-.195s-.185-.314-.185-.553c0-.222.061-.391.184-.508s.327-.197.611-.24l.255-.034c.267-.035.4-.112.4-.232 0-.095-.029-.163-.089-.204s-.158-.061-.296-.061c-.127 0-.224.025-.292.075s-.102.122-.102.216v.035h-.588v-.044c0-.24.085-.429.255-.566s.405-.206.704-.206c.328 0 .58.057.755.17s.263.278.263.493v1.34c0 .098.01.171.03.22s.054.084.102.108v.106h-.655a.57.57 0 0 1-.049-.134c-.012-.049-.018-.101-.019-.157zm-.011-.865a1.65 1.65 0 0 1-.353.115l-.206.045c-.111.032-.189.072-.233.119s-.066.114-.066.197.028.156.084.206.132.077.227.077c.17 0 .304-.048.401-.144s.146-.226.146-.392v-.223zm1.17 1.16v-3.18h.629v3.18h-.629zm2.24.017l-.206.008-.152.005c-.241 0-.406-.045-.494-.135s-.133-.268-.133-.533v-1.27h-.311v-.441h.311v-.642h.622v.642h.363v.441h-.363v1.3c0 .062.014.102.041.122s.083.029.168.029h.153v.473zm.376-2.63v-.572h.629v.572h-.629zm0 2.61v-2.35h.629v2.35h-.629zm1.19 0v-2.35h.616v.279c.089-.114.192-.199.311-.256s.253-.086.4-.086c.26 0 .454.067.583.202s.193.337.193.608v1.6H103v-1.42c0-.169-.029-.289-.085-.361s-.149-.108-.277-.108c-.148 0-.266.044-.352.133s-.13.209-.13.362v1.39h-.629zm2.66 0v-3.18h.611v1.67l.748-.836h.757l-.819.871.869 1.48h-.754l-.562-1-.238.257v.744h-.611zm3.79-.291c-.08.122-.183.215-.311.28s-.277.096-.448.096c-.228 0-.403-.065-.526-.195s-.185-.314-.185-.553c0-.222.061-.391.184-.508s.327-.197.611-.24l.255-.034c.267-.035.4-.112.4-.232 0-.095-.029-.163-.089-.204s-.158-.061-.296-.061c-.127 0-.224.025-.292.075s-.102.122-.102.216v.035h-.588v-.044c0-.24.085-.429.255-.566s.405-.206.704-.206c.328 0 .58.057.755.17s.263.278.263.493v1.34c0 .098.01.171.03.22s.054.084.102.108v.106h-.655a.57.57 0 0 1-.049-.134c-.012-.049-.018-.101-.019-.157zm-.011-.865a1.65 1.65 0 0 1-.353.115l-.206.045c-.111.032-.189.072-.233.119s-.066.114-.066.197.028.156.084.206.132.077.227.077c.17 0 .304-.048.401-.144s.146-.226.146-.392v-.223zm1.24 2.1v-.508l.063.007.084.002c.124 0 .217-.029.279-.088s.093-.146.093-.263c0-.009-.001-.019-.004-.032l-.009-.032-.847-2.38h.691l.495 1.69.482-1.69h.661l-.966 2.77c-.072.207-.162.349-.271.424s-.27.114-.486.114a1.86 1.86 0 0 1-.125-.005l-.14-.013zm3.63-1.23c-.08.122-.183.215-.311.28s-.277.096-.448.096c-.228 0-.403-.065-.526-.195s-.185-.314-.185-.553c0-.222.061-.391.184-.508s.327-.197.611-.24l.255-.034c.267-.035.4-.112.4-.232 0-.095-.029-.163-.089-.204s-.158-.061-.296-.061c-.127 0-.224.025-.292.075s-.102.122-.102.216v.035h-.588v-.044c0-.24.085-.429.255-.566s.405-.206.704-.206c.328 0 .58.057.755.17s.263.278.263.493v1.34c0 .098.01.171.03.22s.054.084.102.108v.106h-.655a.57.57 0 0 1-.049-.134c-.012-.049-.018-.101-.019-.157zm-.011-.865a1.65 1.65 0 0 1-.353.115l-.206.045c-.111.032-.189.072-.233.119s-.066.114-.066.197.028.156.084.206.132.077.227.077c.17 0 .304-.048.401-.144s.146-.226.146-.392v-.223zm1.18 1.16v-.65h.65v.65h-.65zm2.68-.713h.627c-.063.248-.191.442-.384.582s-.427.211-.704.211c-.34 0-.609-.114-.808-.342s-.298-.538-.298-.929c0-.384.098-.687.294-.909s.464-.333.804-.333c.361 0 .639.109.835.327s.294.529.294.932l-.001.101a.59.59 0 0 1-.006.063h-1.57c.009.184.054.323.135.417s.198.14.351.14c.108 0 .197-.021.266-.063s.124-.108.164-.198zm-.916-.709h.925c-.006-.159-.048-.279-.126-.362s-.192-.124-.338-.124c-.136 0-.244.042-.323.125s-.124.204-.137.361zm4.08-.927v2.35h-.616v-.279c-.089.114-.194.199-.313.256s-.252.086-.4.086c-.258 0-.451-.068-.58-.203s-.193-.339-.193-.608v-1.6h.629v1.42c0 .167.028.286.084.358s.149.107.279.107c.147 0 .264-.044.351-.133s.131-.21.131-.362v-1.39h.629z"/><path d="M98 30.2h-.434v-1.27l-1.18-1.91h.542l.851 1.51.845-1.51h.508l-1.13 1.88v1.3zm1.28-1.37h1.27c-.001-.216-.056-.383-.164-.5s-.261-.176-.46-.176c-.192 0-.343.058-.453.173s-.175.283-.193.504zm1.26.62h.384c-.042.255-.153.457-.333.603s-.407.221-.681.221c-.321 0-.575-.108-.76-.324s-.279-.511-.279-.884c0-.395.092-.703.277-.925s.439-.333.763-.333c.333 0 .59.102.772.307s.274.493.274.867l-.001.105a.62.62 0 0 1-.006.067h-1.67c.004.243.065.432.181.566a.61.61 0 0 0 .486.2.61.61 0 0 0 .392-.122c.103-.081.17-.197.2-.347zm2.4.748v-1.42c0-.227-.035-.385-.105-.472s-.19-.13-.36-.13c-.218 0-.386.061-.507.184s-.181.298-.181.524v1.32h-.389v-2.31h.372v.337a.88.88 0 0 1 .317-.298c.122-.065.265-.097.426-.097.174 0 .321.027.44.079s.212.131.277.237a.59.59 0 0 1 .078.198c.016.075.024.195.024.36v.11 1.39h-.393zm.977-2.74v-.443h.389v.443h-.389zm0 2.74v-2.31h.389v2.31h-.389zm3.8 0v-1.42c0-.233-.032-.392-.095-.479s-.173-.128-.33-.128c-.187 0-.333.058-.437.174s-.156.279-.156.489v1.37h-.395v-1.42c0-.233-.032-.392-.095-.479s-.173-.128-.328-.128c-.186 0-.332.059-.437.176s-.158.28-.158.487v1.37h-.389V27.9h.372v.327c.086-.13.188-.226.307-.29s.256-.095.414-.095a.74.74 0 0 1 .37.088.73.73 0 0 1 .263.275.99.99 0 0 1 .331-.275.93.93 0 0 1 .412-.088c.15 0 .28.027.391.081a.58.58 0 0 1 .255.234c.033.059.057.13.072.212s.021.212.021.389v.067 1.39h-.389zm2.41-.309a1.28 1.28 0 0 1-.386.285 1.01 1.01 0 0 1-.433.095c-.237 0-.421-.062-.553-.185s-.199-.294-.199-.51c0-.211.065-.375.196-.495s.329-.197.595-.232l.274-.03c.198-.02.319-.04.363-.058s.074-.04.089-.068.021-.089.021-.183c0-.118-.043-.206-.13-.266s-.217-.088-.391-.088c-.18 0-.316.036-.407.108s-.137.179-.137.32h-.367v-.017a.68.68 0 0 1 .246-.554c.164-.135.39-.203.678-.203.309 0 .537.058.684.174s.219.297.219.544v1.16c0 .099.011.163.032.192s.061.044.116.044a.3.3 0 0 0 .042-.003l.06-.01v.301l-.124.027c-.035.005-.069.007-.101.007-.13 0-.226-.028-.291-.084s-.097-.142-.097-.255v-.013zm-.037-.869c-.104.056-.282.1-.534.132l-.201.028c-.141.023-.243.065-.305.125s-.093.148-.093.264.036.204.108.266.176.093.309.093c.21 0 .381-.052.515-.158s.201-.24.201-.404v-.346zm2.55 1.18v-1.42c0-.229-.035-.386-.105-.473s-.19-.13-.36-.13c-.21 0-.378.06-.502.178s-.186.279-.186.481v1.37h-.389v-3.18h.389v1.19a.72.72 0 0 1 .292-.287c.124-.066.268-.098.434-.098.174 0 .321.027.44.079s.212.131.277.237a.59.59 0 0 1 .078.198c.016.075.024.195.024.36v.11 1.39h-.393zm2.41-.309a1.28 1.28 0 0 1-.386.285 1.01 1.01 0 0 1-.433.095c-.237 0-.421-.062-.553-.185s-.199-.294-.199-.51c0-.211.065-.375.196-.495s.329-.197.595-.232l.274-.03c.198-.02.319-.04.363-.058s.074-.04.089-.068.021-.089.021-.183c0-.118-.043-.206-.13-.266s-.217-.088-.391-.088c-.18 0-.316.036-.407.108s-.137.179-.137.32h-.367v-.017a.68.68 0 0 1 .246-.554c.164-.135.39-.203.678-.203.309 0 .537.058.684.174s.219.297.219.544v1.16c0 .099.011.163.032.192s.061.044.116.044a.3.3 0 0 0 .042-.003l.06-.01v.301l-.124.027c-.035.005-.069.007-.101.007-.13 0-.226-.028-.291-.084s-.097-.142-.097-.255v-.013zm-.037-.869c-.104.056-.282.1-.534.132l-.201.028c-.141.023-.243.065-.305.125s-.093.148-.093.264.036.204.108.266.176.093.309.093c.21 0 .381-.052.515-.158s.201-.24.201-.404v-.346zm1.01 1.18v-3.18h.395v3.18h-.395zm1 0v-3.18h.395v3.18h-.395zm1.29-1.37h1.27c-.001-.216-.056-.383-.164-.5s-.261-.176-.46-.176c-.192 0-.343.058-.453.173s-.175.283-.193.504zm1.26.62h.384c-.042.255-.153.457-.333.603s-.407.221-.681.221c-.321 0-.575-.108-.76-.324s-.279-.511-.279-.884c0-.395.092-.703.277-.925s.439-.333.763-.333c.333 0 .59.102.772.307s.274.493.274.867v.105a.62.62 0 0 1-.006.067h-1.67c.004.243.065.432.181.566a.61.61 0 0 0 .486.2.61.61 0 0 0 .392-.122c.103-.081.17-.197.2-.347zm-119 4.73h.992l-.493-1.4-.499 1.4zm-.92 1.32l1.18-3.18h.477l1.19 3.18h-.469l-.337-.951H.444l-.339.951h-.448zm3.17 0v-3.18h.474l1.49 2.31.086.143a1 1 0 0 1 .058.125v-2.58h.413v3.18h-.469l-1.52-2.34a1.19 1.19 0 0 1-.063-.113c-.02-.038-.038-.08-.055-.123v2.58h-.411zm3.2 0v-3.18h.428v1.54l1.53-1.54h.575l-1.3 1.27 1.34 1.91H8.06l-1.11-1.6-.493.482v1.12h-.428zm3.36-1.32h.992l-.493-1.4-.499 1.4zm-.92 1.32l1.18-3.18h.477l1.19 3.18h-.469l-.337-.951h-1.25l-.339.951h-.448zm3.6-2.81v1.08h.739c.267 0 .455-.044.566-.13s.165-.23.165-.432c0-.189-.052-.322-.156-.4s-.296-.117-.575-.117h-.739zm-.423-.374h1.23a2.76 2.76 0 0 1 .442.026c.095.018.179.047.254.086.134.074.236.176.306.307a.97.97 0 0 1 .105.462c0 .172-.037.319-.11.44s-.183.217-.328.286c.123.035.212.093.264.175s.085.221.098.417l.037.525c.007.112.022.196.044.252s.056.095.101.118v.089h-.499c-.041-.066-.069-.208-.084-.426v-.013l-.027-.414c-.015-.213-.06-.351-.136-.414s-.267-.095-.572-.095h-.7v1.36h-.428v-3.18zm3.5 1.86h.992l-.493-1.4-.499 1.4zm-.92 1.32l1.18-3.18h.477l1.19 3.18h-.469l-.337-.951h-1.25l-.339.951h-.448zm4.04.41l1.07-3.68h.272l-1.07 3.68h-.266zm3.59-.41v-2.8h-1v-.386h2.44v.386h-1v2.8h-.434zm1.74-2.31v1.42c0 .227.035.386.107.474s.192.133.362.133c.225 0 .395-.066.51-.198s.173-.326.173-.583v-1.25h.389v2.31h-.372v-.346c-.08.134-.185.234-.313.302s-.279.102-.452.102a1 1 0 0 1-.421-.082c-.12-.055-.211-.133-.274-.234a.59.59 0 0 1-.078-.198c-.015-.076-.024-.195-.024-.36v-.11-1.39h.393zm2.13 2.31v-2.31h.375v.415c.062-.156.146-.272.252-.349s.236-.116.39-.116l.063.001c.013.001.026.003.039.006v.411l-.035-.004-.058-.001c-.208 0-.366.057-.475.17s-.163.277-.163.493v1.29h-.389zm1.47 0v-3.18h.389v1.91l1.05-1.04h.491l-.867.845.854 1.47h-.439l-.676-1.2-.409.393v.806h-.389zm2.59-1.37h1.27c-.002-.216-.056-.383-.164-.5s-.261-.176-.46-.176c-.192 0-.343.057-.453.173s-.175.283-.193.504zm1.26.62h.384c-.042.255-.153.457-.333.603s-.407.221-.681.221c-.321 0-.575-.108-.76-.324s-.279-.511-.279-.884c0-.395.092-.703.277-.925s.439-.333.763-.333c.333 0 .59.102.772.307s.274.493.274.867v.105a.62.62 0 0 1-.006.067h-1.67c.004.243.065.432.181.566a.61.61 0 0 0 .486.2.61.61 0 0 0 .392-.122c.103-.081.17-.197.2-.347zm2.33-1.57h.434l-.974 2.67c-.092.252-.185.417-.279.495s-.229.116-.406.116c-.039 0-.077-.003-.116-.01a.92.92 0 0 1-.115-.027v-.372c.038.012.077.02.114.026s.075.009.112.009c.075 0 .136-.015.181-.045s.082-.079.106-.145l.101-.274-.877-2.45h.434l.642 1.87.642-1.87zm2.42 2.31l-.692-2.31h.404l.49 1.77.457-1.77h.451l.452 1.77.507-1.77h.4l-.704 2.31h-.393l-.488-1.78-.491 1.78h-.393zm3.22 0l-.692-2.31h.404l.49 1.77.457-1.77h.451l.452 1.77.507-1.77h.4l-.704 2.31h-.393l-.488-1.78-.491 1.78h-.393zm3.22 0l-.692-2.31h.404l.49 1.77.457-1.77h.451l.452 1.77.507-1.77h.4l-.704 2.31h-.393l-.488-1.78-.491 1.78h-.393zm2.6 0v-.482h.443v.482h-.443zm2.55-.309a1.28 1.28 0 0 1-.386.285 1.01 1.01 0 0 1-.433.095c-.237 0-.421-.062-.553-.185s-.199-.294-.199-.51c0-.211.065-.375.196-.495s.329-.197.595-.232l.274-.03c.198-.02.319-.04.363-.058s.074-.04.089-.068.021-.089.021-.183c0-.118-.044-.206-.13-.266s-.217-.089-.391-.089c-.18 0-.316.036-.407.108s-.137.179-.137.32h-.367v-.017a.68.68 0 0 1 .246-.554c.164-.135.39-.203.678-.203.309 0 .537.058.684.174s.219.297.219.544v1.16c0 .099.011.163.032.192s.06.044.116.044a.3.3 0 0 0 .042-.003l.06-.01v.301l-.124.027c-.035.005-.069.007-.101.007-.13 0-.226-.028-.291-.084s-.097-.142-.097-.255v-.013zm-.037-.869c-.104.056-.282.1-.534.132l-.201.028c-.141.023-.243.065-.305.125s-.093.148-.093.264.036.204.108.266.176.093.309.093c.21 0 .381-.052.515-.158s.201-.24.201-.404v-.346zm1.01 1.18v-3.18h.395v3.18h-.395zm1.45-.583c0 .104.015.173.044.208s.084.052.163.052l.083-.002.126-.009v.33l-.174.026a1.2 1.2 0 0 1-.137.009c-.182 0-.311-.035-.384-.105s-.11-.196-.11-.376v-1.55h-.346v-.309h.346v-.646h.389v.646h.417v.309h-.417v1.42zm.787-2.16v-.443h.389v.443h-.389zm0 2.74v-2.31h.389v2.31h-.389zm2.52 0v-1.42c0-.227-.035-.385-.105-.472s-.19-.13-.36-.13c-.218 0-.386.061-.507.184s-.181.298-.181.524v1.32h-.389v-2.31h.372v.337a.88.88 0 0 1 .317-.298c.122-.065.265-.097.426-.097.174 0 .321.027.44.079s.212.131.277.237a.59.59 0 0 1 .078.198c.016.075.024.195.024.36v.11 1.39h-.393zm.977 0v-3.18h.389v1.91l1.05-1.04h.491l-.867.845.854 1.47h-.439l-.676-1.2-.409.393v.806h-.389zm3.72-.309a1.28 1.28 0 0 1-.386.285 1.01 1.01 0 0 1-.433.095c-.237 0-.421-.062-.553-.185s-.199-.294-.199-.51c0-.211.065-.375.196-.495s.329-.197.595-.232l.274-.03c.198-.02.319-.04.363-.058s.074-.04.089-.068.021-.089.021-.183c0-.118-.044-.206-.13-.266s-.217-.089-.391-.089c-.18 0-.316.036-.407.108s-.137.179-.137.32h-.367v-.017a.68.68 0 0 1 .246-.554c.164-.135.39-.203.678-.203.309 0 .537.058.684.174s.219.297.219.544v1.16c0 .099.011.163.032.192s.06.044.116.044a.3.3 0 0 0 .042-.003l.06-.01v.301l-.124.027c-.035.005-.069.007-.101.007-.13 0-.226-.028-.291-.084s-.097-.142-.097-.255v-.013zm-.037-.869c-.104.056-.282.1-.534.132l-.201.028c-.141.023-.243.065-.305.125s-.093.148-.093.264.036.204.108.266.176.093.309.093c.21 0 .381-.052.515-.158s.201-.24.201-.404v-.346zm2.47-1.14h.434l-.974 2.67c-.092.252-.185.417-.279.495s-.229.116-.406.116c-.039 0-.077-.003-.116-.01a.92.92 0 0 1-.115-.027v-.372c.038.012.077.02.114.026s.075.009.112.009c.075 0 .136-.015.181-.045s.082-.079.106-.145l.101-.274-.877-2.45h.434l.642 1.87.642-1.87zm2.21 2.01a1.28 1.28 0 0 1-.386.285 1.01 1.01 0 0 1-.433.095c-.237 0-.421-.062-.553-.185s-.199-.294-.199-.51c0-.211.065-.375.196-.495s.329-.197.595-.232l.274-.03c.198-.02.319-.04.363-.058s.074-.04.089-.068.021-.089.021-.183c0-.118-.044-.206-.13-.266s-.217-.089-.391-.089c-.18 0-.316.036-.407.108s-.137.179-.137.32h-.367v-.017a.68.68 0 0 1 .246-.554c.164-.135.39-.203.678-.203.309 0 .537.058.684.174s.219.297.219.544v1.16c0 .099.011.163.032.192s.06.044.116.044a.3.3 0 0 0 .042-.003l.06-.01v.301l-.124.027c-.035.005-.069.007-.101.007-.13 0-.226-.028-.291-.084s-.097-.142-.097-.255v-.013zm-.037-.869c-.104.056-.282.1-.534.132l-.201.028c-.141.023-.243.065-.305.125s-.093.148-.093.264.036.204.108.266.176.093.309.093c.21 0 .381-.052.515-.158s.201-.24.201-.404v-.346zm1.1 1.18v-.482h.443v.482h-.443zm1.42-1.37h1.27c-.001-.216-.056-.383-.164-.5s-.261-.176-.46-.176c-.192 0-.343.057-.453.173s-.175.283-.193.504zm1.26.62h.384c-.042.255-.153.457-.333.603s-.407.221-.681.221c-.321 0-.575-.108-.76-.324s-.279-.511-.279-.884c0-.395.092-.703.277-.925s.439-.333.763-.333c.333 0 .59.102.772.307s.274.493.274.867l-.001.105a.62.62 0 0 1-.006.067h-1.67c.004.243.065.432.181.566a.61.61 0 0 0 .486.2.61.61 0 0 0 .392-.122c.103-.081.17-.197.2-.347zm1.25-1.57v1.42c0 .227.035.386.107.474s.192.133.362.133c.225 0 .395-.066.51-.198s.173-.326.173-.583v-1.25h.389v2.31h-.372v-.346c-.08.134-.185.234-.313.302s-.279.102-.452.102a1 1 0 0 1-.421-.082c-.12-.055-.211-.133-.274-.234a.59.59 0 0 1-.078-.198c-.016-.076-.024-.195-.024-.36v-.11-1.39h.393zm5.31 2.31v-2.8h-1v-.386h2.44v.386h-1v2.8h-.434zm1.55-1.37h1.27c-.001-.216-.056-.383-.164-.5s-.261-.176-.46-.176c-.192 0-.343.057-.453.173s-.175.283-.193.504zm1.26.62h.384c-.042.255-.153.457-.333.603s-.407.221-.681.221c-.321 0-.575-.108-.76-.324s-.279-.511-.279-.884c0-.395.092-.703.277-.925s.439-.333.763-.333c.333 0 .59.102.772.307s.274.493.274.867l-.001.105a.62.62 0 0 1-.006.067h-1.67c.004.243.065.432.181.566a.61.61 0 0 0 .486.2.61.61 0 0 0 .392-.122c.103-.081.17-.197.2-.347zm.866.748v-3.18h.395v3.18h-.395zm1.13-1.84v-.477h.447v.477h-.447zm0 1.84v-.482h.447v.482h-.447zm2.5-2.64h.437v1.1h1.08v.43h-1.08v1.11h-.437v-1.11h-1.08v-.43h1.08v-1.1zm3.76.62c0-.177-.044-.317-.133-.42s-.209-.154-.361-.154c-.144 0-.256.049-.336.149s-.12.238-.12.417a.57.57 0 0 0 .125.391c.083.094.201.14.352.14s.264-.046.348-.138.125-.22.125-.384zm.011.805a.69.69 0 0 1-.255.162c-.097.036-.208.054-.33.054-.304 0-.547-.091-.73-.274s-.274-.428-.274-.735c0-.325.1-.588.298-.788s.461-.3.787-.3c.377 0 .665.13.861.39s.295.639.295 1.14c0 .536-.106.946-.316 1.23s-.513.428-.907.428c-.272 0-.492-.071-.659-.213s-.259-.335-.274-.58l.625.002c.015.099.053.173.117.222s.153.074.268.074c.156 0 .274-.068.357-.204s.128-.338.14-.607zm1.58-.291c0 .376.038.649.114.819s.196.255.362.255.286-.086.363-.257.114-.443.114-.816-.038-.647-.114-.816-.198-.255-.363-.255-.287.085-.362.254-.114.442-.114.818zm-.642 0c0-.532.092-.929.277-1.19s.465-.397.84-.397.653.133.839.398.28.664.28 1.2c0 .531-.092.928-.277 1.19s-.466.393-.842.393-.655-.132-.84-.395-.277-.661-.277-1.19zm3.97-1.68c-.199.325-.347.657-.443.994s-.145.69-.145 1.06.048.721.145 1.06.244.669.443.994h-.456c-.252-.344-.443-.69-.574-1.04a2.86 2.86 0 0 1-.196-1.01 2.92 2.92 0 0 1 .196-1.02 4.34 4.34 0 0 1 .574-1.04h.456zm.164 2.24h.594c.001.173.043.303.125.39s.204.13.365.13.275-.041.36-.122.126-.198.126-.351-.049-.268-.148-.347-.245-.118-.44-.118l-.046.002-.046.002v-.428h.067c.178 0 .311-.035.397-.105s.128-.177.128-.321c0-.12-.036-.214-.109-.284a.41.41 0 0 0-.297-.105c-.136 0-.243.041-.318.121s-.112.195-.112.344v.026h-.583c.007-.317.1-.56.28-.729s.433-.254.76-.254c.31 0 .555.076.737.227s.272.355.272.611c0 .136-.031.254-.093.357s-.155.187-.279.252a.8.8 0 0 1 .359.287.76.76 0 0 1 .122.435c0 .31-.102.555-.305.737s-.481.272-.832.272-.615-.089-.803-.265-.282-.427-.282-.752v-.013zm3.47.942v-2.12h-.739v-.434h.047c.27 0 .466-.042.589-.125s.195-.223.217-.419h.495v3.09h-.609zm1.52 0c.003-.277.062-.511.177-.704s.32-.386.614-.584l.194-.125c.389-.249.584-.489.584-.719a.43.43 0 0 0-.123-.324c-.082-.079-.195-.119-.337-.119-.156 0-.275.049-.36.146s-.126.236-.126.416v.026h-.57c0-.354.095-.628.286-.819s.461-.288.812-.288c.319 0 .573.087.763.26a.89.89 0 0 1 .285.692c0 .206-.049.384-.149.536s-.292.324-.578.516l-.25.164c-.272.174-.424.307-.459.398h1.41v.527h-2.17zm2.46-3.18h.457c.252.343.442.688.572 1.04s.195.687.195 1.02-.065.669-.195 1.02a4.18 4.18 0 0 1-.572 1.03h-.457a4.04 4.04 0 0 0 .443-.997c.096-.338.145-.69.145-1.06s-.048-.72-.145-1.06-.244-.67-.443-.998z"/><path d="M99.7 34.5h.594c.001.173.043.303.125.39s.204.13.365.13.275-.041.36-.122.126-.198.126-.351-.049-.268-.148-.347-.245-.118-.44-.118l-.046.002-.046.002v-.428h.067c.178 0 .311-.035.397-.105s.128-.177.128-.321c0-.12-.036-.214-.109-.284a.41.41 0 0 0-.297-.105c-.136 0-.243.041-.318.121s-.112.195-.112.344v.026h-.583c.007-.317.1-.56.28-.729s.433-.254.76-.254c.31 0 .555.076.737.227s.272.355.272.611c0 .136-.031.254-.093.357s-.155.187-.279.252a.8.8 0 0 1 .359.287.76.76 0 0 1 .122.435c0 .31-.102.555-.305.737s-.481.272-.832.272-.615-.089-.803-.265-.282-.427-.282-.752v-.013zm4.08-1.08c0-.177-.044-.317-.133-.42s-.209-.154-.361-.154c-.144 0-.256.049-.336.149s-.12.238-.12.417a.57.57 0 0 0 .125.391c.083.094.201.14.352.14s.264-.046.348-.138.125-.22.125-.384zm.011.805a.69.69 0 0 1-.255.162c-.097.036-.208.054-.33.054-.304 0-.547-.091-.73-.274s-.274-.428-.274-.735c0-.325.1-.588.298-.788s.461-.3.787-.3c.377 0 .665.13.861.39s.295.639.295 1.14c0 .536-.106.946-.316 1.23s-.513.428-.907.428c-.272 0-.492-.071-.659-.213s-.259-.335-.274-.58l.625.002c.015.099.053.173.117.222s.153.074.268.074c.156 0 .274-.068.357-.204s.128-.338.14-.607zm.91.381h.605c.01.136.055.24.136.314s.189.111.324.111c.168 0 .296-.049.384-.147s.133-.238.133-.421c0-.172-.046-.307-.136-.405s-.216-.148-.376-.148a.49.49 0 0 0-.235.054c-.068.036-.125.089-.173.16l-.557-.032.201-1.66h1.78v.523h-1.34l-.08.62c.068-.053.146-.094.234-.12s.186-.04.294-.04c.308 0 .558.094.747.281s.284.433.284.737c0 .333-.105.598-.313.796s-.489.297-.841.297c-.319 0-.574-.082-.763-.246s-.29-.388-.302-.675zm3.76.832c.003-.277.062-.511.177-.704s.32-.386.614-.584l.194-.125c.389-.249.584-.489.584-.719a.43.43 0 0 0-.123-.324c-.082-.079-.195-.119-.337-.119-.156 0-.275.049-.36.146s-.126.236-.126.416v.026h-.57c0-.354.095-.628.286-.819s.461-.288.812-.288c.319 0 .573.087.763.26a.89.89 0 0 1 .285.692c0 .206-.049.384-.149.536s-.292.324-.578.516l-.25.164c-.272.174-.424.307-.459.398h1.41v.527h-2.17zm3.64 0h-.646c.023-.422.125-.841.306-1.26a5.02 5.02 0 0 1 .774-1.22h-1.52v-.527h2.19v.465c-.34.375-.601.771-.783 1.19s-.29.869-.323 1.35zm3.33-.983c0 .177.044.318.133.421a.45.45 0 0 0 .361.156c.143 0 .254-.05.335-.151s.121-.241.121-.421c0-.166-.042-.295-.125-.387a.45.45 0 0 0-.352-.138c-.148 0-.264.046-.347.138s-.125.22-.125.383zm-.009-.808a.69.69 0 0 1 .255-.163.95.95 0 0 1 .333-.055c.302 0 .545.092.727.277s.273.43.273.737c0 .326-.1.589-.298.789s-.461.3-.787.3c-.375 0-.661-.13-.856-.389s-.293-.639-.293-1.14c0-.538.105-.948.313-1.23s.51-.427.903-.427c.274 0 .495.072.662.214s.26.336.276.579h-.627c-.015-.1-.053-.174-.117-.225s-.152-.075-.266-.075c-.156 0-.275.067-.358.202s-.13.337-.141.608zm2.49.892c0 .151.042.268.126.35s.205.123.362.123c.15 0 .268-.042.353-.125s.128-.2.128-.348c0-.142-.044-.257-.132-.344s-.204-.13-.35-.13-.263.044-.353.132-.135.201-.135.342zm.049-1.33c0 .12.038.212.112.276s.183.096.322.096a.48.48 0 0 0 .323-.097.34.34 0 0 0 .114-.274c0-.115-.039-.206-.117-.271s-.184-.1-.32-.1-.238.034-.316.102-.118.157-.118.269zm-.223.6c-.129-.072-.224-.156-.281-.252s-.086-.22-.086-.37c0-.265.091-.473.272-.624s.432-.227.752-.227.575.075.758.226.274.359.274.625a.71.71 0 0 1-.093.37c-.062.105-.155.188-.279.252.151.071.265.168.342.293a.86.86 0 0 1 .114.455c0 .301-.099.538-.297.709s-.471.257-.818.257c-.352 0-.625-.085-.819-.255s-.292-.407-.292-.711c0-.177.036-.326.109-.446s.187-.221.344-.302zm-117 5.72v-1.98h.432v1.98c0 .298.066.518.198.661s.336.214.613.214.477-.072.612-.217.202-.364.202-.658v-1.98h.434v1.98c0 .426-.11.749-.33.968s-.543.328-.969.328c-.398 0-.696-.108-.895-.324s-.298-.541-.298-.972zm3.11 1.21v-3.18h.395v3.18h-.395zm1.38-2.31v1.42c0 .227.035.386.107.474s.192.133.362.133c.225 0 .395-.066.51-.198s.173-.326.173-.583v-1.25h.389v2.31h-.372v-.346c-.08.134-.185.234-.313.302s-.279.102-.452.102a1 1 0 0 1-.421-.082c-.12-.055-.211-.133-.274-.234a.59.59 0 0 1-.078-.198c-.016-.076-.024-.195-.024-.36v-.11-1.39h.393zm1.97 1.56h.374c.015.157.071.276.17.357s.239.121.42.121c.167 0 .299-.032.395-.098s.144-.156.144-.269c0-.085-.024-.15-.072-.195s-.142-.085-.282-.118l-.434-.112c-.245-.059-.415-.137-.51-.234s-.144-.236-.144-.416c0-.204.077-.367.232-.487s.366-.181.636-.181c.275 0 .493.064.656.192a.62.62 0 0 1 .244.516v.009h-.378a.37.37 0 0 0-.15-.285c-.091-.067-.215-.1-.372-.1s-.276.027-.358.082-.122.135-.122.24c0 .075.026.134.077.176s.147.08.286.111l.376.089c.268.063.452.145.553.243s.151.24.151.423c0 .24-.085.427-.254.561s-.406.2-.71.2c-.297 0-.525-.071-.684-.212s-.24-.345-.245-.612zm4.32.752v-2.8h-1v-.386h2.44v.386h-1v2.8h-.434zm2.68-.309a1.28 1.28 0 0 1-.386.285 1.01 1.01 0 0 1-.433.095c-.237 0-.421-.062-.553-.185s-.199-.294-.199-.51c0-.211.065-.375.196-.495s.329-.197.595-.232l.274-.03c.198-.02.319-.04.363-.058s.074-.04.089-.068.021-.089.021-.183c0-.118-.043-.206-.13-.266s-.217-.089-.391-.089c-.18 0-.316.036-.407.108s-.137.179-.137.32h-.367v-.017a.68.68 0 0 1 .246-.554c.164-.135.39-.203.678-.203.309 0 .537.058.684.174s.219.297.219.544v1.16c0 .099.011.163.033.192s.06.044.116.044a.3.3 0 0 0 .042-.003l.06-.01v.301l-.124.027c-.035.005-.069.007-.101.007-.13 0-.226-.028-.291-.084s-.097-.142-.097-.255v-.013zm-.037-.869c-.104.056-.282.1-.534.132l-.201.028c-.141.023-.243.065-.305.125s-.093.148-.093.264.036.204.108.266.176.093.309.093c.21 0 .381-.052.515-.158s.201-.24.201-.404v-.346zm.713 1.18l.806-1.19-.767-1.12h.456l.569.832.558-.832h.449l-.778 1.12.828 1.19h-.469l-.607-.895-.588.895h-.456zm3.91-1.16c0 .287.062.506.185.658s.299.228.528.228.402-.076.523-.228.182-.371.182-.658-.061-.504-.182-.656-.296-.228-.523-.228-.407.076-.53.227-.184.37-.184.656zm-.398 0c0-.387.097-.69.291-.906s.465-.324.816-.324.625.108.819.323.292.518.292.906-.097.692-.291.908-.465.324-.816.324-.625-.108-.819-.323-.292-.518-.292-.909zm2.77 1.16v-2.01h-.381v-.309h.381v-.342c0-.192.044-.335.13-.431s.218-.144.392-.144a1 1 0 0 1 .103.007l.184.024v.35l-.105-.016a.54.54 0 0 0-.068-.005c-.091 0-.154.025-.19.076s-.054.146-.054.287v.195h.417v.309h-.417v2.01h-.393zm1.17 0v-2.01h-.381v-.309h.381v-.342c0-.192.044-.335.13-.431s.218-.144.392-.144a1 1 0 0 1 .103.007l.184.024v.35l-.105-.016a.54.54 0 0 0-.068-.005c-.091 0-.154.025-.19.076s-.054.146-.054.287v.195h.417v.309h-.417v2.01h-.393zm1.08-2.74v-.443h.389v.443h-.389zm0 2.74v-2.31h.389v2.31h-.389zm2.52-1.54a.5.5 0 0 0-.172-.366c-.103-.086-.243-.128-.423-.128-.21 0-.372.076-.487.227s-.172.367-.172.648.055.499.165.652a.54.54 0 0 0 .468.229.64.64 0 0 0 .435-.141c.109-.094.176-.23.202-.409h.372c-.02.284-.12.505-.3.665s-.422.239-.726.239c-.317 0-.566-.108-.746-.326s-.271-.516-.271-.895c0-.388.094-.691.283-.911s.448-.33.777-.33c.291 0 .524.076.699.228s.268.358.28.617h-.384zm1.08.177h1.27c-.002-.216-.056-.383-.164-.5s-.261-.176-.46-.176c-.192 0-.343.057-.453.173s-.175.283-.193.504zm1.26.62h.384c-.042.255-.153.457-.333.603s-.407.221-.681.221c-.321 0-.575-.108-.76-.324s-.279-.511-.279-.884c0-.395.092-.703.277-.925s.439-.333.763-.333c.333 0 .59.102.772.307s.274.493.274.867l-.001.105a.62.62 0 0 1-.006.067h-1.67c.004.243.065.432.181.566a.61.61 0 0 0 .486.2.61.61 0 0 0 .392-.122c.103-.081.17-.197.2-.347zm2.35-.752c0 .426.051.737.153.932a.51.51 0 0 0 .485.293c.221 0 .384-.097.484-.291s.153-.505.153-.934-.051-.743-.153-.939-.263-.293-.484-.293a.51.51 0 0 0-.485.295c-.102.196-.153.509-.153.937zm-.423 0c0-.521.09-.918.27-1.19s.444-.406.791-.406.614.135.795.405.272.667.272 1.19-.091.915-.271 1.18-.446.404-.796.404a.89.89 0 0 1-.791-.404c-.18-.269-.27-.664-.27-1.18zm4.15.561c0-.2-.055-.36-.165-.479s-.255-.179-.435-.179c-.202 0-.36.059-.474.177s-.172.28-.172.486.057.37.172.49.268.182.461.182a.57.57 0 0 0 .445-.186c.112-.124.168-.287.168-.49zm.404-1.3h-.409c-.015-.162-.069-.284-.162-.367s-.224-.125-.391-.125c-.224 0-.397.092-.516.277s-.19.464-.21.839c.088-.111.193-.196.316-.253s.261-.086.414-.086c.294 0 .531.093.712.28s.271.433.271.738a1 1 0 0 1-.288.745c-.192.19-.444.285-.755.285-.358 0-.634-.125-.825-.375s-.286-.609-.286-1.08c0-.552.102-.978.305-1.28s.489-.451.858-.451c.291 0 .52.074.687.221s.26.358.279.63zm1.29 2.24v-2.19h-.716v-.314c.26-.003.454-.052.586-.147s.208-.244.232-.447h.302v3.09h-.404zm1.87-1.5c0 .426.051.737.153.932a.51.51 0 0 0 .485.293c.221 0 .384-.097.484-.291s.153-.505.153-.934-.051-.743-.153-.939-.263-.293-.484-.293a.51.51 0 0 0-.485.295c-.102.196-.153.509-.153.937zm-.423 0c0-.521.09-.918.27-1.19s.444-.406.791-.406.614.135.795.405.272.667.272 1.19-.091.915-.271 1.18-.446.404-.796.404a.89.89 0 0 1-.791-.404c-.18-.269-.27-.664-.27-1.18zm2.76.385h.974v-1.38l-.974 1.38zm.974 1.11v-.76h-1.35v-.389l1.34-1.86h.402v1.89h.439v.354h-.439v.76h-.398zm1.11 0v-.026c0-.298.072-.55.217-.753s.398-.404.757-.602l.262-.142c.156-.085.269-.181.342-.288a.64.64 0 0 0 .109-.372c0-.164-.055-.296-.167-.395a.64.64 0 0 0-.445-.149.55.55 0 0 0-.444.19c-.107.127-.161.301-.161.523v.037h-.404v-.054c0-.329.092-.588.277-.778s.434-.285.749-.285c.305 0 .551.084.736.253s.277.389.277.663c0 .213-.054.399-.162.556s-.274.296-.501.414l-.261.132c-.237.124-.409.239-.52.344a.78.78 0 0 0-.219.351h1.66v.381h-2.11zm2.43 0v-.026c0-.298.072-.55.217-.753s.398-.404.757-.602l.262-.142c.156-.085.269-.181.342-.288a.64.64 0 0 0 .109-.372c0-.164-.055-.296-.167-.395a.64.64 0 0 0-.445-.149.55.55 0 0 0-.444.19c-.107.127-.161.301-.161.523v.037h-.404v-.054c0-.329.092-.588.277-.778s.434-.285.749-.285c.305 0 .551.084.736.253s.277.389.277.663c0 .213-.054.399-.162.556s-.274.296-.501.414l-.261.132c-.237.124-.409.239-.52.344a.78.78 0 0 0-.219.351h1.66v.381h-2.11zm2.85-2.07a.68.68 0 0 0 .163.476.56.56 0 0 0 .435.178c.201 0 .358-.059.474-.176s.173-.278.173-.482-.057-.37-.17-.492-.266-.182-.458-.182c-.186 0-.335.062-.448.186s-.168.288-.168.493zm-.402 1.3h.406c.005.153.055.273.153.36a.58.58 0 0 0 .4.131.58.58 0 0 0 .516-.276c.119-.184.19-.463.21-.839-.086.111-.192.196-.316.254s-.264.088-.418.088c-.292 0-.529-.093-.709-.28s-.27-.433-.27-.738.095-.558.286-.747.442-.285.755-.285c.359 0 .634.125.827.374s.288.608.288 1.08c0 .555-.102.983-.305 1.28s-.493.448-.869.448c-.292 0-.524-.077-.696-.23s-.258-.36-.26-.619zm2.75-.354h.974v-1.38l-.974 1.38zm.974 1.11v-.76h-1.35v-.389l1.34-1.86h.402v1.89h.439v.354h-.439v.76h-.398zm1.57 0a4.49 4.49 0 0 1 .409-1.38c.207-.429.492-.836.853-1.22h-1.68v-.404h2.11v.367a4.85 4.85 0 0 0-.831 1.22 4.75 4.75 0 0 0-.405 1.41h-.451z"/></g></svg>